<svg width="184" height="75" viewBox="0 0 184 75" fill="none" xmlns="http://www.w3.org/2000/svg">
<path d="M112.999 61.4578C113.795 60.8526 114.451 60.1599 114.948 59.3993C115.442 58.6419 115.806 57.8231 116.036 56.9653C116.26 56.1206 116.374 55.2467 116.374 54.3728C116.374 53.1946 116.163 52.0424 115.75 50.9484C115.331 49.8317 114.656 48.8251 113.743 47.9545C112.837 47.0903 111.671 46.3912 110.27 45.8798C108.883 45.3748 107.204 45.1191 105.271 45.1191H93.8828V75.0033H100.159V63.6652H104.342L111.385 75H118.508L110.793 62.6748C111.635 62.3414 112.375 61.9336 112.999 61.4578ZM109.816 54.4796C109.816 55.2046 109.689 55.8034 109.442 56.2597C109.195 56.7161 108.851 57.0657 108.396 57.3311C107.919 57.6127 107.321 57.8069 106.626 57.9137C105.892 58.027 105.054 58.082 104.138 58.082H100.165V51.0131H104.138C106.152 51.0131 107.639 51.3012 108.562 51.8676C109.403 52.3887 109.816 53.2432 109.816 54.4796Z" fill="#0E173C"/>
<path d="M150.631 45.1191L146.45 65.3774L142.838 45.1191H134.724L131.112 65.3774L126.935 45.1191H120.084L127 75H135.091L138.801 53.8873L142.51 75H150.602L157.517 45.1191H150.631Z" fill="#0E173C"/>
<path d="M173.047 45.4946L172.907 45.1191H165.881L154.785 75H161.392L169.377 52.6541L173.099 63.0697L177.4 75H184L173.047 45.4946Z" fill="#0E173C"/>
<path d="M108.659 32.0916C107.256 32.0916 105.983 32.0204 104.846 31.8812C103.705 31.742 102.653 31.5155 101.685 31.2047C100.717 30.894 99.8367 30.4959 99.0409 30.0137C98.2451 29.5314 97.4882 28.9488 96.7704 28.2659C95.6172 27.1783 94.8051 25.7704 94.3374 24.0452C93.8696 22.3201 93.6357 20.5108 93.6357 18.6109V8.3992H100.188V17.8211C100.188 19.2194 100.334 20.4105 100.633 21.3879C100.928 22.3686 101.435 23.1681 102.153 23.7895C102.965 24.4757 103.978 24.9386 105.196 25.1878C106.415 25.437 107.724 25.56 109.127 25.56H115.961V12.4127C115.961 10.1761 116.28 8.2406 116.92 6.60609C117.559 4.97481 118.579 3.59923 119.986 2.47934C121.077 1.64104 122.39 1.01961 123.92 0.615022C125.446 0.210439 127.116 0.00976562 128.929 0.00976562H137.774V26.2688H131.222V6.53488H128.227C127.415 6.53488 126.684 6.62227 126.028 6.79058C125.372 6.96212 124.78 7.26637 124.248 7.70008C123.715 8.13379 123.296 8.75847 122.984 9.5644C122.672 10.3736 122.516 11.1795 122.516 11.9887V32.0916H108.659Z" fill="#BE1E2D"/>
<path d="M166.557 24.4917C166.557 26.2654 166.362 27.887 165.972 29.3661C165.582 30.8421 164.926 32.1076 164.007 33.166C163.084 34.2211 161.853 35.0465 160.31 35.6388C158.764 36.2279 156.838 36.5224 154.528 36.5224C153.905 36.5224 153.326 36.4997 152.797 36.4512C152.264 36.4059 151.744 36.3347 151.228 36.2408C150.715 36.1469 150.175 36.0369 149.614 35.9139L147.694 35.4025L147.226 28.8256C148.506 29.2302 149.691 29.5247 150.783 29.7125C151.874 29.9002 152.966 29.994 154.057 29.994C154.963 29.994 155.759 29.9552 156.445 29.8775C157.13 29.7998 157.718 29.6283 158.202 29.3661C158.686 29.1007 159.076 28.722 159.371 28.2236C159.667 27.7251 159.862 27.0746 159.956 26.2654H159.206C156.961 26.2654 154.86 26.0162 152.911 25.5177C150.962 25.0225 149.259 24.2425 147.807 23.1873C146.359 22.129 145.219 20.7696 144.39 19.1059C143.562 17.4423 143.149 15.4452 143.149 13.1116C143.149 11.0596 143.546 9.22761 144.342 7.60927C145.137 5.99418 146.245 4.62507 147.665 3.50518C149.084 2.3853 150.776 1.52434 152.742 0.91585C154.707 0.310594 156.86 0.00634766 159.203 0.00634766H166.599L166.557 24.4917ZM149.708 13.1116C149.708 14.1991 149.903 15.1572 150.292 15.9793C150.682 16.8046 151.221 17.494 151.907 18.054C152.592 18.6139 153.398 19.0347 154.317 19.3131C155.236 19.5946 156.227 19.7338 157.289 19.7338H160.05V6.5347H157.289C156.321 6.5347 155.376 6.69006 154.457 7.00078C153.534 7.3115 152.725 7.75492 152.024 8.33105C151.322 8.90718 150.76 9.59659 150.341 10.4058C149.919 11.2149 149.708 12.1147 149.708 13.1116Z" fill="#BE1E2D"/>
<path d="M174.609 36.5224C173.985 36.5224 173.378 36.4836 172.784 36.4059C172.189 36.3282 171.692 36.2246 171.286 36.1016L170.818 29.5733C171.442 29.7286 171.988 29.8387 172.459 29.9002C172.927 29.9617 173.411 29.994 173.907 29.994C175.217 29.994 176.129 29.6348 176.646 28.9227C177.159 28.2074 177.419 27.0422 177.419 25.4239V0.00634766H183.971V24.4917C183.971 26.6053 183.799 28.4178 183.458 29.9261C183.116 31.4344 182.567 32.6772 181.82 33.658C181.07 34.6387 180.105 35.3604 178.916 35.8265C177.727 36.2894 176.295 36.5224 174.609 36.5224Z" fill="#BE1E2D"/>
<path d="M37.5701 50.6473C44.8932 50.6473 50.8297 44.732 50.8297 37.4352C50.8297 30.1384 44.8932 24.2231 37.5701 24.2231C30.2471 24.2231 24.3105 30.1384 24.3105 37.4352C24.3105 44.732 30.2471 50.6473 37.5701 50.6473Z" fill="#BE1E2D"/>
<path d="M37.5698 0C16.8197 0 0 16.7595 0 37.4353C0 58.1111 16.8197 74.8705 37.5698 74.8705C58.32 74.8705 75.1397 58.1111 75.1397 37.4353C75.1397 16.7595 58.3167 0 37.5698 0ZM62.3641 49.6537C62.3446 49.6472 62.3219 49.6407 62.3024 49.6343C62.1075 49.5695 61.9191 49.4854 61.7372 49.3915C59.184 48.0871 53.6554 45.3036 51.8981 44.4168C51.596 44.2646 51.2257 44.3844 51.0698 44.6854L50.1765 46.4138C50.0076 46.7374 50.1603 47.1356 50.4981 47.2683L61.3572 51.5407C61.3572 51.5407 62.9001 52.1912 62.6955 54.1009C62.6272 54.7385 62.3674 55.3405 61.9808 55.8519C56.3905 63.1959 47.5389 67.9408 37.5731 67.9408C27.5586 67.9408 18.668 63.1506 13.0842 55.7418C12.7074 55.2434 12.4637 54.6511 12.4085 54.0264C12.2493 52.175 13.7533 51.5407 13.7533 51.5407L24.6124 47.2683C24.9534 47.1356 25.1029 46.7374 24.934 46.4138L24.0374 44.6854C23.8815 44.3844 23.5112 44.2646 23.2091 44.4168C21.4713 45.2907 16.0531 48.0224 13.461 49.343C13.1166 49.5177 12.7561 49.6634 12.3793 49.7573C12.3598 49.7637 12.3403 49.767 12.3208 49.7702C10.8331 50.1295 9.31613 49.3041 8.79315 47.8735C7.64 44.7178 6.99034 41.316 6.95461 37.7719C6.76946 20.8344 20.3441 7.04946 37.3425 6.92646C54.3538 6.80347 68.1851 20.5107 68.1851 37.432C68.1851 41.0247 67.5614 44.4685 66.418 47.6696C65.8301 49.3171 64.0273 50.1974 62.3641 49.6537Z" fill="url(#paint0_linear_10246_3879)"/>
<defs>
<linearGradient id="paint0_linear_10246_3879" x1="27.1609" y1="-7.33289" x2="41.139" y2="53.223" gradientUnits="userSpaceOnUse">
<stop stop-color="#0F2D50"/>
<stop offset="1" stop-color="#06213E"/>
</linearGradient>
</defs>
</svg>
