<svg width="512" height="513" viewBox="0 0 512 513" fill="none" xmlns="http://www.w3.org/2000/svg">
<path opacity="0.1" d="M149.458 106.699C40.5245 124.968 63.6912 179.31 35.1261 245.985C6.56095 312.625 -39.8082 413.158 76.4901 471.36C192.788 529.563 308.479 505.109 339.118 405.757C369.721 306.405 531.995 271.011 508.149 195.541C484.267 120.07 405.579 63.7978 149.458 106.735V106.699Z" fill="url(#paint0_linear_8138_188305)"/>
<g opacity="0.2">
<path d="M58.0783 168.476C64.5135 168.977 70.9845 169.406 77.4197 169.763C83.8549 170.121 90.2901 170.442 96.6895 170.657C103.089 170.871 109.596 171.086 116.067 171.193C122.538 171.301 128.937 171.372 135.372 171.372C141.807 171.372 148.314 171.301 154.749 171.193C161.184 171.086 167.691 170.871 174.126 170.621C180.562 170.371 186.997 170.049 193.396 169.692C199.831 169.334 206.231 168.905 212.666 168.405C219.101 167.904 225.536 167.368 231.972 166.724C238.407 166.117 244.842 165.437 251.242 164.687C257.641 163.936 264.005 163.149 270.404 162.291C276.768 161.433 283.131 160.504 289.495 159.538C295.859 158.573 302.223 157.536 308.551 156.428C314.878 155.32 321.278 154.176 327.642 152.924C334.005 151.673 340.262 150.422 346.554 149.099C352.882 147.741 359.174 146.346 365.466 144.88C371.758 143.415 378.158 141.842 384.486 140.269C390.885 138.66 397.285 136.979 403.648 135.299C410.048 133.619 416.483 131.903 422.883 130.222C429.282 128.542 435.646 126.898 442.081 125.289C445.191 124.502 448.302 123.752 451.448 123.001C454.594 122.25 451.662 122.357 451.305 122.465C444.869 124.002 438.47 125.611 432.106 127.255C425.671 128.9 419.272 130.616 412.836 132.296C406.437 133.976 400.073 135.657 393.674 137.337C387.274 139.017 380.875 140.626 374.476 142.163C368.219 143.665 361.963 145.131 355.67 146.525C349.378 147.919 343.086 149.278 336.794 150.529C330.466 151.816 324.102 153.032 317.739 154.211C311.375 155.391 305.083 156.464 298.719 157.501C292.355 158.537 285.992 159.503 279.628 160.432C273.193 161.362 266.757 162.22 260.322 163.006C253.887 163.793 247.559 164.544 241.124 165.187C234.689 165.831 228.325 166.474 221.89 167.01C215.455 167.547 209.019 168.047 202.549 168.476C196.078 168.905 189.714 169.263 183.279 169.584C176.843 169.906 170.373 170.156 163.902 170.335C157.431 170.514 151.031 170.657 144.596 170.693C138.161 170.728 131.726 170.764 125.29 170.693C118.855 170.621 112.348 170.514 105.913 170.335C99.4781 170.156 93.0429 169.906 86.6077 169.62C80.1725 169.334 73.7373 168.941 67.3379 168.512C60.9384 168.083 61.0814 168.083 57.9711 167.833C54.8607 167.582 57.6136 168.369 57.9711 168.405L58.0783 168.476Z" fill="white"/>
<path d="M35.8054 244.913C42.7411 241.945 49.7841 239.3 56.9343 236.94C64.0846 234.581 71.342 232.507 78.6353 230.684C85.9285 228.86 93.3289 227.287 100.765 225.929C108.201 224.57 115.709 223.426 123.217 222.497C131.046 221.531 138.947 220.745 146.813 220.173C154.678 219.601 162.579 219.136 170.48 218.814C178.345 218.493 186.246 218.278 194.111 218.171C202.048 218.028 210.021 217.992 217.957 217.956C225.858 217.956 233.759 217.956 241.624 217.956C249.49 217.956 257.462 217.956 265.399 217.885C273.336 217.813 280.629 217.706 288.208 217.492C295.787 217.277 303.331 216.991 310.91 216.562C318.454 216.133 325.997 215.561 333.541 214.846C341.013 214.131 348.449 213.237 355.849 212.165C363.321 211.092 370.793 209.805 378.194 208.268C385.523 206.766 392.852 205.014 400.073 202.977C407.295 200.939 414.553 198.615 421.667 196.041C428.781 193.467 435.86 190.607 442.867 187.711C449.875 184.779 456.846 181.812 463.853 178.845C470.861 175.913 477.868 173.017 484.982 170.336C492.097 167.655 491.846 167.798 495.314 166.618C498.782 165.438 495.493 165.939 495.171 166.082C487.95 168.548 480.871 171.301 473.792 174.161C466.821 176.986 459.885 179.953 452.949 182.885C445.906 185.888 438.828 188.855 431.713 191.644C424.599 194.432 417.591 197.006 410.405 199.33C403.219 201.654 395.926 203.656 388.561 205.408C381.233 207.16 373.868 208.661 366.432 209.948C358.995 211.235 351.488 212.308 343.944 213.201C336.436 214.095 328.893 214.775 321.385 215.347C313.877 215.919 306.262 216.312 298.719 216.634C291.14 216.92 283.596 217.134 276.017 217.241C268.438 217.349 260.43 217.42 252.6 217.456C244.663 217.456 236.762 217.456 228.826 217.456C220.889 217.456 212.988 217.456 205.051 217.527C197.114 217.599 189.178 217.706 181.205 217.956C173.34 218.171 165.439 218.493 157.574 218.957C149.708 219.422 141.736 220.03 133.835 220.816C126.22 221.567 118.605 222.532 111.061 223.677C103.59 224.821 96.1533 226.179 88.7528 227.788C81.3881 229.397 74.0591 231.22 66.8374 233.329C59.6157 235.439 52.5012 237.798 45.4582 240.444C42.0976 241.731 38.7728 243.054 35.4837 244.448C32.1946 245.842 35.4479 245.091 35.7697 244.948L35.8054 244.913Z" fill="white"/>
<path d="M4.30863 335.863C10.9226 332.431 17.7153 329.356 24.651 326.711C31.5867 324.03 38.6654 321.741 45.8157 319.739C53.1089 317.737 60.4736 316.057 67.8741 314.663C75.5606 313.233 83.2828 312.053 91.0408 311.123C98.7988 310.194 106.485 309.515 114.208 308.943C122.001 308.371 129.759 307.977 137.553 307.656C145.239 307.334 152.926 307.012 160.612 306.905C168.192 306.798 175.842 307.084 183.279 308.764C189.428 310.158 195.327 312.553 200.475 316.164C205.337 319.596 209.448 324.173 211.88 329.643C214.489 335.649 214.847 342.37 213.596 348.734C212.344 355.276 209.556 361.497 206.016 367.11C202.548 372.615 198.258 377.656 193.646 382.268C189.035 386.88 183.922 390.991 178.595 394.745C173.197 398.535 167.548 401.931 161.756 405.077C155.893 408.259 149.887 411.119 143.774 413.836C137.088 416.839 130.295 419.664 123.539 422.488C116.817 425.312 110.096 428.173 103.482 431.247C96.8682 434.322 90.3258 437.647 84.0336 441.329C77.7056 445.047 71.6637 449.194 65.872 453.735C63.0834 455.951 60.3306 458.239 57.6493 460.599C54.9679 462.958 57.7923 461.242 58.0425 460.992C63.6554 456.023 69.5544 451.411 75.7393 447.228C81.9243 443.045 88.2879 439.398 94.8661 436.038C101.409 432.713 108.094 429.674 114.851 426.778C121.644 423.847 128.472 421.022 135.265 418.126C142.058 415.231 148.171 412.514 154.463 409.403C160.434 406.472 166.297 403.29 171.946 399.786C177.523 396.318 182.921 392.493 187.926 388.239C192.896 384.02 197.543 379.372 201.619 374.26C205.73 369.076 209.27 363.427 211.701 357.207C214.06 351.129 215.383 344.551 214.668 338.008C213.953 331.466 211.415 326.175 207.375 321.527C203.335 316.879 198.258 313.519 192.753 311.159C186.282 308.371 179.31 307.084 172.303 306.583C164.688 306.011 157.002 306.333 149.387 306.583C141.521 306.833 133.62 307.155 125.755 307.584C117.961 308.013 110.132 308.549 102.338 309.264C94.5444 309.979 86.8222 310.909 79.0999 312.089C71.3777 313.269 63.6912 314.699 56.0762 316.45C48.8187 318.131 41.6328 320.133 34.5183 322.457C27.4396 324.78 20.4681 327.462 13.6754 330.536C10.3863 332.038 7.13297 333.611 3.95112 335.255C0.76927 336.9 3.91536 335.899 4.23712 335.756L4.30863 335.863Z" fill="white"/>
<path d="M222.354 501.071C228.504 495.922 234.331 490.381 239.622 484.339C244.127 479.155 248.274 473.649 251.956 467.858C255.639 462.066 258.928 456.024 261.788 449.839C264.648 443.654 267.186 437.183 269.367 430.677C271.584 424.063 273.443 417.341 275.016 410.549C276.589 403.685 277.912 396.785 278.984 389.849C280.057 382.913 280.879 375.906 281.522 368.899C282.166 361.927 282.631 354.92 282.953 347.913C283.274 340.906 283.489 333.005 284.204 325.568C284.883 318.168 286.099 310.803 288.422 303.724C290.639 297.003 294 290.711 298.504 285.241C302.687 280.164 307.692 275.874 313.126 272.192C318.561 268.51 324.603 265.328 330.716 262.575C337.008 259.751 343.443 257.391 349.95 255.103C356.457 252.815 365.645 249.812 373.582 247.452C381.483 245.093 389.455 242.876 397.463 240.874C405.507 238.836 413.587 236.977 421.702 235.333C429.818 233.688 437.969 232.151 446.156 230.828C454.379 229.505 462.602 228.361 470.86 227.396C479.119 226.431 487.663 225.68 496.101 225.001C500.248 224.643 504.395 224.286 508.542 223.892C512.689 223.499 508.899 223.285 508.542 223.32C499.926 224.143 491.31 224.786 482.694 225.608C474.435 226.395 466.213 227.36 458.026 228.504C449.839 229.648 441.652 230.971 433.5 232.473C425.349 233.974 417.234 235.654 409.154 237.513C401.074 239.373 392.994 241.41 384.986 243.627C376.978 245.843 369.005 248.239 361.104 250.813C353.883 253.137 346.697 255.604 339.618 258.321C333.362 260.752 327.177 263.433 321.278 266.615C315.486 269.761 309.909 273.408 304.975 277.805C300.042 282.167 295.751 287.279 292.498 292.999C289.245 298.719 286.671 306.477 285.276 313.663C283.882 320.992 283.274 328.429 282.917 335.9C282.559 343.122 282.309 350.38 281.844 357.601C281.379 364.823 280.736 371.687 279.914 378.695C279.091 385.702 278.019 392.709 276.732 399.68C275.445 406.652 273.872 413.409 272.013 420.13C270.154 426.851 267.973 433.465 265.434 439.936C262.896 446.371 260 452.664 256.711 458.741C253.422 464.747 249.74 470.575 245.628 476.045C241.159 482.015 236.154 487.592 230.792 492.776C227.967 495.493 225 498.139 221.997 500.642C218.994 503.144 222.104 501.285 222.39 501.035L222.354 501.071Z" fill="white"/>
<path d="M297.754 469.644C299.648 459.455 301.507 449.231 303.688 439.077C305.512 430.461 307.549 421.881 309.909 413.372C312.269 404.863 314.95 396.426 318.096 388.132C321.206 379.945 324.746 371.901 328.857 364.143C332.933 356.456 337.58 349.092 342.836 342.156C348.127 335.22 354.026 328.749 360.497 322.922C366.932 317.094 373.903 311.839 381.232 307.156C388.561 302.437 396.248 298.289 404.149 294.643C412.229 290.889 420.559 287.671 429.032 284.919C438.649 281.772 448.48 279.198 458.383 277.053C460.814 276.517 463.245 276.016 465.676 275.552C468.108 275.087 465.891 274.944 465.533 275.015C455.523 276.982 445.62 279.341 435.86 282.237C426.994 284.847 418.27 287.957 409.762 291.568C401.718 295 393.852 298.933 386.309 303.402C378.837 307.835 371.651 312.84 364.966 318.382C358.244 323.959 352.024 330.108 346.411 336.829C340.798 343.55 335.864 350.736 331.503 358.316C327.141 365.859 323.351 373.76 320.026 381.84C316.666 389.991 313.77 398.357 311.267 406.83C308.729 415.339 306.548 423.955 304.582 432.606C302.401 442.366 300.506 452.198 298.647 462.029C298.183 464.532 297.718 467.035 297.253 469.537C296.788 472.04 297.718 470.038 297.789 469.68L297.754 469.644Z" fill="white"/>
</g>
<path d="M150.829 329.462L38.5506 350.303C35.6593 350.845 32.8885 348.918 32.3464 346.026L19.5162 276.696C18.9741 273.804 20.9017 271.033 23.7327 270.491L136.011 249.65C138.903 249.108 141.673 251.035 142.216 253.927L155.106 323.257C155.588 326.149 153.72 328.92 150.829 329.462Z" fill="#FFB9B3"/>
<path d="M38.8518 320.486L40.1167 327.293L39.3939 327.413L38.2494 321.209L36.6231 321.51L36.5026 320.848L38.8518 320.486Z" fill="white"/>
<path d="M47.0438 325.427L47.1642 326.089L42.4056 326.993L42.2852 326.511L44.5741 323.198C45.1765 322.295 45.2367 321.813 45.1765 321.331C45.056 320.548 44.3934 320.186 43.3694 320.367C42.6466 320.487 42.0442 320.849 41.6226 321.451L41.0202 321.09C41.5021 320.307 42.3454 319.765 43.2489 319.644C44.6344 319.403 45.6584 319.945 45.8391 321.09C45.9595 321.752 45.8391 322.355 45.1162 323.439L43.1887 326.15L47.0438 325.427Z" fill="white"/>
<path d="M53.9708 322.895L52.5854 323.136L52.9468 324.943L52.224 325.064L51.9228 323.257L48.0678 323.98L48.0075 323.437L50.7784 318.257L51.5614 318.137L48.9111 323.196L51.8626 322.654L51.5614 321.088L52.224 320.968L52.5252 322.534L53.9106 322.293L53.9708 322.895Z" fill="white"/>
<path d="M64.3915 320.968L63.0061 321.209L63.3073 323.016L62.5845 323.136L62.2833 321.329L58.4282 322.052L58.368 321.57L61.1388 316.39L61.9219 316.27L59.2715 321.329L62.2231 320.787L61.9219 319.221L62.5845 319.101L62.8857 320.667L64.2711 320.426L64.3915 320.968Z" fill="white"/>
<path d="M70.3548 319.643C70.5958 320.788 69.9332 321.872 68.2466 322.173C67.3431 322.354 66.4395 322.233 65.6565 321.751L65.8974 321.149C66.56 321.571 67.3431 321.691 68.1261 321.571C69.2706 321.33 69.8127 320.667 69.632 319.824C69.5115 318.98 68.7887 318.499 67.1021 318.8L65.6565 319.041L65.3553 315.547L69.0899 314.824L69.2104 315.487L66.0781 316.089L66.2588 318.318L67.1624 318.137C69.1501 317.776 70.1139 318.438 70.3548 319.643Z" fill="white"/>
<path d="M77.041 318.379C77.2819 319.644 76.4386 320.668 75.1134 320.909C73.3064 321.271 72.1017 320.186 71.68 318.018C71.2584 315.729 72.2824 314.283 74.1497 313.922C74.6918 313.801 75.2941 313.801 75.8362 313.982L75.6555 314.584C75.2339 314.404 74.752 314.404 74.2701 314.524C72.8245 314.825 72.0414 315.91 72.4028 317.777C72.4631 317.958 72.4631 318.138 72.5233 318.319C72.7642 317.476 73.4871 316.873 74.3906 316.753C75.7158 316.512 76.8 317.114 77.041 318.379ZM76.3784 318.5C76.1977 317.596 75.4748 317.175 74.3906 317.355C73.4871 317.415 72.8245 318.199 72.8847 319.042C72.8847 319.102 72.8847 319.102 72.8847 319.162C73.0052 319.885 73.7882 320.488 74.9327 320.307C75.776 320.247 76.3784 319.524 76.3181 318.68C76.3784 318.68 76.3784 318.56 76.3784 318.5Z" fill="white"/>
<path d="M86.3774 316.753C86.6184 317.897 85.8955 318.921 84.2692 319.222C83.3657 319.403 82.4621 319.283 81.6791 318.801L81.92 318.198C82.5826 318.62 83.4259 318.74 84.1487 318.62C85.2932 318.439 85.8353 317.716 85.6546 316.933C85.4739 316.09 84.8113 315.668 83.5464 315.909L83.0645 316.03L82.944 315.488L84.3897 312.777L80.896 313.44L80.7755 312.777L85.1727 311.994L85.2932 312.476L83.8475 315.247C85.2932 315.006 86.1967 315.608 86.3774 316.753Z" fill="white"/>
<path d="M93.2442 315.368C93.4852 316.632 92.6419 317.656 91.3167 317.897C89.5097 318.259 88.3049 317.175 87.8833 315.006C87.4617 312.657 88.4857 311.272 90.353 310.91C90.8951 310.79 91.4974 310.79 92.0395 310.97L91.8588 311.573C91.4372 311.392 90.9553 311.392 90.4734 311.512C89.0278 311.814 88.2447 312.898 88.6061 314.765C88.6664 314.946 88.6664 315.127 88.7266 315.307C88.9675 314.464 89.6904 313.862 90.5939 313.741C91.8588 313.5 92.9431 314.163 93.2442 315.368ZM92.5214 315.488C92.3407 314.584 91.5577 314.163 90.5337 314.344C89.6301 314.404 88.9675 315.187 89.0278 316.03C89.0278 316.09 89.0278 316.09 89.0278 316.151C89.1482 316.873 89.9313 317.476 91.0758 317.295C91.9191 317.235 92.5214 316.512 92.4612 315.669C92.5214 315.608 92.5214 315.608 92.5214 315.488Z" fill="white"/>
<path d="M98.6052 309.404L98.7257 309.886L97.0391 316.753L96.3162 316.873L97.9426 310.187L94.449 310.85L94.6899 312.115L94.0273 312.235L93.6659 310.308L98.6052 309.404Z" fill="white"/>
<path d="M108.303 307.656L108.424 308.138L106.737 315.005L105.954 315.125L107.58 308.439L104.087 309.102L104.328 310.367L103.605 310.487L103.243 308.62L108.303 307.656Z" fill="white"/>
<path d="M115.953 311.27C116.194 312.475 115.29 313.438 113.664 313.74C112.038 314.041 110.893 313.499 110.652 312.294C110.472 311.511 110.893 310.668 111.616 310.366C110.953 310.306 110.351 309.764 110.291 309.041C110.05 307.957 110.893 307.054 112.339 306.813C113.784 306.511 114.869 307.054 115.11 308.198C115.23 308.861 114.929 309.583 114.266 309.885C115.11 309.885 115.772 310.487 115.953 311.27ZM115.23 311.451C115.049 310.607 114.266 310.246 113.062 310.427C111.857 310.668 111.255 311.33 111.375 312.174C111.556 313.017 112.339 313.438 113.544 313.198C114.748 312.896 115.351 312.294 115.23 311.451ZM112.941 309.885C114.025 309.704 114.568 309.102 114.387 308.379C114.206 307.656 113.483 307.294 112.459 307.475C111.435 307.656 110.893 308.258 111.014 309.041C111.194 309.704 111.857 310.065 112.941 309.885Z" fill="white"/>
<path d="M122.278 308.499C122.699 310.848 121.675 312.233 119.808 312.595C119.266 312.715 118.664 312.715 118.121 312.535L118.302 311.932C118.724 312.113 119.206 312.113 119.688 311.993C121.133 311.691 121.916 310.607 121.555 308.74C121.495 308.559 121.495 308.378 121.434 308.198C121.193 309.041 120.471 309.643 119.567 309.764C118.242 310.005 117.097 309.402 116.917 308.137C116.676 306.872 117.519 305.848 118.844 305.608C120.651 305.246 121.856 306.33 122.278 308.499ZM121.073 307.354C120.952 306.632 120.169 306.029 119.025 306.21C118.182 306.27 117.579 306.993 117.64 307.836C117.64 307.896 117.64 307.957 117.64 308.017C117.82 308.92 118.543 309.342 119.627 309.161C120.531 309.101 121.193 308.318 121.133 307.475C121.073 307.415 121.073 307.354 121.073 307.354Z" fill="white"/>
<path d="M128.542 303.861L129.807 310.668L129.084 310.788L127.94 304.584L126.313 304.885L126.193 304.223L128.542 303.861Z" fill="white"/>
<path d="M136.674 308.741L136.794 309.403L132.036 310.247L131.915 309.765L134.204 306.452C134.807 305.548 134.867 305.067 134.807 304.585C134.686 303.802 134.024 303.44 133 303.621C132.277 303.681 131.674 304.103 131.253 304.705L130.65 304.344C131.132 303.561 131.976 303.019 132.879 302.898C134.264 302.657 135.288 303.199 135.469 304.344C135.59 305.006 135.469 305.609 134.746 306.693L132.879 309.403L136.674 308.741Z" fill="white"/>
<path d="M142.577 306.272C142.758 307.416 142.095 308.44 140.469 308.742C139.565 308.922 138.662 308.802 137.879 308.32L138.12 307.718C138.782 308.139 139.625 308.26 140.348 308.139C141.493 307.959 142.035 307.236 141.854 306.453C141.673 305.609 141.011 305.188 139.746 305.429L139.264 305.549L139.144 305.007L140.589 302.296L137.096 302.959L136.975 302.296L141.372 301.453L141.493 301.935L139.987 304.766C141.493 304.585 142.336 305.188 142.577 306.272Z" fill="white"/>
<path d="M146.118 312.851L91.5751 322.986L92.1253 325.947L146.668 315.812L146.118 312.851Z" fill="white"/>
<path d="M147.189 318.757L119.237 323.951L119.787 326.912L147.74 321.718L147.189 318.757Z" fill="white"/>
<path d="M32.768 298.441L49.5134 295.429C51.2 295.128 52.8264 296.212 53.1275 297.899L55.1153 308.862C55.4165 310.548 54.3322 312.174 52.6457 312.476L35.9002 315.487C34.2137 315.789 32.5873 314.704 32.2861 313.018L30.2984 302.055C29.9972 300.368 31.0814 298.802 32.768 298.441Z" fill="white"/>
<path d="M32.768 310.668L32.5873 309.584L44.3934 307.416C45.7788 307.175 46.6824 305.85 46.3812 304.464C46.1402 303.079 44.8151 302.175 43.4296 302.476L31.6235 304.645L31.4428 303.561L43.2489 301.392C45.2367 301.091 47.104 302.416 47.4052 304.404C47.7064 306.332 46.4414 308.078 44.5741 308.5L32.768 310.668Z" fill="#E18991"/>
<path d="M54.8757 302.338L46.761 303.838L46.9581 304.904L55.0728 303.404L54.8757 302.338Z" fill="#E18991"/>
<path d="M89.3934 272.837L30.5273 283.775L31.4627 288.809L90.3288 277.87L89.3934 272.837Z" fill="white"/>
<path d="M121.073 263.444L129.024 261.938C130.108 261.757 131.132 262.42 131.313 263.504L132.819 271.455C133 272.539 132.337 273.563 131.253 273.744L123.302 275.25C122.217 275.43 121.193 274.768 121.013 273.684L119.507 265.733C119.266 264.648 119.989 263.624 121.073 263.444Z" fill="white"/>
<path d="M183.356 109.723L57.8861 191.281V207.485L308.887 208.268V191.281L183.356 109.723Z" fill="#D9E0EE"/>
<path d="M107.4 216.037H59.8739V223.627H107.4V216.037Z" fill="#C9979C"/>
<path d="M107.4 348.135H59.8739V355.724H107.4V348.135Z" fill="#C9979C"/>
<path d="M100.834 219.832H66.3793V351.928H100.834V219.832Z" fill="#D9E0EE"/>
<path d="M206.426 216.037H158.901V223.627H206.426V216.037Z" fill="#C9979C"/>
<path d="M206.426 348.135H158.901V355.724H206.426V348.135Z" fill="#C9979C"/>
<path d="M199.921 219.832H165.466V351.928H199.921V219.832Z" fill="#D9E0EE"/>
<path d="M308.887 216.037H261.361V223.627H308.887V216.037Z" fill="#C9979C"/>
<path d="M308.887 348.135H261.361V355.724H308.887V348.135Z" fill="#C9979C"/>
<path d="M302.381 219.832H267.927V351.928H302.381V219.832Z" fill="#D9E0EE"/>
<path d="M322.259 363.312H44.5139V377.769H322.259V363.312Z" fill="#D9E0EE"/>
<path d="M341.896 384.035H24.7567V398.492H341.896V384.035Z" fill="#D9E0EE"/>
<path d="M182.694 175.319C193.705 175.319 202.632 166.393 202.632 155.381C202.632 144.37 193.705 135.443 182.694 135.443C171.682 135.443 162.756 144.37 162.756 155.381C162.756 166.393 171.682 175.319 182.694 175.319Z" fill="#FFB9B3"/>
<path d="M353.34 149.659C353.16 163.453 341.835 174.536 327.981 174.415C314.127 174.235 303.044 162.911 303.224 149.117C303.405 135.323 314.729 124.239 328.584 124.42C342.438 124.541 353.521 135.865 353.34 149.659Z" fill="#AA1826"/>
<path d="M347.377 149.599C347.257 160.14 338.583 168.573 328.041 168.452C317.5 168.332 309.007 159.718 309.128 149.177C309.248 138.636 317.922 130.203 328.463 130.324C339.064 130.444 347.497 139.058 347.377 149.599Z" fill="#FF7A87"/>
<g clip-path="url(#clip0_8138_188305)">
<path d="M323.999 156.51C323.127 156.897 322.305 157.429 321.571 158.103L328.943 162.359C329.815 161.972 330.638 161.44 331.371 160.766L323.999 156.51Z" fill="#AA1826"/>
<path d="M332.464 158.404C333.336 158.017 334.159 157.485 334.892 156.811L329.149 153.496L330.91 151.518L335.985 154.449C336.857 154.062 337.68 153.53 338.413 152.856L332.671 149.54L339.003 142.427C337.893 142.178 336.743 142.141 335.627 142.314L330.374 148.214L328.077 146.888L336.003 137.985C334.893 137.736 333.743 137.699 332.627 137.872L325.781 145.562L320.643 142.595C319.771 142.982 318.948 143.514 318.214 144.188L324.02 147.54L321.803 150.031L315.581 146.438C314.709 146.825 313.887 147.357 313.153 148.031L319.666 151.792C320.194 152.1 320.812 152.18 321.385 152.041L323.717 151.453L323.717 151.453C323.959 151.392 324.185 151.261 324.363 151.06L326.317 148.866L328.613 150.192L325.092 154.148L332.465 158.404L332.464 158.404Z" fill="#AA1826"/>
</g>
<path d="M426.244 263.091C444.616 244.719 444.615 214.933 426.243 196.561C407.871 178.19 378.085 178.191 359.713 196.563C341.342 214.935 341.342 244.721 359.714 263.093C378.086 281.464 407.873 281.463 426.244 263.091Z" fill="#AA1826"/>
<path d="M426.888 217.543C433.875 235.734 424.84 256.154 406.648 263.141C388.457 270.128 368.038 261.093 361.05 242.902C354.063 224.711 363.098 204.291 381.289 197.304C381.289 197.304 381.289 197.304 381.35 197.304C399.48 190.317 419.84 199.412 426.888 217.543Z" fill="#FF7A87"/>
<g clip-path="url(#clip1_8138_188305)">
<path d="M402.532 244.254C402.19 246.144 402.145 248.115 402.437 250.099L417.865 242.642C418.208 240.752 418.252 238.781 417.96 236.797L402.532 244.254Z" fill="#AA1826"/>
<path d="M415.265 232.304C415.607 230.414 415.652 228.443 415.36 226.459L403.343 232.269L402.042 227.099L412.665 221.966C413.007 220.077 413.052 218.105 412.76 216.122L400.742 221.929L396.066 203.338C394.394 204.904 393.031 206.776 392.056 208.83L395.935 224.253L391.129 226.576L385.276 203.305C383.605 204.871 382.241 206.744 381.267 208.797L386.322 228.898L375.568 234.095C375.225 235.985 375.18 237.956 375.472 239.94L387.623 234.068L389.26 240.578L376.238 246.871C375.896 248.761 375.851 250.732 376.143 252.715L389.773 246.129C390.884 245.598 391.718 244.66 392.134 243.549L393.793 239.001L393.793 239C393.966 238.529 394.003 238.004 393.871 237.48L392.429 231.745L397.235 229.422L399.836 239.761L415.264 232.303L415.265 232.304Z" fill="#AA1826"/>
</g>
<path d="M446.825 273.803H347.256V293.861H446.825V273.803Z" fill="#FF7A87"/>
<path d="M440.44 274.104C440.2 274.104 440.019 278.501 440.019 283.862C440.019 289.223 440.2 293.62 440.44 293.62C440.681 293.62 440.862 289.283 440.862 283.862C440.862 278.44 440.681 274.104 440.44 274.104Z" fill="#AA1826"/>
<path d="M431.224 274.104C430.984 274.104 430.803 278.501 430.803 283.862C430.803 289.223 430.984 293.62 431.224 293.62C431.465 293.62 431.646 289.283 431.646 283.862C431.646 278.44 431.405 274.104 431.224 274.104Z" fill="#AA1826"/>
<path d="M422.069 274.104C421.828 274.104 421.647 278.501 421.647 283.862C421.647 289.223 421.828 293.62 422.069 293.62C422.31 293.62 422.49 289.283 422.49 283.862C422.49 278.44 422.31 274.104 422.069 274.104Z" fill="#AA1826"/>
<path d="M412.973 274.104C412.732 274.104 412.552 278.501 412.552 283.862C412.552 289.223 412.732 293.62 412.973 293.62C413.214 293.62 413.395 289.283 413.395 283.862C413.395 278.44 413.274 274.104 412.973 274.104Z" fill="#AA1826"/>
<path d="M403.938 274.104C403.697 274.104 403.516 278.501 403.516 283.862C403.516 289.223 403.697 293.62 403.938 293.62C404.179 293.62 404.36 289.283 404.36 283.862C404.36 278.44 404.179 274.104 403.938 274.104Z" fill="#AA1826"/>
<path d="M394.842 274.104C394.601 274.104 394.421 278.501 394.421 283.862C394.421 289.223 394.601 293.62 394.842 293.62C395.083 293.62 395.264 289.283 395.264 283.862C395.264 278.44 395.083 274.104 394.842 274.104Z" fill="#AA1826"/>
<path d="M385.747 274.104C385.506 274.104 385.325 278.501 385.325 283.862C385.325 289.223 385.506 293.62 385.747 293.62C385.988 293.62 386.168 289.283 386.168 283.862C386.168 278.44 385.988 274.104 385.747 274.104Z" fill="#AA1826"/>
<path d="M376.651 274.104C376.41 274.104 376.23 278.501 376.23 283.862C376.23 289.223 376.41 293.62 376.651 293.62C376.892 293.62 377.073 289.283 377.073 283.862C377.073 278.44 376.952 274.104 376.651 274.104Z" fill="#AA1826"/>
<path d="M367.616 274.104C367.375 274.104 367.194 278.501 367.194 283.862C367.194 289.223 367.375 293.62 367.616 293.62C367.857 293.62 368.038 289.283 368.038 283.862C368.038 278.44 367.857 274.104 367.616 274.104Z" fill="#AA1826"/>
<path d="M358.52 274.104C358.28 274.104 358.099 278.501 358.099 283.862C358.099 289.223 358.28 293.62 358.52 293.62C358.761 293.62 358.942 289.283 358.942 283.862C358.942 278.44 358.761 274.104 358.52 274.104Z" fill="#AA1826"/>
<path d="M349.425 274.104C349.184 274.104 349.003 278.501 349.003 283.862C349.003 289.223 349.184 293.62 349.425 293.62C349.666 293.62 349.847 289.283 349.847 283.862C349.847 278.44 349.666 274.104 349.425 274.104Z" fill="#AA1826"/>
<path d="M347.136 273.863C347.136 274.104 369.363 274.285 396.83 274.285C424.297 274.285 446.524 274.104 446.524 273.863C446.524 273.622 424.297 273.441 396.83 273.441C369.423 273.441 347.136 273.622 347.136 273.863Z" fill="#AA1826"/>
<path d="M444.536 293.561H344.968V313.619H444.536V293.561Z" fill="#FF7A87"/>
<path d="M438.212 293.861C437.971 293.861 437.79 298.198 437.79 303.559C437.79 308.92 437.971 313.317 438.212 313.317C438.453 313.317 438.633 308.98 438.633 303.559C438.633 298.198 438.453 293.861 438.212 293.861Z" fill="#AA1826"/>
<path d="M428.936 293.861C428.695 293.861 428.514 298.198 428.514 303.559C428.514 308.92 428.695 313.317 428.936 313.317C429.176 313.317 429.357 308.98 429.357 303.559C429.417 298.198 429.176 293.861 428.936 293.861Z" fill="#AA1826"/>
<path d="M419.84 293.861C419.599 293.861 419.418 298.198 419.418 303.559C419.418 308.92 419.599 313.317 419.84 313.317C420.081 313.317 420.262 308.98 420.262 303.559C420.262 298.198 420.081 293.861 419.84 293.861Z" fill="#AA1826"/>
<path d="M410.744 293.861C410.504 293.861 410.323 298.198 410.323 303.559C410.323 308.92 410.504 313.317 410.744 313.317C410.985 313.317 411.166 308.98 411.166 303.559C411.166 298.198 410.985 293.861 410.744 293.861Z" fill="#AA1826"/>
<path d="M401.649 293.861C401.408 293.861 401.227 298.198 401.227 303.559C401.227 308.92 401.408 313.317 401.649 313.317C401.89 313.317 402.071 308.98 402.071 303.559C402.131 298.198 401.89 293.861 401.649 293.861Z" fill="#AA1826"/>
<path d="M392.614 293.861C392.373 293.861 392.192 298.198 392.192 303.559C392.192 308.92 392.373 313.317 392.614 313.317C392.855 313.317 393.035 308.98 393.035 303.559C393.035 298.198 392.855 293.861 392.614 293.861Z" fill="#AA1826"/>
<path d="M383.578 293.861C383.337 293.861 383.157 298.198 383.157 303.559C383.157 308.92 383.337 313.317 383.578 313.317C383.819 313.317 384 308.98 384 303.559C384 298.198 383.759 293.861 383.578 293.861Z" fill="#AA1826"/>
<path d="M374.423 293.861C374.182 293.861 374.001 298.198 374.001 303.559C374.001 308.92 374.182 313.317 374.423 313.317C374.664 313.317 374.844 308.98 374.844 303.559C374.844 298.198 374.664 293.861 374.423 293.861Z" fill="#AA1826"/>
<path d="M365.387 293.861C365.146 293.861 364.966 298.198 364.966 303.559C364.966 308.92 365.146 313.317 365.387 313.317C365.628 313.317 365.809 308.98 365.809 303.559C365.809 298.198 365.628 293.861 365.387 293.861Z" fill="#AA1826"/>
<path d="M356.292 293.861C356.051 293.861 355.87 298.198 355.87 303.559C355.87 308.92 356.051 313.317 356.292 313.317C356.533 313.317 356.713 308.98 356.713 303.559C356.713 298.198 356.593 293.861 356.292 293.861Z" fill="#AA1826"/>
<path d="M347.136 293.861C346.895 293.861 346.714 298.198 346.714 303.559C346.714 308.92 346.895 313.317 347.136 313.317C347.377 313.317 347.558 308.98 347.558 303.559C347.558 298.198 347.437 293.861 347.136 293.861Z" fill="#AA1826"/>
<path d="M344.968 293.621C344.968 293.862 367.194 294.043 394.662 294.043C422.129 294.043 444.356 293.862 444.356 293.621C444.356 293.38 422.129 293.199 394.662 293.199C367.255 293.139 344.968 293.44 344.968 293.621Z" fill="#AA1826"/>
<path d="M454.054 312.955H354.485V333.013H454.054V312.955Z" fill="#FF7A87"/>
<path d="M447.669 313.318C447.428 313.318 447.247 317.716 447.247 323.076C447.247 328.437 447.428 332.835 447.669 332.835C447.91 332.835 448.09 328.498 448.09 323.076C448.09 317.655 447.91 313.318 447.669 313.318Z" fill="#AA1826"/>
<path d="M438.392 313.318C438.152 313.318 437.971 317.716 437.971 323.076C437.971 328.437 438.152 332.835 438.392 332.835C438.633 332.835 438.814 328.498 438.814 323.076C438.814 317.655 438.633 313.318 438.392 313.318Z" fill="#AA1826"/>
<path d="M429.297 313.318C429.056 313.318 428.875 317.716 428.875 323.076C428.875 328.437 429.056 332.835 429.297 332.835C429.538 332.835 429.719 328.498 429.719 323.076C429.719 317.655 429.538 313.318 429.297 313.318Z" fill="#AA1826"/>
<path d="M420.201 313.318C419.96 313.318 419.78 317.716 419.78 323.076C419.78 328.437 419.96 332.835 420.201 332.835C420.442 332.835 420.623 328.498 420.623 323.076C420.623 317.655 420.442 313.318 420.201 313.318Z" fill="#AA1826"/>
<path d="M411.106 313.318C410.865 313.318 410.684 317.716 410.684 323.076C410.684 328.437 410.865 332.835 411.106 332.835C411.347 332.835 411.528 328.498 411.528 323.076C411.528 317.655 411.347 313.318 411.106 313.318Z" fill="#AA1826"/>
<path d="M402.071 313.318C401.83 313.318 401.649 317.716 401.649 323.076C401.649 328.437 401.83 332.835 402.071 332.835C402.312 332.835 402.492 328.498 402.492 323.076C402.492 317.655 402.312 313.318 402.071 313.318Z" fill="#AA1826"/>
<path d="M393.035 313.318C392.794 313.318 392.614 317.716 392.614 323.076C392.614 328.437 392.794 332.835 393.035 332.835C393.276 332.835 393.457 328.498 393.457 323.076C393.457 317.655 393.216 313.318 393.035 313.318Z" fill="#AA1826"/>
<path d="M383.88 313.318C383.639 313.318 383.458 317.716 383.458 323.076C383.458 328.437 383.639 332.835 383.88 332.835C384.12 332.835 384.301 328.498 384.301 323.076C384.301 317.655 384.12 313.318 383.88 313.318Z" fill="#AA1826"/>
<path d="M374.844 313.318C374.603 313.318 374.423 317.716 374.423 323.076C374.423 328.437 374.603 332.835 374.844 332.835C375.085 332.835 375.266 328.498 375.266 323.076C375.266 317.655 375.085 313.318 374.844 313.318Z" fill="#AA1826"/>
<path d="M365.749 313.318C365.508 313.318 365.327 317.716 365.327 323.076C365.327 328.437 365.508 332.835 365.749 332.835C365.99 332.835 366.17 328.498 366.17 323.076C366.17 317.655 366.05 313.318 365.749 313.318Z" fill="#AA1826"/>
<path d="M356.653 313.318C356.412 313.318 356.232 317.716 356.232 323.076C356.232 328.437 356.412 332.835 356.653 332.835C356.894 332.835 357.075 328.498 357.075 323.076C357.075 317.655 356.894 313.318 356.653 313.318Z" fill="#AA1826"/>
<path d="M354.424 313.015C354.424 313.256 376.651 313.437 404.119 313.437C431.586 313.437 453.813 313.256 453.813 313.015C453.813 312.774 431.586 312.594 404.119 312.594C376.651 312.594 354.424 312.835 354.424 313.015Z" fill="#AA1826"/>
<path d="M442.368 332.895H342.799V352.23H442.368V332.895Z" fill="#FF7A87"/>
<path d="M435.983 333.256C435.742 333.256 435.561 337.412 435.561 342.592C435.561 347.773 435.742 351.929 435.983 351.929C436.224 351.929 436.405 347.712 436.405 342.592C436.405 337.412 436.164 333.256 435.983 333.256Z" fill="#AA1826"/>
<path d="M426.707 333.256C426.466 333.256 426.285 337.412 426.285 342.592C426.285 347.773 426.466 351.929 426.707 351.929C426.948 351.929 427.128 347.712 427.128 342.592C427.189 337.412 427.008 333.256 426.707 333.256Z" fill="#AA1826"/>
<path d="M417.611 333.256C417.37 333.256 417.19 337.412 417.19 342.592C417.19 347.773 417.37 351.929 417.611 351.929C417.852 351.929 418.033 347.712 418.033 342.592C418.033 337.412 417.852 333.256 417.611 333.256Z" fill="#AA1826"/>
<path d="M408.516 333.256C408.275 333.256 408.094 337.412 408.094 342.592C408.094 347.773 408.275 351.929 408.516 351.929C408.757 351.929 408.937 347.712 408.937 342.592C408.998 337.412 408.757 333.256 408.516 333.256Z" fill="#AA1826"/>
<path d="M399.48 333.256C399.24 333.256 399.059 337.412 399.059 342.592C399.059 347.773 399.24 351.929 399.48 351.929C399.721 351.929 399.902 347.712 399.902 342.592C399.902 337.412 399.782 333.256 399.48 333.256Z" fill="#AA1826"/>
<path d="M390.385 333.256C390.144 333.256 389.963 337.412 389.963 342.592C389.963 347.773 390.144 351.929 390.385 351.929C390.626 351.929 390.807 347.712 390.807 342.592C390.807 337.412 390.626 333.256 390.385 333.256Z" fill="#AA1826"/>
<path d="M381.289 333.256C381.048 333.256 380.868 337.412 380.868 342.592C380.868 347.773 381.048 351.929 381.289 351.929C381.53 351.929 381.711 347.712 381.711 342.592C381.711 337.412 381.53 333.256 381.289 333.256Z" fill="#AA1826"/>
<path d="M372.254 333.256C372.013 333.256 371.832 337.412 371.832 342.592C371.832 347.773 372.013 351.929 372.254 351.929C372.495 351.929 372.676 347.712 372.676 342.592C372.676 337.412 372.495 333.256 372.254 333.256Z" fill="#AA1826"/>
<path d="M363.159 333.256C362.918 333.256 362.737 337.412 362.737 342.592C362.737 347.773 362.918 351.929 363.159 351.929C363.4 351.929 363.58 347.712 363.58 342.592C363.58 337.412 363.339 333.256 363.159 333.256Z" fill="#AA1826"/>
<path d="M354.063 333.256C353.822 333.256 353.641 337.412 353.641 342.592C353.641 347.773 353.822 351.929 354.063 351.929C354.304 351.929 354.485 347.712 354.485 342.592C354.485 337.412 354.304 333.256 354.063 333.256Z" fill="#AA1826"/>
<path d="M344.968 333.256C344.727 333.256 344.546 337.412 344.546 342.592C344.546 347.773 344.727 351.929 344.968 351.929C345.208 351.929 345.389 347.712 345.389 342.592C345.449 337.412 345.269 333.256 344.968 333.256Z" fill="#AA1826"/>
<path d="M342.739 332.955C342.739 333.196 364.966 333.377 392.433 333.377C419.9 333.377 442.127 333.196 442.127 332.955C442.127 332.714 419.96 332.533 392.433 332.533C364.966 332.533 342.739 332.714 342.739 332.955Z" fill="#AA1826"/>
<path d="M448.753 352.229H349.184V371.564H448.753V352.229Z" fill="#FF7A87"/>
<path d="M442.368 352.531C442.127 352.531 441.946 356.748 441.946 361.928C441.946 367.108 442.127 371.264 442.368 371.264C442.609 371.264 442.79 367.048 442.79 361.928C442.85 356.748 442.609 352.531 442.368 352.531Z" fill="#AA1826"/>
<path d="M433.152 352.531C432.911 352.531 432.73 356.748 432.73 361.928C432.73 367.108 432.911 371.264 433.152 371.264C433.393 371.264 433.574 367.048 433.574 361.928C433.574 356.748 433.393 352.531 433.152 352.531Z" fill="#AA1826"/>
<path d="M424.056 352.531C423.816 352.531 423.635 356.748 423.635 361.928C423.635 367.108 423.816 371.264 424.056 371.264C424.297 371.264 424.478 367.048 424.478 361.928C424.478 356.748 424.237 352.531 424.056 352.531Z" fill="#AA1826"/>
<path d="M414.961 352.531C414.72 352.531 414.539 356.748 414.539 361.928C414.539 367.108 414.72 371.264 414.961 371.264C415.202 371.264 415.383 367.048 415.383 361.928C415.383 356.748 415.202 352.531 414.961 352.531Z" fill="#AA1826"/>
<path d="M405.865 352.531C405.624 352.531 405.444 356.748 405.444 361.928C405.444 367.108 405.624 371.264 405.865 371.264C406.106 371.264 406.287 367.048 406.287 361.928C406.287 356.748 406.106 352.531 405.865 352.531Z" fill="#AA1826"/>
<path d="M396.77 352.531C396.529 352.531 396.348 356.748 396.348 361.928C396.348 367.108 396.529 371.264 396.77 371.264C397.011 371.264 397.192 367.048 397.192 361.928C397.252 356.748 397.071 352.531 396.77 352.531Z" fill="#AA1826"/>
<path d="M387.735 352.531C387.494 352.531 387.313 356.748 387.313 361.928C387.313 367.108 387.494 371.264 387.735 371.264C387.976 371.264 388.156 367.048 388.156 361.928C388.156 356.748 387.976 352.531 387.735 352.531Z" fill="#AA1826"/>
<path d="M378.639 352.531C378.398 352.531 378.217 356.748 378.217 361.928C378.217 367.108 378.398 371.264 378.639 371.264C378.88 371.264 379.061 367.048 379.061 361.928C379.061 356.748 378.88 352.531 378.639 352.531Z" fill="#AA1826"/>
<path d="M369.544 352.531C369.303 352.531 369.122 356.748 369.122 361.928C369.122 367.108 369.303 371.264 369.544 371.264C369.784 371.264 369.965 367.048 369.965 361.928C369.965 356.748 369.784 352.531 369.544 352.531Z" fill="#AA1826"/>
<path d="M360.508 352.531C360.267 352.531 360.087 356.748 360.087 361.928C360.087 367.108 360.267 371.264 360.508 371.264C360.749 371.264 360.93 367.048 360.93 361.928C360.93 356.748 360.749 352.531 360.508 352.531Z" fill="#AA1826"/>
<path d="M351.413 352.531C351.172 352.531 350.991 356.748 350.991 361.928C350.991 367.108 351.172 371.264 351.413 371.264C351.654 371.264 351.834 367.048 351.834 361.928C351.834 356.748 351.654 352.531 351.413 352.531Z" fill="#AA1826"/>
<path d="M349.184 352.289C349.184 352.53 371.411 352.71 398.878 352.71C426.345 352.71 448.572 352.53 448.572 352.289C448.572 352.048 426.345 351.867 398.878 351.867C371.411 351.867 349.184 352.048 349.184 352.289Z" fill="#AA1826"/>
<path d="M443.091 371.264H343.522V390.599H443.091V371.264Z" fill="#FF7A87"/>
<path d="M436.706 371.686C436.465 371.686 436.284 375.902 436.284 381.022C436.284 386.202 436.465 390.479 436.706 390.479C436.947 390.479 437.128 386.262 437.128 381.022C437.128 375.782 436.947 371.686 436.706 371.686Z" fill="#AA1826"/>
<path d="M427.49 371.686C427.249 371.686 427.068 375.902 427.068 381.022C427.068 386.202 427.249 390.479 427.49 390.479C427.731 390.479 427.912 386.262 427.912 381.022C427.912 375.782 427.731 371.686 427.49 371.686Z" fill="#AA1826"/>
<path d="M418.334 371.686C418.093 371.686 417.912 375.902 417.912 381.022C417.912 386.202 418.093 390.479 418.334 390.479C418.575 390.479 418.756 386.262 418.756 381.022C418.756 375.782 418.635 371.686 418.334 371.686Z" fill="#AA1826"/>
<path d="M409.178 371.686C408.937 371.686 408.757 375.902 408.757 381.022C408.757 386.202 408.937 390.479 409.178 390.479C409.419 390.479 409.6 386.262 409.6 381.022C409.66 375.782 409.48 371.686 409.178 371.686Z" fill="#AA1826"/>
<path d="M400.203 371.686C399.962 371.686 399.782 375.902 399.782 381.022C399.782 386.202 399.962 390.479 400.203 390.479C400.444 390.479 400.625 386.262 400.625 381.022C400.625 375.782 400.444 371.686 400.203 371.686Z" fill="#AA1826"/>
<path d="M391.108 371.686C390.867 371.686 390.686 375.902 390.686 381.022C390.686 386.202 390.867 390.479 391.108 390.479C391.349 390.479 391.529 386.262 391.529 381.022C391.529 375.782 391.349 371.686 391.108 371.686Z" fill="#AA1826"/>
<path d="M382.012 371.686C381.771 371.686 381.591 375.902 381.591 381.022C381.591 386.202 381.771 390.479 382.012 390.479C382.253 390.479 382.434 386.262 382.434 381.022C382.434 375.782 382.253 371.686 382.012 371.686Z" fill="#AA1826"/>
<path d="M372.917 371.686C372.676 371.686 372.495 375.902 372.495 381.022C372.495 386.202 372.676 390.479 372.917 390.479C373.158 390.479 373.338 386.262 373.338 381.022C373.399 375.782 373.158 371.686 372.917 371.686Z" fill="#AA1826"/>
<path d="M363.881 371.686C363.64 371.686 363.46 375.902 363.46 381.022C363.46 386.202 363.64 390.479 363.881 390.479C364.122 390.479 364.303 386.262 364.303 381.022C364.303 375.782 364.122 371.686 363.881 371.686Z" fill="#AA1826"/>
<path d="M354.786 371.686C354.545 371.686 354.364 375.902 354.364 381.022C354.364 386.202 354.545 390.479 354.786 390.479C355.027 390.479 355.208 386.262 355.208 381.022C355.208 375.782 355.027 371.686 354.786 371.686Z" fill="#AA1826"/>
<path d="M345.69 371.686C345.449 371.686 345.269 375.902 345.269 381.022C345.269 386.202 345.449 390.479 345.69 390.479C345.931 390.479 346.112 386.262 346.112 381.022C346.172 375.782 345.931 371.686 345.69 371.686Z" fill="#AA1826"/>
<path d="M343.462 371.385C343.462 371.625 365.688 371.806 393.156 371.806C420.623 371.806 442.85 371.625 442.85 371.385C442.85 371.144 420.623 370.963 393.156 370.963C365.688 370.963 343.462 371.144 343.462 371.385Z" fill="#AA1826"/>
<path d="M443.091 390.539C443.091 390.539 443.091 390.418 443.091 390.238C443.091 389.997 443.091 389.635 443.091 389.274C443.091 388.37 443.091 387.105 443.091 385.539C443.091 382.226 443.031 377.468 442.97 371.565V371.324H443.211H448.693L448.452 371.565C448.452 365.902 448.452 359.397 448.452 352.229L448.753 352.53H442.007V352.229C442.007 346.266 442.007 339.76 442.007 333.074V332.773H453.993L453.692 333.074C453.692 325.906 453.692 319.039 453.692 312.594L453.993 312.895H444.235V312.594C444.235 305.607 444.235 299.282 444.235 293.861V293.62H446.946L446.705 293.861C446.705 287.657 446.705 282.657 446.705 279.164C446.705 277.477 446.705 276.152 446.705 275.188C446.705 276.152 446.705 277.417 446.825 279.103C446.825 282.597 446.946 287.597 447.066 293.801V294.042H444.356L444.597 293.801C444.597 299.222 444.597 305.547 444.657 312.534L444.356 312.233H453.813H454.114V312.534C454.114 318.979 454.114 325.846 454.114 333.014V333.315H442.127L442.488 333.014C442.488 339.76 442.488 346.206 442.488 352.169L442.187 351.868H448.934V352.169C448.934 359.337 448.934 365.842 448.934 371.504V371.745H443.211L443.452 371.504C443.452 377.407 443.392 382.166 443.332 385.479C443.332 387.105 443.332 388.31 443.332 389.214C443.332 389.575 443.332 389.936 443.332 390.177C443.211 390.358 443.151 390.478 443.091 390.539Z" fill="#AA1826"/>
<path d="M470.136 187.366C473.51 185.62 478.81 188.089 481.461 196.221C484.111 204.413 490.255 225.917 491.098 229.531C491.942 233.145 495.255 240.494 488.388 243.686C481.641 246.819 478.63 239.651 476.16 234.049C465.257 209.352 461.101 192.065 470.136 187.366Z" fill="#E4EAF5"/>
<path d="M405.384 231.098C404.119 227.725 401.287 225.496 391.59 227.906C381.892 230.315 361.833 237.724 361.833 237.724L362.496 243.145C362.496 243.145 383.036 243.868 388.397 242.784C393.698 241.7 408.696 239.893 405.384 231.098Z" fill="#E4EAF5"/>
<path d="M491.4 235.434C490.135 232.061 487.304 229.832 477.606 232.242C467.908 234.651 447.849 242.06 447.849 242.06L448.512 247.481C448.512 247.481 469.052 248.204 474.413 247.12C479.714 246.036 494.773 244.229 491.4 235.434Z" fill="#E4EAF5"/>
<path d="M464.655 391.023C464.655 391.023 470.016 389.035 472.727 389.095C474.714 389.155 477.124 390.782 477.244 392.408C477.304 393.071 476.521 393.854 475.859 394.637C475.256 395.36 466.944 401.142 465.197 401.323C462.125 401.684 458.872 401.624 457.186 401.022C455.499 400.419 455.439 394.456 455.439 394.456L464.655 391.023Z" fill="#191919"/>
<path d="M429.959 225.676C426.225 214.291 416.647 194.715 422.249 191.281C429.598 186.824 450.68 184.113 450.68 184.113V184.475C450.68 184.475 468.691 186.824 476.039 191.221C481.641 194.594 475.136 214.592 471.401 225.977C470.498 228.687 470.618 240.975 470.98 251.878C471.04 254.589 473.269 266.937 472.907 271.997C472.787 273.502 455.559 282.959 450.741 283.2V282.839C445.922 282.598 428.695 273.201 428.574 271.635C428.213 266.515 430.381 254.167 430.441 251.517C430.743 240.674 430.863 228.386 429.959 225.676Z" fill="#E4EAF5"/>
<path d="M432.068 190.137C429.478 187.367 423.695 187.848 418.394 194.655C413.094 201.401 400.023 219.592 398.035 222.664C396.047 225.736 390.445 231.579 395.746 236.88C400.986 242.12 406.287 236.398 410.504 232.001C429.176 212.485 438.995 197.607 432.068 190.137Z" fill="#E4EAF5"/>
<path d="M441.826 180.742C442.308 178.573 443.512 167.791 443.512 167.791H450.62V168.152H457.728C457.728 168.152 458.933 178.874 459.415 181.103C459.896 183.271 465.739 186.524 465.739 186.524H450.56V186.163H435.381C435.501 186.163 441.344 182.91 441.826 180.742Z" fill="#E4EAF5"/>
<path d="M462.065 260.071C470.739 260.011 474.172 266.094 473.931 284.707C473.69 303.32 470.92 323.499 469.715 326.39C468.51 329.281 456.162 329.341 454.957 327.655C453.752 325.968 450.68 287.357 450.68 281.334C450.68 275.25 452.608 260.071 462.065 260.071Z" fill="#E4EAF5"/>
<path d="M462.607 341.207C466.703 341.087 469.956 337.713 469.835 333.617L469.715 328.196C469.594 324.1 466.221 320.848 462.125 320.968C458.029 321.089 454.776 324.462 454.897 328.558L455.017 333.979C455.078 338.015 458.511 341.328 462.607 341.207Z" fill="#E4EAF5"/>
<path d="M462.667 329.824C465.318 329.824 471.823 330.728 471.522 348.015C471.16 365.423 463.812 389.156 463.812 389.156H457.547C457.547 389.156 454.475 357.051 454.475 350.907C454.415 336.872 454.295 329.824 462.667 329.824Z" fill="#E4EAF5"/>
<path d="M439.115 260.192C430.502 259.228 426.466 264.95 424.779 283.443C423.032 301.935 423.695 322.294 424.599 325.306C425.502 328.318 437.73 329.703 439.115 328.137C440.501 326.571 447.548 288.563 448.211 282.539C448.813 276.516 448.512 261.216 439.115 260.192Z" fill="#E4EAF5"/>
<path d="M431.224 340.968L428.936 340.666C425.502 340.245 423.093 337.052 423.514 333.619L424.538 325.969C424.96 322.536 428.152 320.126 431.586 320.548L433.875 320.849C437.308 321.271 439.718 324.463 439.296 327.897L438.272 335.546C437.79 338.98 434.658 341.45 431.224 340.968Z" fill="#E4EAF5"/>
<path d="M431.164 329.523C428.514 329.221 421.948 329.402 420.503 346.69C419.057 363.977 423.876 388.373 423.876 388.373L430.14 389.035C430.14 389.035 436.585 357.412 437.248 351.328C438.694 337.414 439.477 330.426 431.164 329.523Z" fill="#E4EAF5"/>
<path d="M471.462 256.336C471.462 256.336 474.594 271.636 475.076 280.008C475.558 288.381 471.522 324.763 471.522 328.799C471.522 332.835 471.763 345.123 471.522 357.23C471.281 369.277 468.149 393.07 468.149 393.07L452.668 392.709C452.668 392.709 452.608 341.629 452.608 333.618C452.608 325.607 450.62 283.321 450.62 283.321V257.059L471.462 256.336Z" fill="#06213E"/>
<path d="M430.14 255.854C430.14 255.854 425.442 270.732 424.056 278.984C422.671 287.236 422.912 323.859 422.49 327.835C422.069 331.81 420.503 344.038 419.479 356.085C418.455 368.132 419.117 392.106 419.117 392.106L434.537 393.371C434.537 393.371 439.898 342.592 440.742 334.641C441.585 326.69 450.801 284.586 450.801 284.586L450.741 256.998L430.14 255.854Z" fill="#06213E"/>
<path d="M467.064 392.95C467.064 392.95 467.366 398.491 467.125 400.118C466.944 401.021 464.595 402.045 460.559 402.286C457.487 402.467 454.596 401.383 453.873 401.081C452.066 400.298 454.475 392.648 454.475 392.648L467.064 392.95Z" fill="#191919"/>
<path d="M424.177 389.696C424.177 389.696 418.816 387.648 416.105 387.769C414.118 387.829 411.708 389.395 411.588 391.082C411.528 391.744 412.311 392.527 412.973 393.31C413.576 394.033 421.888 399.816 423.635 400.057C426.707 400.418 429.96 400.418 431.646 399.816C433.333 399.213 433.393 393.25 433.393 393.25L424.177 389.696Z" fill="#191919"/>
<path d="M437.549 160.321C437.609 161.224 437.067 162.309 437.188 163.634C437.248 164.116 437.85 164.839 437.911 165.32C438.392 169.718 439.356 174.657 441.826 174.536C446.344 174.356 449.054 174.838 452.126 174.838C456.704 174.838 462.607 169.597 463.691 160.321C464.715 151.346 455.74 144.178 447.307 144.298C439.175 144.419 437.128 150.563 437.429 158.815C437.489 159.357 437.549 159.839 437.549 160.321Z" fill="#E4EAF5"/>
<path d="M451.704 141.648C444.958 140.444 434.598 146.407 438.513 150.081C439.718 151.165 439.959 161.526 439.959 161.526C439.959 161.526 441.404 160.803 441.886 161.345C442.428 161.948 442.85 165.562 443.452 167.128C444.055 168.754 448.03 174.898 449.175 174.898C450.319 174.898 457.547 175.199 458.451 174.175C459.354 173.151 462.487 167.429 463.45 164.357C464.474 161.285 468.932 144.72 451.704 141.648Z" fill="#06213E"/>
<path d="M440.862 157.55C440.922 157.188 442.79 156.044 443.693 158.513C444.175 159.718 442.549 165.139 442.248 165.139C441.525 165.139 440.742 159.417 440.862 157.55Z" fill="#CED9EC"/>
<path d="M420.382 191.342C421.346 189.776 426.466 188.451 431.224 186.945C435.381 185.62 438.754 183.873 438.754 183.873L462.366 183.933C462.366 183.933 466.522 185.74 470.859 186.282C476.16 186.945 477.545 189.294 478.389 190.981C479.232 192.667 479.533 208.088 472.546 228.327C471.582 231.098 474.052 250.493 471.642 256.276L450.861 258.203L430.02 256.336C428.092 249.71 430.02 230.796 429.056 228.026C428.152 225.255 418.816 193.993 420.382 191.342Z" fill="#AA1826"/>
<path d="M436.344 185.137H465.137L461.101 180.439L440.38 180.379L436.344 185.137Z" fill="#AA1826"/>
<path d="M421.707 190.258C421.707 190.258 418.214 190.679 413.515 199.173C410.202 205.076 397.493 222.544 397.493 222.544C397.493 222.544 400.143 227.724 405.444 230.736C410.142 233.386 411.648 232.844 411.648 232.844L428.695 214.412L421.707 190.258Z" fill="#AA1826"/>
<path d="M476.642 188.572C476.642 188.572 481.943 191.705 484.472 202.125C486.099 208.691 491.64 229.532 491.64 229.532C491.64 229.532 487.424 233.508 481.34 234.532C476.04 235.435 474.835 234.411 474.835 234.411L465.077 211.281L476.642 188.572Z" fill="#AA1826"/>
<path d="M365.568 237.422C365.568 237.422 363.942 235.374 363.64 235.133C363.339 234.892 360.328 233.145 359.785 232.241C359.183 231.338 359.123 230.615 358.942 230.494C358.761 230.374 356.653 230.555 357.316 232.302C357.918 234.048 359.424 235.434 359.364 236.036C359.304 236.638 355.328 236.94 354.485 236.699C353.641 236.458 348.582 233.928 348.28 233.807C348.04 233.687 347.256 233.566 347.016 233.807C346.835 234.048 347.136 235.494 347.377 235.735C347.618 235.976 346.895 236.277 346.955 236.578C347.016 236.879 347.377 238.024 347.377 238.024C347.377 238.024 347.437 239.409 347.799 239.831C348.1 240.313 349.726 242.18 349.967 242.301C350.208 242.421 354.726 244.891 355.93 244.951C357.135 245.011 364.002 244.891 366.11 242.903C367.074 241.939 365.568 237.422 365.568 237.422Z" fill="#E4EAF5"/>
<path d="M471.703 260.554L428.996 260.493C428.454 260.493 427.972 260.011 427.972 259.469L428.875 256.458C428.875 255.915 429.357 255.434 429.899 255.434H471.703C472.245 255.434 472.727 255.915 472.727 256.458V259.53C472.727 260.072 472.245 260.554 471.703 260.554Z" fill="#06213E"/>
<defs>
<linearGradient id="paint0_linear_8138_188305" x1="268.295" y1="-1023.39" x2="237.263" y2="2286.23" gradientUnits="userSpaceOnUse">
<stop stop-color="#F1F5FB"/>
<stop offset="1" stop-color="#ABC0E3"/>
</linearGradient>
<clipPath id="clip0_8138_188305">
<rect width="22.0752" height="24.6085" fill="white" transform="matrix(0.743343 0.66891 -0.664932 0.746904 328.282 131.037)"/>
</clipPath>
<clipPath id="clip1_8138_188305">
<rect width="44.4379" height="49.5374" fill="white" transform="matrix(0.971086 -0.238732 0.243913 0.969797 364.972 208.297)"/>
</clipPath>
</defs>
</svg>
