<svg width="430" height="431" viewBox="0 0 430 431" fill="none" xmlns="http://www.w3.org/2000/svg">
<g clip-path="url(#clip0_8138_184547)">
<path opacity="0.1" d="M138.378 79.8202C51.2627 94.4299 69.7893 137.887 46.9455 191.208C24.1018 244.501 -12.98 324.897 80.0246 371.443C173.029 417.988 265.548 398.432 290.05 318.979C314.523 239.526 444.295 211.222 425.225 150.867C406.127 90.513 343.2 45.5117 138.378 79.8488V79.8202Z" fill="url(#paint0_linear_8138_184547)"/>
<g opacity="0.2">
<path d="M65.3006 129.224C70.4468 129.624 75.6217 129.967 80.768 130.253C85.9143 130.539 91.0605 130.796 96.1782 130.968C101.296 131.139 106.499 131.311 111.674 131.397C116.849 131.482 121.967 131.54 127.113 131.54C132.259 131.54 137.463 131.482 142.609 131.397C147.755 131.311 152.959 131.139 158.105 130.939C163.251 130.739 168.398 130.482 173.515 130.196C178.662 129.91 183.779 129.567 188.926 129.167C194.072 128.766 199.218 128.337 204.364 127.823C209.511 127.337 214.657 126.794 219.775 126.193C224.892 125.593 229.981 124.964 235.099 124.278C240.188 123.591 245.277 122.848 250.366 122.076C255.455 121.304 260.545 120.475 265.605 119.589C270.666 118.702 275.783 117.788 280.872 116.787C285.961 115.786 290.965 114.786 295.997 113.728C301.057 112.641 306.089 111.526 311.121 110.354C316.153 109.182 321.271 107.924 326.331 106.666C331.449 105.379 336.567 104.036 341.656 102.692C346.773 101.348 351.92 99.9757 357.037 98.6319C362.155 97.2882 367.244 95.973 372.39 94.6865C374.878 94.0575 377.365 93.4571 379.881 92.8567C382.397 92.2563 380.053 92.3421 379.767 92.4278C374.62 93.6572 369.503 94.9438 364.414 96.2589C359.267 97.5741 354.15 98.9465 349.003 100.29C343.886 101.634 338.797 102.978 333.679 104.321C328.561 105.665 323.444 106.952 318.326 108.181C313.323 109.382 308.319 110.554 303.287 111.669C298.255 112.784 293.223 113.871 288.192 114.871C283.131 115.901 278.042 116.873 272.953 117.816C267.864 118.76 262.832 119.617 257.743 120.446C252.654 121.276 247.565 122.048 242.475 122.791C237.329 123.534 232.183 124.22 227.037 124.849C221.89 125.478 216.83 126.079 211.684 126.593C206.537 127.108 201.448 127.623 196.302 128.052C191.156 128.48 186.009 128.881 180.834 129.224C175.66 129.567 170.57 129.853 165.424 130.11C160.278 130.367 155.103 130.567 149.928 130.71C144.753 130.853 139.636 130.968 134.489 130.996C129.343 131.025 124.197 131.053 119.051 130.996C113.904 130.939 108.701 130.853 103.555 130.71C98.4083 130.567 93.262 130.367 88.1157 130.139C82.9694 129.91 77.8232 129.595 72.7055 129.252C67.5878 128.909 67.7022 128.909 65.2148 128.709C62.7274 128.509 64.9289 129.138 65.2148 129.167L65.3006 129.224Z" fill="white"/>
<path d="M47.4886 190.351C53.0352 187.978 58.6675 185.862 64.3856 183.976C70.1037 182.089 75.9075 180.43 81.74 178.972C87.5724 177.514 93.4906 176.256 99.4374 175.17C105.384 174.083 111.388 173.168 117.392 172.425C123.654 171.653 129.972 171.024 136.262 170.567C142.552 170.109 148.87 169.737 155.189 169.48C161.479 169.223 167.797 169.051 174.087 168.966C180.434 168.851 186.81 168.823 193.157 168.794C199.475 168.794 205.794 168.794 212.084 168.794C218.374 168.794 224.749 168.794 231.096 168.737C237.443 168.68 243.276 168.594 249.337 168.422C255.398 168.251 261.431 168.022 267.492 167.679C273.525 167.336 279.557 166.878 285.59 166.307C291.565 165.735 297.512 165.02 303.43 164.162C309.406 163.305 315.381 162.275 321.299 161.046C327.16 159.845 333.021 158.444 338.796 156.815C344.572 155.185 350.376 153.327 356.065 151.268C361.755 149.21 367.415 146.922 373.019 144.606C378.623 142.262 384.198 139.889 389.802 137.516C395.406 135.172 401.009 132.856 406.699 130.712C412.388 128.567 412.188 128.682 414.961 127.738C417.735 126.795 415.104 127.195 414.847 127.309C409.072 129.282 403.411 131.483 397.75 133.771C392.175 136.029 386.628 138.402 381.082 140.747C375.449 143.148 369.788 145.521 364.099 147.751C358.41 149.981 352.806 152.04 347.059 153.898C341.312 155.757 335.48 157.358 329.59 158.759C323.729 160.16 317.84 161.36 311.893 162.39C305.946 163.419 299.942 164.277 293.91 164.991C287.906 165.706 281.873 166.249 275.869 166.707C269.865 167.164 263.775 167.479 257.743 167.736C251.681 167.965 245.649 168.136 239.588 168.222C233.527 168.308 227.122 168.365 220.861 168.394C214.514 168.394 208.195 168.394 201.848 168.394C195.501 168.394 189.183 168.394 182.836 168.451C176.489 168.508 170.142 168.594 163.766 168.794C157.476 168.966 151.158 169.223 144.868 169.595C138.578 169.966 132.202 170.452 125.884 171.081C119.794 171.682 113.704 172.454 107.671 173.368C101.696 174.283 95.7493 175.37 89.831 176.656C83.9414 177.943 78.0804 179.401 72.3051 181.088C66.5298 182.775 60.8404 184.662 55.208 186.777C52.5205 187.807 49.8616 188.864 47.2313 189.979C44.601 191.095 47.2027 190.494 47.46 190.38L47.4886 190.351Z" fill="white"/>
<path d="M22.3005 263.085C27.5897 260.34 33.0219 257.882 38.5685 255.766C44.115 253.622 49.7759 251.792 55.494 250.191C61.3264 248.59 67.2161 247.246 73.1343 246.131C79.2812 244.987 85.4568 244.044 91.6609 243.3C97.865 242.557 104.012 242.014 110.187 241.556C116.42 241.099 122.624 240.785 128.857 240.527C135.004 240.27 141.151 240.013 147.298 239.927C153.359 239.841 159.477 240.07 165.424 241.413C170.342 242.529 175.059 244.444 179.176 247.332C183.064 250.076 186.352 253.736 188.297 258.11C190.384 262.913 190.67 268.288 189.669 273.378C188.668 278.61 186.438 283.584 183.608 288.073C180.834 292.476 177.404 296.507 173.715 300.195C170.027 303.884 165.939 307.171 161.679 310.173C157.362 313.204 152.844 315.92 148.213 318.436C143.524 320.981 138.721 323.268 133.832 325.441C128.485 327.842 123.053 330.101 117.65 332.36C112.275 334.618 106.9 336.905 101.61 339.364C96.3211 341.823 91.0891 344.482 86.0572 347.427C80.9967 350.4 76.1649 353.717 71.5332 357.348C69.3032 359.12 67.1017 360.95 64.9574 362.837C62.8132 364.724 65.0718 363.352 65.2719 363.152C69.7606 359.177 74.478 355.489 79.4242 352.144C84.3703 348.799 89.4594 345.883 94.7201 343.195C99.9521 340.536 105.299 338.106 110.702 335.79C116.134 333.446 121.595 331.187 127.027 328.872C132.459 326.556 137.348 324.383 142.38 321.896C147.155 319.551 151.844 317.007 156.361 314.205C160.821 311.431 165.138 308.372 169.141 304.97C173.115 301.596 176.832 297.88 180.091 293.791C183.379 289.646 186.209 285.128 188.154 280.154C190.041 275.293 191.098 270.033 190.527 264.8C189.955 259.568 187.925 255.337 184.694 251.62C181.463 247.903 177.404 245.216 173.001 243.329C167.826 241.099 162.251 240.07 156.647 239.669C150.557 239.212 144.41 239.469 138.32 239.669C132.031 239.87 125.712 240.127 119.422 240.47C113.189 240.813 106.928 241.242 100.695 241.814C94.4627 242.386 88.2872 243.129 82.1117 244.072C75.9362 245.016 69.7892 246.159 63.6994 247.56C57.8956 248.904 52.1489 250.505 46.4594 252.364C40.7985 254.222 35.2234 256.366 29.7912 258.825C27.1609 260.026 24.5592 261.284 22.0146 262.599C19.4701 263.914 21.986 263.114 22.2433 262.999L22.3005 263.085Z" fill="white"/>
<path d="M196.673 395.202C201.591 391.085 206.251 386.654 210.483 381.822C214.085 377.676 217.402 373.273 220.346 368.642C223.291 364.01 225.921 359.178 228.209 354.232C230.496 349.286 232.526 344.111 234.27 338.908C236.043 333.618 237.529 328.243 238.787 322.811C240.045 317.322 241.103 311.804 241.961 306.257C242.818 300.711 243.476 295.107 243.991 289.503C244.505 283.928 244.877 278.325 245.134 272.721C245.392 267.117 245.563 260.799 246.135 254.852C246.678 248.934 247.65 243.044 249.509 237.383C251.281 232.008 253.969 226.976 257.571 222.602C260.916 218.542 264.919 215.111 269.265 212.166C273.61 209.221 278.442 206.677 283.331 204.475C288.363 202.217 293.509 200.33 298.713 198.5C303.916 196.67 311.264 194.269 317.611 192.382C323.929 190.495 330.305 188.722 336.709 187.121C343.142 185.491 349.604 184.005 356.094 182.69C362.584 181.374 369.102 180.145 375.65 179.087C382.225 178.029 388.801 177.114 395.406 176.342C402.01 175.571 408.843 174.97 415.59 174.427C418.907 174.141 422.223 173.855 425.54 173.541C428.856 173.226 425.826 173.055 425.54 173.083C418.65 173.741 411.759 174.255 404.869 174.913C398.265 175.542 391.689 176.314 385.142 177.229C378.594 178.144 372.047 179.202 365.529 180.402C359.01 181.603 352.52 182.947 346.058 184.434C339.597 185.92 333.136 187.55 326.731 189.323C320.327 191.095 313.951 193.011 307.633 195.069C301.858 196.928 296.111 198.9 290.45 201.073C285.447 203.017 280.501 205.162 275.783 207.706C271.152 210.222 266.691 213.138 262.746 216.655C258.8 220.143 255.37 224.231 252.768 228.806C250.166 233.38 248.108 239.584 246.993 245.331C245.878 251.192 245.392 257.139 245.106 263.114C244.82 268.89 244.62 274.694 244.248 280.469C243.876 286.244 243.362 291.733 242.704 297.337C242.047 302.941 241.189 308.545 240.16 314.12C239.13 319.695 237.872 325.098 236.386 330.473C234.899 335.848 233.155 341.138 231.125 346.313C229.095 351.459 226.779 356.491 224.149 361.351C221.519 366.154 218.574 370.815 215.286 375.189C211.712 379.964 207.709 384.424 203.421 388.569C201.162 390.742 198.789 392.858 196.388 394.859C193.986 396.86 196.473 395.374 196.702 395.174L196.673 395.202Z" fill="white"/>
<path d="M256.971 370.07C258.486 361.922 259.973 353.745 261.717 345.626C263.175 338.735 264.804 331.874 266.691 325.069C268.578 318.265 270.723 311.517 273.239 304.884C275.726 298.337 278.556 291.904 281.844 285.7C285.104 279.553 288.82 273.663 293.023 268.117C297.255 262.57 301.972 257.395 307.147 252.735C312.293 248.075 317.868 243.872 323.729 240.127C329.59 236.353 335.737 233.036 342.056 230.12C348.517 227.118 355.179 224.545 361.955 222.344C369.646 219.828 377.508 217.769 385.427 216.054C387.372 215.625 389.316 215.225 391.26 214.853C393.204 214.481 391.431 214.367 391.146 214.424C383.14 215.997 375.221 217.884 367.415 220.199C360.325 222.286 353.349 224.774 346.544 227.661C340.112 230.406 333.822 233.551 327.789 237.125C321.814 240.67 316.067 244.673 310.721 249.104C305.346 253.564 300.371 258.482 295.882 263.857C291.394 269.232 287.448 274.979 283.96 281.04C280.472 287.072 277.441 293.391 274.782 299.852C272.095 306.371 269.779 313.061 267.778 319.837C265.748 326.642 264.004 333.532 262.431 340.451C260.687 348.256 259.172 356.118 257.685 363.981C257.314 365.982 256.942 367.983 256.57 369.985C256.199 371.986 256.942 370.385 256.999 370.099L256.971 370.07Z" fill="white"/>
</g>
<path d="M145.725 108.523H104.469C104.298 108.523 104.183 108.408 104.183 108.237V76.8445C104.183 76.673 104.298 76.5586 104.469 76.5586H145.725C145.897 76.5586 146.011 76.673 146.011 76.8445V108.237C146.011 108.408 145.897 108.523 145.725 108.523ZM104.755 107.951H145.439V77.1304H104.755V107.951Z" fill="#7ACFDF"/>
<path d="M147.012 112.098H103.183C103.011 112.098 102.897 111.984 102.897 111.812V108.21C102.897 108.038 103.011 107.924 103.183 107.924H147.012C147.184 107.924 147.298 108.038 147.298 108.21V111.812C147.298 111.984 147.184 112.098 147.012 112.098ZM103.44 111.526H146.697V108.524H103.44V111.526Z" fill="#7ACFDF"/>
<path d="M125.083 118.328C123.939 118.328 122.996 117.385 122.996 116.241C122.996 115.098 123.939 114.154 125.083 114.154C126.227 114.154 127.17 115.098 127.17 116.241C127.17 117.385 126.227 118.328 125.083 118.328ZM125.083 114.755C124.254 114.755 123.568 115.441 123.568 116.27C123.568 117.099 124.254 117.785 125.083 117.785C125.912 117.785 126.598 117.099 126.598 116.27C126.598 115.441 125.912 114.755 125.083 114.755Z" fill="#7ACFDF"/>
<path d="M125.083 114.669C124.912 114.669 124.797 114.526 124.797 114.383V111.924C124.797 111.753 124.94 111.61 125.083 111.638C125.255 111.638 125.369 111.781 125.369 111.924V114.383C125.369 114.555 125.226 114.669 125.083 114.669Z" fill="#7ACFDF"/>
<path d="M115.076 105.52H109.015C108.844 105.52 108.729 105.405 108.729 105.234V90.3953C108.729 90.2237 108.844 90.1094 109.015 90.1094H115.076C115.248 90.1094 115.362 90.2237 115.362 90.3953V105.234C115.362 105.405 115.248 105.52 115.076 105.52ZM109.301 104.948H114.791V90.6812H109.301V104.948Z" fill="#7ACFDF"/>
<path d="M126.999 105.52H120.938C120.766 105.52 120.652 105.406 120.652 105.234V84.4207C120.652 84.2491 120.766 84.1348 120.938 84.1348H126.999C127.17 84.1348 127.285 84.2491 127.285 84.4207V105.234C127.285 105.406 127.17 105.52 126.999 105.52ZM121.252 104.949H126.741V84.7066H121.252V104.949Z" fill="#7ACFDF"/>
<path d="M139.664 105.521H133.603C133.432 105.521 133.317 105.407 133.317 105.235V80.1043C133.317 79.9327 133.432 79.8184 133.603 79.8184H139.664C139.836 79.8184 139.95 79.9327 139.95 80.1043V105.235C139.95 105.407 139.836 105.521 139.664 105.521ZM133.889 104.949H139.378V80.4188H133.889V104.949Z" fill="#7ACFDF"/>
<path d="M378.652 349.912C371.99 349.912 366.558 344.48 366.558 337.818C366.558 331.157 371.961 325.725 378.623 325.725C378.68 325.725 378.766 325.753 378.823 325.81C378.88 325.868 378.909 325.925 378.909 326.011L378.766 337.704H390.459C390.545 337.704 390.602 337.733 390.66 337.79C390.717 337.847 390.745 337.904 390.745 337.99C390.66 344.566 385.227 349.912 378.652 349.912ZM378.337 326.296C372.133 326.468 367.13 331.586 367.13 337.818C367.13 344.051 372.305 349.34 378.652 349.34C384.999 349.34 389.916 344.394 390.174 338.276H378.509C378.423 338.276 378.366 338.247 378.309 338.19C378.251 338.133 378.223 338.076 378.223 337.99L378.366 326.296H378.337Z" fill="#7ACFDF"/>
<path d="M392.69 336.19H380.71C380.624 336.19 380.567 336.161 380.51 336.104C380.453 336.047 380.424 335.99 380.424 335.904L380.567 323.925C380.567 323.753 380.71 323.639 380.853 323.639C387.543 323.639 392.976 329.071 392.976 335.732C392.976 342.394 392.976 335.818 392.976 335.847V335.904C392.976 336.047 392.833 336.19 392.69 336.19ZM381.025 335.618H392.432C392.375 329.414 387.372 324.353 381.168 324.21L381.025 335.618Z" fill="#7ACFDF"/>
<path d="M416.162 87.1661H393.433C393.261 87.1661 393.147 87.0517 393.147 86.8802V57.575C393.147 57.4034 393.261 57.2891 393.433 57.2891H411.188C411.273 57.2891 411.33 57.2891 411.388 57.3748L416.362 61.9779C416.42 62.0351 416.448 62.1208 416.448 62.178V86.8802C416.448 87.0517 416.334 87.1661 416.162 87.1661ZM393.719 86.5942H415.876V62.2924L411.073 57.8609H393.719V86.5942Z" fill="#7ACFDF"/>
<path d="M416.162 62.4639L411.245 62.4067C411.102 62.4067 410.959 62.2924 410.959 62.1208L410.902 57.575C410.902 57.4034 411.016 57.2891 411.188 57.2891C411.359 57.2891 411.474 57.4034 411.474 57.575L411.531 61.8349L416.162 61.8921C416.334 61.8921 416.448 62.0351 416.448 62.178C416.448 62.321 416.305 62.4639 416.162 62.4639Z" fill="#7ACFDF"/>
<path d="M404.069 62.1206H395.434C395.263 62.1206 395.148 62.0063 395.148 61.8347C395.148 61.6632 395.263 61.5488 395.434 61.5488H404.069C404.24 61.5488 404.354 61.6632 404.354 61.8347C404.354 62.0063 404.24 62.1206 404.069 62.1206Z" fill="#7ACFDF"/>
<path d="M413.218 66.1226H395.406C395.234 66.1226 395.12 66.0082 395.12 65.8367C395.12 65.6651 395.234 65.5508 395.406 65.5508H413.218C413.389 65.5508 413.503 65.6651 413.503 65.8367C413.503 66.0082 413.389 66.1226 413.218 66.1226Z" fill="#7ACFDF"/>
<path d="M413.218 72.4429H395.406C395.234 72.4429 395.12 72.3285 395.12 72.157C395.12 71.9855 395.234 71.8711 395.406 71.8711H413.218C413.389 71.8711 413.503 71.9855 413.503 72.157C413.503 72.3285 413.389 72.4429 413.218 72.4429Z" fill="#7ACFDF"/>
<path d="M413.218 78.732H395.406C395.234 78.732 395.12 78.6176 395.12 78.4461C395.12 78.2745 395.234 78.1602 395.406 78.1602H413.218C413.389 78.1602 413.503 78.2745 413.503 78.4461C413.503 78.6176 413.389 78.732 413.218 78.732Z" fill="#7ACFDF"/>
<path d="M251.424 164.875H35.3663V355.03H251.424V164.875Z" fill="white"/>
<path d="M36.7387 139.801H250.08C250.824 139.801 251.453 140.401 251.453 141.173V164.875H35.3663V141.173C35.3663 140.43 35.9667 139.801 36.7387 139.801Z" fill="#BE202E"/>
<path d="M51.5771 152.353C51.5771 154.383 49.9188 156.013 47.9175 156.013C45.9162 156.013 44.2579 154.354 44.2579 152.353C44.2579 150.352 45.9162 148.693 47.9175 148.693C49.9188 148.693 51.5771 150.352 51.5771 152.353Z" fill="white"/>
<path d="M68.0166 152.353C68.0166 154.383 66.3583 156.013 64.3284 156.013C62.2985 156.013 60.6688 154.354 60.6688 152.353C60.6688 150.352 62.3271 148.693 64.3284 148.693C66.3297 148.693 68.0166 150.352 68.0166 152.353Z" fill="white"/>
<path d="M84.4275 152.353C84.4275 154.383 82.7692 156.013 80.7679 156.013C78.7666 156.013 77.0797 154.354 77.0797 152.353C77.0797 150.352 78.738 148.693 80.7679 148.693C82.7978 148.693 84.4275 150.352 84.4275 152.353Z" fill="white"/>
<path d="M231.411 181.143H54.6649V202.757H231.411V181.143Z" fill="#E8E9F5"/>
<path d="M116.477 222.57H54.6649V244.185H116.477V222.57Z" fill="#E8E9F5"/>
<path d="M231.411 263.055H54.6649V284.669H231.411V263.055Z" fill="#E8E9F5"/>
<path d="M116.477 304.453H54.6649V326.067H116.477V304.453Z" fill="#E8E9F5"/>
<path d="M378.023 65.1211H172.629V296.475H378.023V65.1211Z" fill="white"/>
<path d="M383.626 57.5742H166.625V65.1221H383.626V57.5742Z" fill="#BE202E"/>
<path d="M383.827 296.477H166.825V304.024H383.827V296.477Z" fill="#BE202E"/>
<path d="M277.67 354.314V304.023H272.953V354.314H277.67Z" fill="#382664"/>
<path d="M205.251 354.314L230.725 304.023H235.442L209.968 354.314H205.251Z" fill="#382664"/>
<path d="M345.401 354.314L319.898 304.023H315.181L340.684 354.314H345.401Z" fill="#382664"/>
<g opacity="0.6">
<path d="M296.426 133.281L328.075 111.352C316.496 94.6552 297.169 83.7051 275.297 83.7051V122.216C284.046 122.216 291.765 126.591 296.397 133.281H296.426Z" fill="#735AA6"/>
<path d="M339.511 147.892C339.511 134.312 335.28 121.732 328.104 111.354L296.454 133.282C299.342 137.428 301.029 142.46 301.029 147.892C301.029 156.955 296.34 164.903 289.249 169.478L310.092 201.842C327.789 190.406 339.54 170.536 339.54 147.892H339.511Z" fill="#E8E9F5"/>
<path d="M249.652 147.891C249.652 133.71 261.145 122.216 275.326 122.216V83.7051C239.874 83.7051 211.14 112.438 211.14 147.891C211.14 162.786 216.229 176.51 224.749 187.403L255.084 163.701C251.682 159.355 249.623 153.866 249.623 147.891H249.652Z" fill="#56B6E7"/>
<path d="M275.326 212.074C288.134 212.074 300.057 208.3 310.063 201.839L289.221 169.474C285.218 172.048 280.444 173.563 275.326 173.563C267.12 173.563 259.801 169.703 255.112 163.699L224.778 187.401C236.529 202.411 254.798 212.074 275.354 212.074H275.326Z" fill="#C398C6"/>
</g>
<path d="M321.442 232.577V225.029H186.267V232.577H321.442Z" fill="#E8E9F5"/>
<path d="M310.063 249.874V242.326H186.267V249.874H310.063Z" fill="#E8E9F5"/>
<path d="M319.269 267.171V259.623H186.295V267.171H319.269Z" fill="#E8E9F5"/>
<path d="M324.93 284.44V276.893H186.295V284.44H324.93Z" fill="#E8E9F5"/>
<path d="M233.67 232.606V225.059H186.295V232.606H233.67Z" fill="#C398C6"/>
<path d="M227.465 249.903V242.355H186.295V249.903H227.465Z" fill="#E8E5ED"/>
<path d="M216.43 267.171V259.623H186.267V267.171H216.43Z" fill="#735AA6"/>
<path d="M254.769 284.44V276.893H186.267V284.44H254.769Z" fill="#56B6E7"/>
</g>
<defs>
<linearGradient id="paint0_linear_8138_184547" x1="233.412" y1="-823.923" x2="208.596" y2="1822.81" gradientUnits="userSpaceOnUse">
<stop stop-color="#F1F5FB"/>
<stop offset="1" stop-color="#ABC0E3"/>
</linearGradient>
<clipPath id="clip0_8138_184547">
<rect width="430" height="430" fill="white" transform="translate(0 0.0332031)"/>
</clipPath>
</defs>
</svg>
