<svg width="530" height="520" viewBox="0 0 530 520" fill="none" xmlns="http://www.w3.org/2000/svg">
<g clip-path="url(#clip0_8138_193147)">
<path opacity="0.1" d="M154.236 72.2315C40.981 91.2014 65.0667 147.628 35.3685 216.863C5.67025 286.06 -42.5382 390.45 78.3732 450.886C199.285 511.322 319.564 485.93 351.418 382.765C383.235 279.601 551.946 242.849 527.154 164.482C502.325 86.1155 420.516 27.6839 154.236 72.2687V72.2315Z" fill="url(#paint0_linear_8138_193147)"/>
<g opacity="0.2">
<path d="M59.2306 136.417C65.9211 136.936 72.6487 137.382 79.3392 137.753C86.0296 138.124 92.7201 138.458 99.3734 138.681C106.027 138.904 112.791 139.127 119.519 139.238C126.247 139.349 132.9 139.424 139.59 139.424C146.318 139.424 153.046 139.349 159.736 139.238C166.427 139.127 173.191 138.904 179.882 138.644C186.572 138.384 193.263 138.05 199.916 137.679C206.569 137.308 213.26 136.862 219.95 136.342C226.641 135.823 233.331 135.266 240.022 134.598C246.712 133.966 253.403 133.261 260.056 132.482C266.709 131.702 273.325 130.885 279.979 129.994C286.595 129.103 293.211 128.138 299.827 127.136C306.443 126.134 313.059 125.057 319.638 123.906C326.217 122.755 332.87 121.567 339.487 120.268C346.103 118.969 352.607 117.669 359.149 116.296C365.691 114.922 372.27 113.437 378.812 111.915C385.428 110.393 392.007 108.76 398.586 107.127C405.239 105.456 411.892 103.711 418.508 101.966C425.162 100.222 431.852 98.4397 438.505 96.695C445.159 94.9502 451.775 93.2425 458.465 91.572C465.156 89.9015 464.933 89.9757 468.203 89.1961C471.474 88.4166 468.427 88.5279 468.055 88.6393C461.364 90.2356 454.711 91.9061 448.095 93.6138C441.404 95.3214 434.751 97.1033 428.061 98.8481C421.37 100.593 414.791 102.338 408.138 104.082C401.485 105.79 394.831 107.498 388.178 109.094C381.674 110.653 375.169 112.175 368.627 113.623C362.085 115.071 355.544 116.482 349.002 117.781C342.423 119.117 335.807 120.379 329.191 121.605C322.574 122.83 316.033 123.943 309.417 125.02C302.8 126.096 296.184 127.099 289.568 128.064C282.878 129.029 276.187 129.92 269.497 130.737C262.844 131.553 256.227 132.333 249.537 133.001C242.884 133.707 236.23 134.338 229.54 134.895C222.85 135.451 216.159 135.971 209.431 136.417C202.704 136.862 196.088 137.233 189.397 137.567C182.707 137.902 175.979 138.161 169.252 138.347C162.561 138.533 155.871 138.681 149.18 138.718C142.49 138.792 135.799 138.792 129.109 138.718C122.418 138.644 115.654 138.533 108.963 138.347C102.273 138.161 95.5821 137.901 88.8917 137.605C82.2012 137.27 75.5107 136.899 68.8575 136.454C65.6237 136.231 62.3529 136.008 59.1191 135.748C55.8854 135.489 58.7474 136.305 59.1191 136.342L59.2306 136.417Z" fill="white"/>
<path d="M36.0743 215.749C43.2851 212.668 50.6075 209.921 58.0413 207.471C65.4752 205.021 73.0205 202.868 80.603 200.974C88.1855 199.081 95.8796 197.448 103.611 196.037C111.342 194.626 119.147 193.438 126.953 192.473C134.759 191.508 143.307 190.654 151.485 190.06C159.662 189.429 167.876 188.984 176.091 188.649C184.305 188.315 192.482 188.093 200.66 187.981C208.911 187.833 217.2 187.796 225.451 187.758C233.703 187.721 241.88 187.758 250.057 187.758C258.235 187.758 266.523 187.758 274.775 187.684C283.027 187.61 290.609 187.499 298.489 187.276C306.369 187.053 314.212 186.756 322.091 186.311C329.934 185.865 337.777 185.271 345.62 184.529C353.388 183.786 361.119 182.858 368.813 181.745C376.581 180.631 384.35 179.294 392.044 177.698C399.664 176.139 407.283 174.32 414.791 172.204C422.374 170.088 429.845 167.675 437.242 165.002C444.638 162.329 451.998 159.359 459.283 156.352C466.568 153.308 473.816 150.227 481.101 147.146C488.386 144.065 495.672 141.095 503.068 138.311C506.637 136.974 510.205 135.675 513.81 134.45C517.416 133.225 513.996 133.745 513.661 133.893C506.153 136.454 498.794 139.313 491.434 142.283C484.075 145.253 476.975 148.297 469.765 151.341C462.442 154.459 455.083 157.54 447.686 160.436C440.364 163.294 433.004 166.004 425.533 168.417C418.062 170.83 410.48 172.909 402.823 174.728C395.166 176.547 387.546 178.106 379.815 179.443C372.047 180.779 364.278 181.893 356.436 182.821C348.593 183.749 340.788 184.455 332.982 185.048C325.176 185.642 317.259 186.051 309.417 186.385C301.537 186.682 293.694 186.905 285.814 187.016C277.934 187.127 269.608 187.202 261.468 187.239C253.217 187.239 245.002 187.239 236.751 187.239C228.499 187.239 220.285 187.239 212.033 187.313C203.782 187.387 195.53 187.499 187.241 187.758C178.953 188.018 170.85 188.315 162.673 188.798C154.495 189.281 146.207 189.912 137.992 190.728C129.778 191.545 122.158 192.51 114.315 193.698C106.547 194.886 98.8159 196.297 91.1219 197.967C83.4651 199.638 75.8454 201.531 68.3372 203.721C60.829 205.912 53.4323 208.362 46.11 211.109C38.7877 213.856 39.1594 213.819 35.7398 215.267C32.3202 216.714 35.7026 215.935 36.0372 215.786L36.0743 215.749Z" fill="white"/>
<path d="M3.32805 310.188C10.2044 306.625 17.2665 303.432 24.4773 300.685C31.6882 297.901 39.0477 295.525 46.4815 293.446C54.064 291.367 61.7209 289.622 69.4149 288.175C77.4063 286.69 85.4348 285.465 93.5005 284.499C101.566 283.534 109.558 282.829 117.586 282.235C125.689 281.641 133.755 281.233 141.858 280.898C149.961 280.564 157.84 280.23 165.832 280.119C173.712 280.007 181.666 280.304 189.397 282.049C195.79 283.497 201.923 285.984 207.276 289.734C212.331 293.298 216.605 298.049 219.132 303.729C221.66 309.409 222.218 316.945 220.917 323.553C219.616 330.161 216.716 336.806 213.037 342.634C209.431 348.351 204.971 353.585 200.176 358.374C195.344 363.126 190.066 367.432 184.528 371.33C178.99 375.228 173.043 378.792 167.021 382.059C160.926 385.363 154.681 388.332 148.325 391.154C141.969 393.975 134.312 397.205 127.287 400.137C120.262 403.07 113.312 406.04 106.435 409.233C99.5591 412.425 92.7572 415.878 86.2154 419.701C79.6364 423.562 73.3549 427.868 67.3334 432.583C64.4342 434.885 61.5722 437.26 58.7845 439.711C55.9968 442.161 58.9332 440.379 59.1934 440.119C65.0289 434.959 71.1619 430.17 77.5921 425.827C83.9481 421.52 90.6385 417.697 97.4777 414.207C104.28 410.755 111.23 407.599 118.255 404.592C125.317 401.548 132.417 398.615 139.479 395.609C146.206 392.75 152.897 389.78 159.439 386.55C165.646 383.506 171.742 380.202 177.614 376.564C183.487 372.926 189.025 368.991 194.229 364.574C199.396 360.193 204.228 355.367 208.465 350.059C212.702 344.75 216.419 338.81 218.947 332.351C221.4 326.04 222.775 319.209 222.032 312.416C221.325 306.031 218.649 300.128 214.449 295.302C210.249 290.476 204.971 286.987 199.247 284.536C192.519 281.641 185.271 280.304 177.986 279.785C170.069 279.191 162.078 279.525 154.161 279.785C145.983 280.045 137.769 280.379 129.592 280.824C121.415 281.27 113.349 281.827 105.246 282.569C97.1803 283.311 89.1146 284.277 81.086 285.502C73.0575 286.727 65.0661 288.212 57.1491 290.031C49.6037 291.775 42.1327 293.854 34.736 296.267C27.3765 298.68 20.1285 301.465 13.0664 304.657C9.64682 306.216 6.26442 307.85 2.95636 309.557C-0.3517 311.265 2.91919 310.226 3.25371 310.077L3.32805 310.188Z" fill="white"/>
<path d="M230.024 481.735C236.417 476.389 242.475 470.635 247.976 464.361C253.477 458.087 256.971 453.261 260.8 447.248C264.628 441.234 268.048 434.96 271.021 428.538C274.032 422.078 276.634 415.396 278.901 408.64C281.169 401.883 283.138 394.793 284.774 387.739C286.409 380.686 287.785 373.447 288.9 366.245C290.015 359.043 290.87 351.767 291.539 344.491C292.208 337.252 292.691 329.976 293.026 322.7C293.36 315.424 293.583 307.22 294.326 299.498C295.033 291.814 296.296 284.166 298.712 276.816C301.017 269.837 304.511 263.303 309.194 257.623C313.543 252.352 318.747 247.897 324.396 244.073C330.046 240.25 336.328 236.946 342.684 234.087C349.04 231.229 355.916 228.704 362.681 226.329C370.821 223.507 378.998 220.834 387.249 218.384C395.464 215.934 403.753 213.633 412.078 211.554C420.442 209.438 428.842 207.507 437.279 205.8C445.717 204.055 454.191 202.496 462.703 201.122C471.215 199.749 479.801 198.561 488.387 197.558C496.973 196.556 505.856 195.776 514.628 195.071C518.94 194.7 523.252 194.329 527.563 193.92C531.875 193.512 527.935 193.289 527.563 193.326C518.605 194.18 509.648 194.848 500.69 195.702C491.732 196.556 483.555 197.521 475.043 198.709C466.494 199.897 458.02 201.271 449.545 202.83C441.07 204.389 432.633 206.134 424.233 208.064C415.795 209.994 407.432 212.111 399.106 214.412C390.781 216.714 382.492 219.201 374.277 221.874C366.769 224.287 359.298 226.848 351.939 229.67C345.434 232.194 339.004 234.978 332.871 238.282C326.849 241.549 321.051 245.336 315.922 249.902C310.792 254.431 306.332 259.739 302.95 265.679C299.196 272.324 296.891 279.674 295.442 287.136C293.992 294.598 293.36 302.468 292.988 310.227C292.617 317.725 292.356 325.261 291.873 332.76C291.39 340.073 290.721 347.387 289.866 354.663C289.011 361.939 287.896 369.215 286.558 376.454C285.22 383.693 283.585 390.709 281.652 397.688C279.719 404.63 277.452 411.535 274.813 418.255C272.174 424.937 269.163 431.47 265.743 437.781C262.324 444.092 258.495 450.069 254.221 455.749C249.575 461.948 244.371 467.739 238.796 473.122C233.22 478.505 232.774 478.691 229.652 481.289C226.53 483.888 229.764 481.958 230.061 481.698L230.024 481.735Z" fill="white"/>
<path d="M308.412 449.141C310.382 438.561 312.315 427.944 314.583 417.401C316.478 408.454 318.597 399.545 321.05 390.709C323.503 381.874 326.291 373.113 329.562 364.501C332.795 355.999 336.475 347.647 340.75 339.591C344.987 331.61 349.819 323.962 355.283 316.76C360.747 309.559 366.917 302.839 373.644 296.788C380.335 290.737 387.583 285.28 395.203 280.417C402.822 275.554 410.814 271.211 419.028 267.424C427.428 263.526 436.089 260.185 444.898 257.327C454.896 254.06 465.118 251.387 475.414 249.159C477.941 248.603 480.469 248.083 482.996 247.6C485.524 247.118 483.219 246.969 482.848 247.043C472.44 249.085 462.144 251.535 451.997 254.542C442.779 257.252 433.71 260.482 424.864 264.231C416.5 267.795 408.323 271.879 400.481 276.519C392.712 281.122 385.241 286.32 378.291 292.074C371.34 297.828 364.835 304.25 359 311.229C353.201 318.208 348.035 325.67 343.5 333.54C338.965 341.41 335.026 349.577 331.569 357.967C328.075 366.431 325.064 375.118 322.462 383.916C319.861 392.714 317.556 401.698 315.512 410.682C313.244 420.816 311.274 431.025 309.342 441.234C308.858 443.832 308.375 446.431 307.892 449.03C307.818 449.401 308.375 449.549 308.45 449.178L308.412 449.141Z" fill="white"/>
</g>
<path fill-rule="evenodd" clip-rule="evenodd" d="M75.3627 71.75C72.2033 70.4507 70.7165 66.8869 71.9803 63.7314C73.2812 60.576 76.8494 59.0911 80.0088 60.3533C83.1682 61.6526 84.655 65.2164 83.3912 68.3718C82.0903 71.5273 78.5221 73.0122 75.3627 71.75Z" fill="#91BBE4" stroke="#367BAA" stroke-width="0.2" stroke-linecap="round" stroke-linejoin="round"/>
<path fill-rule="evenodd" clip-rule="evenodd" d="M94.5045 49.1794C94.0213 49.662 93.2408 49.6991 92.7204 49.2536C92.2 48.8082 92.0885 48.0657 92.4231 47.5089C93.0921 46.4694 93.6496 45.5785 94.0585 44.9474C94.393 44.4277 94.3187 43.7594 93.9098 43.314C93.3895 42.7942 92.6461 42.0147 91.7912 41.1608C91.308 40.6782 91.2708 39.8987 91.7168 39.3789C92.1629 38.8592 92.9063 38.7478 93.4638 39.0819C94.5045 39.7502 95.3966 40.307 96.0285 40.7154C96.5489 41.0495 97.2179 40.9752 97.6639 40.5669C98.1843 40.0471 98.9648 39.3047 99.8197 38.4509C100.303 37.9683 101.083 37.9311 101.604 38.3766C102.124 38.8221 102.236 39.5645 101.901 40.1214C101.232 41.1608 100.675 42.0518 100.266 42.6829C99.9312 43.2026 100.006 43.8708 100.414 44.3163C100.935 44.836 101.678 45.6156 102.533 46.4694C103.016 46.952 103.053 47.7316 102.607 48.2513C102.161 48.771 101.418 48.8824 100.86 48.5483C99.8197 47.8801 98.9277 47.3232 98.2958 46.9149C97.7754 46.5808 97.1064 46.655 96.6603 47.0634C96.14 47.5831 95.3594 48.3256 94.5045 49.1794Z" fill="#91BBE4" stroke="#367BAA" stroke-width="0.2" stroke-linecap="round" stroke-linejoin="round"/>
<path fill-rule="evenodd" clip-rule="evenodd" d="M446.423 470.97C442.706 469.3 441.071 464.919 442.744 461.207C444.416 457.495 448.802 455.861 452.519 457.532C456.236 459.202 457.871 463.583 456.199 467.295C454.526 471.007 450.14 472.641 446.423 470.97Z" fill="#91BBE4"/>
<path fill-rule="evenodd" clip-rule="evenodd" d="M470.286 444.762C469.691 445.319 468.762 445.319 468.167 444.762C467.573 444.242 467.461 443.314 467.907 442.646C468.762 441.421 469.468 440.382 469.989 439.676C470.398 439.082 470.36 438.266 469.84 437.709C469.245 437.041 468.39 436.112 467.387 435.036C466.829 434.442 466.829 433.514 467.387 432.92C467.907 432.326 468.836 432.215 469.506 432.66C470.732 433.514 471.773 434.219 472.479 434.739C473.074 435.147 473.892 435.11 474.449 434.59C475.118 433.996 476.047 433.143 477.125 432.14C477.72 431.583 478.649 431.583 479.244 432.14C479.839 432.66 479.95 433.588 479.504 434.256C478.649 435.481 477.943 436.521 477.423 437.226C477.014 437.82 477.051 438.637 477.571 439.194C478.166 439.862 479.021 440.79 480.024 441.867C480.582 442.461 480.582 443.389 480.024 443.983C479.504 444.577 478.575 444.688 477.906 444.242C476.679 443.389 475.638 442.683 474.932 442.163C474.338 441.755 473.52 441.792 472.962 442.312C472.293 442.906 471.364 443.76 470.286 444.762Z" fill="#91BBE4"/>
<path fill-rule="evenodd" clip-rule="evenodd" d="M439.362 38.2644C436.016 40.6774 435.273 45.392 437.689 48.7331C440.105 52.0741 444.826 52.8166 448.171 50.4036C451.516 47.9906 452.259 43.276 449.843 39.9349C447.427 36.5939 442.707 35.8514 439.362 38.2644Z" fill="#91BBE4" stroke="#367BAA" stroke-width="0.2" stroke-linecap="round" stroke-linejoin="round"/>
<path fill-rule="evenodd" clip-rule="evenodd" d="M468.575 59.4989C467.869 59.0905 466.94 59.2762 466.457 59.9073C465.974 60.5755 466.048 61.5035 466.643 62.0604C467.721 63.0998 468.65 63.9908 469.319 64.6219C469.876 65.1416 469.988 65.9583 469.616 66.6265C469.17 67.4061 468.501 68.5198 467.758 69.8191C467.349 70.5244 467.535 71.4525 468.167 71.9351C468.836 72.4177 469.765 72.3435 470.322 71.7495C471.363 70.6729 472.255 69.7448 472.887 69.0766C473.407 68.5198 474.225 68.4084 474.894 68.7796C475.675 69.2251 476.79 69.8933 478.091 70.6358C478.797 71.0441 479.726 70.8585 480.209 70.2274C480.693 69.5592 480.618 68.6312 480.024 68.0743C478.946 67.0349 478.016 66.1439 477.347 65.5128C476.79 64.9931 476.678 64.1764 477.05 63.5082C477.496 62.7286 478.165 61.6149 478.909 60.3156C479.317 59.6103 479.132 58.6822 478.5 58.1996C477.831 57.717 476.901 57.7912 476.344 58.3852C475.303 59.4618 474.411 60.3899 473.779 61.0581C473.259 61.6149 472.441 61.7263 471.772 61.355C470.991 60.9096 469.876 60.2414 468.575 59.4989Z" fill="#91BBE4" stroke="#367BAA" stroke-width="0.2" stroke-linecap="round" stroke-linejoin="round"/>
<path fill-rule="evenodd" clip-rule="evenodd" d="M30.5367 432.992C26.9313 435.331 25.9278 440.157 28.3066 443.758C30.6482 447.359 35.4802 448.361 39.0857 445.986C42.6911 443.647 43.6946 438.821 41.3158 435.22C38.9741 431.619 34.1422 430.617 30.5367 432.992Z" fill="#91BBE4" stroke="#367BAA" stroke-width="0.2" stroke-linecap="round" stroke-linejoin="round"/>
<path fill-rule="evenodd" clip-rule="evenodd" d="M59.715 456.38C59.0087 455.898 58.0423 456.046 57.4848 456.714C56.9273 457.382 56.9644 458.348 57.5591 458.942C58.637 460.055 59.5663 461.02 60.1982 461.726C60.7557 462.283 60.83 463.136 60.384 463.805C59.8636 464.584 59.1202 465.698 58.3025 466.997C57.8193 467.703 57.968 468.668 58.637 469.225C59.3061 469.781 60.2725 469.744 60.8672 469.15C61.9823 468.074 62.9487 467.146 63.6549 466.515C64.2124 465.958 65.0673 465.884 65.7364 466.329C66.5169 466.849 67.632 467.591 68.9329 468.408C69.6391 468.891 70.6055 468.742 71.1631 468.074C71.7206 467.406 71.6834 466.44 71.0887 465.846C70.0108 464.733 69.0816 463.768 68.4497 463.062C67.8922 462.505 67.8178 461.652 68.2639 460.983C68.7842 460.204 69.5276 459.09 70.3453 457.791C70.8285 457.085 70.6799 456.12 70.0108 455.563C69.3418 455.007 68.3754 455.044 67.7807 455.638C66.6656 456.714 65.6992 457.642 64.993 458.273C64.4354 458.83 63.5805 458.904 62.9115 458.459C62.1309 457.939 61.0159 457.197 59.715 456.38Z" fill="#91BBE4" stroke="#367BAA" stroke-width="0.2" stroke-linecap="round" stroke-linejoin="round"/>
<path d="M329.972 69.4468C322.166 65.1406 313.506 62.1336 304.325 60.7972C300.645 60.2403 296.891 59.9805 293.063 59.9805H292.431C282.284 59.9805 272.545 61.948 263.699 65.5489C263.662 65.5489 263.588 65.586 263.551 65.6232C261.841 66.3285 260.131 67.1081 258.458 67.9248C258.087 68.1104 257.678 68.296 257.306 68.5188C257.12 68.593 256.972 68.7044 256.786 68.8157C256.526 68.9642 256.265 69.1127 255.968 69.2241C255.596 69.4097 255.225 69.6324 254.853 69.8552C254.853 69.8552 254.816 69.8552 254.779 69.8552C254.37 70.0779 253.998 70.3007 253.589 70.5605C252.92 70.9318 252.288 71.3401 251.619 71.7485C251.359 71.8969 251.099 72.0826 250.839 72.2682C250.616 72.4167 250.393 72.5652 250.17 72.6765C249.947 72.825 249.724 72.9735 249.501 73.122C249.24 73.3076 248.98 73.4932 248.72 73.6789C248.497 73.8645 248.237 74.013 248.014 74.1986C246.899 75.0153 245.784 75.832 244.706 76.7229C244.52 76.8714 244.297 77.057 244.074 77.2427C243.516 77.6881 242.959 78.1707 242.401 78.6162C242.067 78.9132 241.695 79.2102 241.361 79.5443C241.026 79.8413 240.691 80.1382 240.394 80.4352C240.171 80.658 239.911 80.8807 239.688 81.1034C239.502 81.2891 239.316 81.4747 239.13 81.6603C238.945 81.8459 238.759 82.0315 238.536 82.2171C238.387 82.3656 238.275 82.477 238.127 82.6255C237.049 83.7392 235.971 84.8529 234.967 86.0037C234.893 86.0779 234.856 86.1522 234.782 86.1893C234.559 86.4492 234.336 86.709 234.113 86.9689L234.038 87.0431C233.889 87.1916 233.741 87.3772 233.629 87.5257C233.555 87.6 233.481 87.7113 233.406 87.8227C233.183 88.0826 232.96 88.3424 232.774 88.6023C232.626 88.7879 232.514 88.9364 232.366 89.122C232.328 89.1591 232.291 89.2334 232.254 89.2705C232.068 89.4932 231.92 89.6789 231.771 89.9016C231.659 90.013 231.585 90.1615 231.473 90.2728C231.399 90.3842 231.288 90.5327 231.213 90.6441C231.027 90.9039 230.842 91.1267 230.656 91.3865C230.173 92.0547 229.689 92.7229 229.206 93.4283L229.057 93.651C228.872 93.9109 228.723 94.1707 228.537 94.4306C228.388 94.6533 228.24 94.8761 228.091 95.0988C227.571 95.9155 227.05 96.7322 226.567 97.5489C226.418 97.8088 226.27 98.0687 226.121 98.3285C225.972 98.5884 225.824 98.8482 225.675 99.1452C225.526 99.4422 225.341 99.7021 225.192 99.9991C225.118 100.11 225.08 100.222 225.006 100.333C225.006 100.333 225.006 100.333 225.006 100.37C224.783 100.779 224.597 101.187 224.374 101.558C224.263 101.781 224.151 102.004 224.04 102.226C223.891 102.486 223.779 102.783 223.631 103.043C223.631 103.117 223.556 103.155 223.556 103.229L223.371 103.637C223.148 104.12 222.925 104.602 222.702 105.085C222.59 105.345 222.479 105.568 222.367 105.827C222.256 106.087 222.144 106.347 222.033 106.607C221.921 106.867 221.809 107.127 221.698 107.349C220.917 109.243 220.211 111.173 219.579 113.141C219.542 113.289 219.505 113.438 219.431 113.586C219.356 113.772 219.319 113.994 219.245 114.18C219.059 114.737 218.91 115.294 218.762 115.851C218.724 115.999 218.687 116.148 218.65 116.259C218.501 116.853 218.353 117.41 218.204 118.004C218.055 118.561 217.944 119.117 217.795 119.711C217.795 119.711 217.795 119.711 217.795 119.748C217.721 120.008 217.684 120.268 217.609 120.565C217.572 120.788 217.535 121.011 217.461 121.233C217.461 121.308 217.461 121.345 217.461 121.419C217.424 121.642 217.386 121.864 217.312 122.087C217.312 122.124 217.312 122.199 217.312 122.236C217.238 122.57 217.201 122.867 217.126 123.201C217.052 123.609 216.977 124.055 216.903 124.463C216.829 124.834 216.792 125.206 216.754 125.577C216.754 125.8 216.68 126.022 216.68 126.245C216.606 126.95 216.494 127.619 216.42 128.324C216.42 128.621 216.346 128.955 216.346 129.252C216.271 129.92 216.234 130.588 216.197 131.257C216.197 131.628 216.16 131.962 216.123 132.333C216.123 132.704 216.123 133.113 216.085 133.484C216.085 133.892 216.085 134.301 216.085 134.709C216.085 134.82 216.085 134.932 216.085 135.08C216.085 135.489 216.085 135.86 216.085 136.268V189.168H369.594V136.268C369.594 107.461 353.649 82.4028 330.083 69.3726L329.972 69.4468ZM339.673 171.498H245.858V139.164C245.858 113.4 266.747 92.5002 292.542 92.5002H292.914C318.71 92.5002 339.636 113.363 339.636 139.164V171.498H339.673Z" fill="#595F65" stroke="#BCBCBC" stroke-width="5" stroke-linejoin="round"/>
<path d="M216.011 186.235C215.713 186.235 215.453 185.976 215.453 185.679V136.342C215.453 122.718 219.059 109.354 225.898 97.6229C232.514 86.2633 242.029 76.7227 253.366 70.0405C253.626 69.892 253.96 69.9663 254.146 70.2261C254.295 70.486 254.221 70.8201 253.96 71.0057C230.916 84.5927 216.605 109.614 216.605 136.342V185.679C216.605 185.976 216.345 186.235 216.048 186.235H216.011Z" fill="#414141"/>
<path d="M253.626 71.0797C253.441 71.0797 253.255 70.9684 253.143 70.8199C252.994 70.56 253.069 70.2259 253.329 70.0403C256.563 68.1099 259.982 66.4394 263.476 65.0287C263.774 64.9173 264.071 65.0287 264.22 65.3257C264.331 65.6227 264.22 65.9196 263.922 66.0681C260.465 67.4788 257.12 69.1122 253.924 71.0055C253.849 71.0426 253.738 71.0797 253.626 71.0797Z" fill="#414141"/>
<path d="M369.52 154.718V174.801L368.517 175.952L245.821 174.133L215.974 173.688V146.885C223.073 147.108 233.518 147.553 245.858 148.147V171.497H339.673V153.047C351.233 153.678 361.566 154.272 369.52 154.718Z" fill="#414141"/>
<path d="M375.095 161.363H210.399C195.269 161.363 183.005 173.613 183.005 188.723V313.939C183.005 329.049 195.269 341.298 210.399 341.298H375.095C390.224 341.298 402.489 329.049 402.489 313.939V188.723C402.489 173.613 390.224 161.363 375.095 161.363Z" fill="#67A1D7" stroke="#5A84AA" stroke-width="5" stroke-linecap="round" stroke-linejoin="round"/>
<path d="M375.133 341.855H210.399C194.974 341.855 182.448 329.345 182.448 313.939V188.686C182.448 173.28 194.974 160.77 210.399 160.77H375.133C390.558 160.77 403.084 173.28 403.084 188.686V313.939C403.084 329.345 390.558 341.855 375.133 341.855ZM210.399 161.92C195.606 161.92 183.563 173.948 183.563 188.723V313.976C183.563 328.751 195.606 340.779 210.399 340.779H375.133C389.926 340.779 401.969 328.751 401.969 313.976V188.723C401.969 173.948 389.926 161.92 375.133 161.92H210.399Z" fill="#414141"/>
<path d="M292.765 303.284C287.524 303.284 283.25 299.015 283.25 293.78V264.008H302.281V293.78C302.281 299.015 298.006 303.284 292.765 303.284Z" fill="#414141"/>
<path d="M306.035 228.52H279.496C275.267 228.52 271.839 231.943 271.839 236.167V258.886C271.839 263.11 275.267 266.533 279.496 266.533H306.035C310.263 266.533 313.691 263.11 313.691 258.886V236.167C313.691 231.943 310.263 228.52 306.035 228.52Z" fill="#414141"/>
<path d="M202.11 155.275H64.7326C39.0316 155.275 18.1968 176.084 18.1968 201.753V201.79C18.1968 227.46 39.0316 248.268 64.7326 248.268H202.11C227.811 248.268 248.646 227.46 248.646 201.79V201.753C248.646 176.084 227.811 155.275 202.11 155.275Z" fill="white"/>
<path d="M202.11 248.826H64.7696C38.7884 248.826 17.6763 227.703 17.6763 201.754C17.6763 175.805 38.8255 154.682 64.7696 154.682H202.11C228.091 154.682 249.24 175.805 249.24 201.716C249.24 227.628 228.091 248.788 202.11 248.788V248.826ZM64.7696 155.832C39.4202 155.832 18.7913 176.436 18.7913 201.754C18.7913 227.071 39.4202 247.712 64.7696 247.712H202.11C227.459 247.712 248.125 227.109 248.125 201.754C248.125 176.399 227.496 155.795 202.11 155.795H64.7696V155.832Z" fill="#414141"/>
<path d="M81.7559 223.879C79.8974 223.879 78.4106 222.395 78.4106 220.538V183.044C78.4106 181.188 79.8974 179.703 81.7559 179.703C83.6143 179.703 85.1011 181.188 85.1011 183.044V220.538C85.1011 222.395 83.6143 223.879 81.7559 223.879Z" fill="#C63D4D"/>
<path d="M100.527 205.131H62.9859C61.1274 205.131 59.6406 203.646 59.6406 201.79C59.6406 199.934 61.1274 198.449 62.9859 198.449H100.527C102.385 198.449 103.872 199.934 103.872 201.79C103.872 203.646 102.385 205.131 100.527 205.131Z" fill="#C63D4D"/>
<path d="M95.0247 218.385C94.1698 218.385 93.3149 218.051 92.6459 217.42L66.107 190.914C64.8061 189.614 64.8061 187.498 66.107 186.199C67.408 184.9 69.5266 184.9 70.8275 186.199L97.3663 212.705C98.6673 214.004 98.6673 216.12 97.3663 217.42C96.6973 218.088 95.8424 218.385 94.9875 218.385H95.0247Z" fill="#C63D4D"/>
<path d="M68.4859 218.385C67.631 218.385 66.7761 218.051 66.107 217.42C64.8061 216.12 64.8061 214.004 66.107 212.705L92.6459 186.199C93.9468 184.9 96.0654 184.9 97.3663 186.199C98.6673 187.498 98.6673 189.614 97.3663 190.914L70.8275 217.42C70.1585 218.088 69.3036 218.385 68.4487 218.385H68.4859Z" fill="#C63D4D"/>
<path d="M133.422 223.879C131.563 223.879 130.077 222.395 130.077 220.538V183.044C130.077 181.188 131.563 179.703 133.422 179.703C135.28 179.703 136.767 181.188 136.767 183.044V220.538C136.767 222.395 135.28 223.879 133.422 223.879Z" fill="#C63D4D"/>
<path d="M152.191 205.131H114.65C112.791 205.131 111.305 203.646 111.305 201.79C111.305 199.934 112.791 198.449 114.65 198.449H152.191C154.049 198.449 155.536 199.934 155.536 201.79C155.536 203.646 154.049 205.131 152.191 205.131Z" fill="#C63D4D"/>
<path d="M146.691 218.385C145.836 218.385 144.981 218.051 144.312 217.42L117.773 190.914C116.472 189.614 116.472 187.498 117.773 186.199C119.074 184.9 121.193 184.9 122.494 186.199L149.032 212.705C150.333 214.004 150.333 216.12 149.032 217.42C148.363 218.088 147.508 218.385 146.654 218.385H146.691Z" fill="#C63D4D"/>
<path d="M120.152 218.385C119.297 218.385 118.442 218.051 117.773 217.42C116.472 216.12 116.472 214.004 117.773 212.705L144.312 186.199C145.613 184.9 147.731 184.9 149.032 186.199C150.333 187.498 150.333 189.614 149.032 190.914L122.494 217.42C121.824 218.088 120.97 218.385 120.115 218.385H120.152Z" fill="#C63D4D"/>
<path d="M185.086 223.879C183.227 223.879 181.741 222.395 181.741 220.538V183.044C181.741 181.188 183.227 179.703 185.086 179.703C186.944 179.703 188.431 181.188 188.431 183.044V220.538C188.431 222.395 186.944 223.879 185.086 223.879Z" fill="#C63D4D"/>
<path d="M203.857 205.131H166.316C164.457 205.131 162.971 203.646 162.971 201.79C162.971 199.934 164.457 198.449 166.316 198.449H203.857C205.715 198.449 207.202 199.934 207.202 201.79C207.202 203.646 205.715 205.131 203.857 205.131Z" fill="#C63D4D"/>
<path d="M198.356 218.385C197.501 218.385 196.646 218.051 195.977 217.42L169.438 190.914C168.137 189.614 168.137 187.498 169.438 186.199C170.739 184.9 172.858 184.9 174.159 186.199L200.697 212.705C201.998 214.004 201.998 216.12 200.697 217.42C200.028 218.088 199.173 218.385 198.319 218.385H198.356Z" fill="#C63D4D"/>
<path d="M171.817 218.385C170.962 218.385 170.107 218.051 169.438 217.42C168.137 216.12 168.137 214.004 169.438 212.705L195.977 186.199C197.278 184.9 199.396 184.9 200.697 186.199C201.998 187.498 201.998 189.614 200.697 190.914L174.159 217.42C173.49 218.088 172.635 218.385 171.78 218.385H171.817Z" fill="#C63D4D"/>
<path d="M208.614 357.336L149.813 356.483C144.2 356.408 140.929 350.135 144.052 345.494L174.121 300.612C176.983 296.343 183.265 296.455 185.978 300.798L214.71 346.534C217.684 351.285 214.227 357.411 208.614 357.336Z" fill="#C63D4D"/>
<path d="M344.133 383.99V458.236C344.133 459.239 343.316 460.055 342.312 460.055H141.115C140.112 460.055 139.294 459.239 139.294 458.236V383.99C139.294 383.025 140.112 382.208 141.115 382.208H173.527C174.53 375.86 177.541 364.686 176.835 362.533C180.143 369.104 183.488 375.638 186.796 382.208H342.275C343.279 382.208 344.096 383.025 344.096 383.99H344.133Z" fill="white"/>
<path d="M177.207 344.789C177.058 348.055 181.853 348.352 182.039 345.011C182.187 341.707 177.392 341.522 177.207 344.789Z" fill="#010101"/>
<path d="M179.139 312.232L178.953 337.253C178.879 338.664 180.663 338.998 180.923 337.327L183.005 312.455C183.302 309.819 179.065 309.708 179.139 312.232Z" fill="#010101"/>
<path d="M168.992 415.062H161.372C161 415.062 160.703 415.322 160.703 415.694V429.021C160.703 429.875 161.967 429.949 161.967 429.021V422.747H168.583C169.401 422.747 169.364 421.633 168.583 421.633H161.967V416.139H168.992C169.81 416.139 169.735 415.062 168.992 415.062Z" fill="#010101"/>
<path d="M175.646 419.369C172.746 419.369 171.037 421.559 171.037 424.566C171.037 427.573 172.746 429.764 175.646 429.764C178.545 429.764 180.255 427.87 180.255 424.566C180.255 421.262 178.359 419.369 175.646 419.369ZM175.646 428.65C173.787 428.65 172.375 427.499 172.375 424.566C172.375 422.265 173.378 420.483 175.683 420.483C177.987 420.483 178.991 421.708 178.991 424.566C178.991 427.462 177.578 428.65 175.683 428.65H175.646Z" fill="#010101"/>
<path d="M187.577 419.406H187.279C185.756 419.555 184.715 420.186 184.157 421.374V420.037C184.157 419.221 182.931 419.183 182.931 420.037V429.058C182.931 429.912 184.194 429.949 184.194 429.058V423.713C184.194 422.896 184.417 422.19 184.901 421.597C185.793 420.446 187.354 420.557 187.688 420.483C188.469 420.409 188.395 419.666 188.134 419.48C188.023 419.406 187.837 419.369 187.577 419.369V419.406Z" fill="#010101"/>
<path d="M197.054 420.037V421.411C195.53 418.07 189.063 418.589 189.063 424.306C189.063 430.06 195.605 430.58 197.054 427.165C196.869 428.167 198.021 432.325 194.006 432.325C189.992 432.325 192.037 432.139 190.736 431.434C190.513 431.323 190.252 431.174 190.104 431.174C189.844 431.174 189.621 431.36 189.621 431.694C189.621 432.028 189.881 432.288 190.364 432.585C191.479 433.253 192.668 433.476 194.006 433.476C196.869 433.476 198.281 431.916 198.281 429.058V420.074C198.281 419.22 197.017 419.183 197.017 420.074L197.054 420.037ZM193.709 428.167C191.479 428.167 190.364 426.571 190.364 424.306C190.364 422.079 191.442 420.445 193.709 420.445C195.976 420.445 197.017 422.116 197.017 424.306C197.017 426.534 195.902 428.167 193.709 428.167Z" fill="#010101"/>
<path d="M209.84 424.047C209.84 421.003 208.131 419.369 205.64 419.369C202.741 419.369 200.957 421.559 200.957 424.566C200.957 429.541 205.64 430.877 209.023 428.836C209.506 428.539 209.729 428.242 209.729 427.945C209.729 427.648 209.543 427.425 209.283 427.425C208.837 427.425 207.871 428.613 205.863 428.613C203.485 428.613 202.332 427.128 202.258 424.752H209.134C209.617 424.752 209.84 424.566 209.84 424.047ZM202.295 423.824C202.481 421.819 203.559 420.371 205.64 420.371C207.685 420.371 208.614 421.782 208.688 423.824H202.295Z" fill="#010101"/>
<path d="M214.19 426.162V420.63H216.68C217.424 420.63 217.424 419.628 216.68 419.628H214.19V417.066C214.19 416.25 212.926 416.176 212.926 417.066V419.628H211.365C210.659 419.628 210.622 420.63 211.365 420.63H212.926V426.124C212.926 428.315 213.781 429.54 216.011 429.688C216.271 429.688 217.386 429.948 217.386 429.206C217.386 427.944 214.19 429.763 214.19 426.162Z" fill="#010101"/>
<path d="M230.135 415.063H225.303C224.931 415.063 224.634 415.322 224.634 415.694V429.021C224.634 429.912 225.898 429.912 225.898 429.021V423.452H230.135C232.997 423.452 234.892 422.042 234.892 419.22C234.892 416.399 232.997 415.025 230.135 415.025V415.063ZM230.023 422.376H225.86V416.139H230.023C232.402 416.139 233.592 417.179 233.592 419.22C233.592 421.299 232.402 422.339 230.023 422.339V422.376Z" fill="#010101"/>
<path d="M241.286 419.332C240.134 419.332 238.908 419.629 237.941 420.186C237.458 420.483 237.235 420.78 237.235 421.077C237.235 421.522 237.607 421.819 238.164 421.448C239.205 420.743 240.283 420.446 241.398 420.409C243.07 420.409 243.702 421.337 243.702 423.044V423.824C241.993 423.861 238.796 423.75 237.607 424.975C236.157 426.534 237.346 429.726 240.543 429.726C241.955 429.726 243.108 429.021 243.702 427.796V429.021C243.702 429.875 244.929 429.912 244.929 429.021V423.156C244.929 420.706 243.814 419.332 241.324 419.332H241.286ZM242.81 427.722C242.253 428.316 241.509 428.613 240.617 428.613C238.461 428.613 237.718 426.385 238.759 425.457C239.651 424.641 242.476 424.752 243.665 424.715C243.665 424.715 243.888 426.534 242.81 427.685V427.722Z" fill="#010101"/>
<path d="M249.241 422.228C249.241 421.003 250.319 420.446 251.582 420.446C253.924 420.446 254.444 422.191 255.039 421.486C255.411 421.04 254.965 420.52 254.444 420.149C252.326 418.59 247.94 419.221 247.94 422.302C247.94 425.384 254.036 424.344 254.036 426.943C254.036 429.541 252.772 428.65 251.471 428.65C250.17 428.65 249.761 428.465 248.646 427.759C248.349 427.537 248.126 427.462 248.014 427.462C247.605 427.462 247.419 427.982 247.717 428.39C248.163 428.947 249.65 429.727 251.434 429.727C253.218 429.727 255.299 428.873 255.299 426.906C255.299 423.193 249.204 424.827 249.204 422.191L249.241 422.228Z" fill="#010101"/>
<path d="M263.736 424.715C261.655 423.713 259.09 424.047 259.09 422.228C259.09 420.409 260.205 420.446 261.432 420.446C263.365 420.446 264.034 421.634 264.554 421.634C265.074 421.634 265 421.374 265 421.114C265 420.855 264.777 420.483 264.294 420.149C262.175 418.59 257.789 419.221 257.789 422.302C257.789 425.384 261.172 424.901 262.807 425.569C263.476 425.866 263.885 426.2 263.885 426.943C263.885 427.685 263.662 427.908 263.216 428.205C262.77 428.502 262.138 428.65 261.32 428.65C260.503 428.65 259.611 428.465 258.496 427.759C258.198 427.537 257.975 427.462 257.864 427.462C257.455 427.462 257.232 427.982 257.566 428.39C258.644 429.764 262.25 430.321 264.108 428.947C264.814 428.428 265.186 427.759 265.186 426.906C265.186 425.829 264.777 425.198 263.774 424.715H263.736Z" fill="#010101"/>
<path d="M281.503 419.777L278.455 427.907L275.37 419.814C275.333 419.666 275.221 419.554 275.11 419.48C274.701 419.22 274.255 419.406 274.106 419.814L270.984 427.907L267.973 419.74C267.676 418.96 266.561 419.443 266.784 420.185L270.24 429.132C270.463 429.763 271.43 429.763 271.653 429.132L274.701 421.262L277.749 429.132C277.972 429.763 278.938 429.763 279.161 429.132L282.618 420.148C282.618 420.037 282.655 419.963 282.655 419.925C282.655 419.331 281.763 419.072 281.503 419.74V419.777Z" fill="#010101"/>
<path d="M288.826 419.332C286.112 419.332 284.217 421.262 284.217 424.529C284.217 427.796 285.927 429.726 288.826 429.726C291.725 429.726 293.435 427.907 293.435 424.529C293.435 421.151 291.465 419.332 288.826 419.332ZM288.826 428.613C286.967 428.613 285.555 427.462 285.555 424.529C285.555 422.228 286.558 420.446 288.863 420.446C291.167 420.446 292.171 421.671 292.171 424.529C292.171 427.425 290.721 428.613 288.863 428.613H288.826Z" fill="#010101"/>
<path d="M300.46 419.405C298.936 419.517 297.895 420.148 297.337 421.336C297.3 420.148 297.449 419.814 297.189 419.554C296.854 419.22 296.111 419.331 296.111 420.036V429.057C296.111 429.911 297.375 429.911 297.375 429.057V423.712C297.375 422.115 298.304 420.742 300.274 420.556C300.646 420.482 301.5 420.63 301.5 419.925C301.5 419.22 300.683 419.48 300.497 419.442L300.46 419.405Z" fill="#010101"/>
<path d="M310.161 415.582V421.41C309.529 420 308.265 419.369 306.704 419.369C304.176 419.369 302.244 421.225 302.244 424.529C302.244 427.833 303.879 429.763 306.704 429.763C309.529 429.763 309.529 429.095 310.161 427.684C310.198 428.946 310.049 429.243 310.309 429.503C310.644 429.837 311.387 429.726 311.387 429.058V415.619C311.387 414.765 310.124 414.728 310.124 415.619L310.161 415.582ZM306.853 428.612C304.548 428.612 303.545 426.83 303.545 424.492C303.545 422.19 304.548 420.445 306.853 420.445C309.157 420.445 310.124 422.227 310.124 424.529C310.124 426.867 309.157 428.612 306.853 428.612Z" fill="#010101"/>
<path d="M321.46 428.686C321.46 430.022 323.393 430.022 323.393 428.686C323.393 427.349 321.46 427.349 321.46 428.686Z" fill="#010101"/>
<path d="M325.623 415.768C324.917 415.174 323.988 414.914 322.798 414.914C321.609 414.914 319.527 415.619 318.449 416.659C317.892 417.179 318.263 418.255 319.081 417.587C320.308 416.622 321.349 415.991 322.798 415.991C324.248 415.991 324.211 416.176 324.694 416.547C325.623 417.29 325.549 418.663 325.028 419.592C323.913 421.67 322.055 422.747 322.055 425.643C322.055 428.538 322.761 426.274 322.835 425.717C323.058 423.192 325.028 422.042 326.255 419.926C326.924 418.738 326.961 416.844 325.66 415.768H325.623Z" fill="#010101"/>
</g>
<defs>
<linearGradient id="paint0_linear_8138_193147" x1="277.786" y1="-1101.19" x2="245.603" y2="2335.44" gradientUnits="userSpaceOnUse">
<stop stop-color="#F1F5FB"/>
<stop offset="1" stop-color="#ABC0E3"/>
</linearGradient>
<clipPath id="clip0_8138_193147">
<rect width="529" height="520" fill="white" transform="translate(0.5)"/>
</clipPath>
</defs>
</svg>
