<svg width="388" height="410" viewBox="0 0 388 410" fill="none" xmlns="http://www.w3.org/2000/svg">
<g clip-path="url(#clip0_8138_191501)">
<path opacity="0.1" d="M120.421 88.4847C45.1874 101.063 61.1872 138.48 41.4591 184.389C21.7311 230.273 -10.293 299.493 70.0265 339.568C150.346 379.643 230.246 362.805 251.406 294.397C272.541 225.99 384.613 201.62 368.145 149.655C351.651 97.6911 297.306 58.9455 120.421 88.5093V88.4847Z" fill="url(#paint0_linear_8138_191501)"/>
<g opacity="0.2">
<path d="M57.3102 131.045C61.7545 131.39 66.2236 131.686 70.668 131.932C75.1123 132.178 79.5567 132.399 83.9764 132.547C88.396 132.695 92.8898 132.842 97.3588 132.916C101.828 132.99 106.248 133.039 110.692 133.039C115.161 133.039 119.63 132.99 124.074 132.916C128.519 132.842 133.013 132.695 137.457 132.522C141.901 132.35 146.346 132.129 150.765 131.882C155.185 131.636 159.629 131.341 164.074 130.996C168.518 130.652 172.962 130.282 177.407 129.839C181.851 129.421 186.296 128.953 190.715 128.436C195.135 127.919 199.53 127.378 203.95 126.787C208.344 126.196 212.739 125.556 217.134 124.891C221.529 124.227 225.924 123.513 230.295 122.75C234.665 121.987 239.085 121.199 243.48 120.338C247.875 119.476 252.196 118.614 256.541 117.704C260.887 116.793 265.257 115.808 269.603 114.799C273.998 113.79 278.368 112.707 282.738 111.623C287.158 110.516 291.578 109.359 295.973 108.202C300.392 107.045 304.837 105.863 309.256 104.706C313.676 103.549 318.071 102.417 322.515 101.309C326.96 100.202 326.811 100.251 328.984 99.734C331.157 99.217 329.132 99.2909 328.886 99.3647C324.441 100.423 320.021 101.531 315.626 102.663C311.182 103.796 306.762 104.977 302.318 106.134C297.874 107.291 293.503 108.448 289.084 109.605C284.664 110.737 280.244 111.87 275.825 112.928C271.504 113.962 267.183 114.971 262.837 115.931C258.492 116.891 254.146 117.827 249.801 118.688C245.43 119.574 241.035 120.411 236.64 121.224C232.245 122.036 227.9 122.775 223.505 123.488C219.11 124.202 214.715 124.867 210.32 125.507C205.875 126.147 201.431 126.738 196.987 127.279C192.567 127.821 188.172 128.338 183.728 128.781C179.308 129.249 174.888 129.667 170.444 130.036C166 130.405 161.555 130.75 157.086 131.045C152.617 131.341 148.222 131.587 143.778 131.809C139.333 132.03 134.864 132.202 130.395 132.326C125.951 132.449 121.507 132.547 117.062 132.572C112.618 132.621 108.173 132.621 103.729 132.572C99.2847 132.522 94.791 132.449 90.3466 132.326C85.9023 132.202 81.4579 132.03 77.0135 131.833C72.5692 131.612 68.1248 131.365 63.7051 131.07C61.557 130.922 59.3842 130.775 57.2361 130.602C55.088 130.43 56.9892 130.972 57.2361 130.996L57.3102 131.045Z" fill="white"/>
<path d="M41.9283 183.65C46.7183 181.607 51.5824 179.785 56.5206 178.161C61.4588 176.536 66.471 175.108 71.508 173.853C76.5449 172.598 81.6559 171.514 86.7917 170.579C91.9274 169.644 97.1124 168.856 102.298 168.216C107.483 167.576 113.162 167.01 118.594 166.616C124.026 166.197 129.482 165.902 134.939 165.68C140.396 165.459 145.828 165.311 151.26 165.237C156.741 165.139 162.247 165.114 167.728 165.09C173.21 165.065 178.642 165.09 184.074 165.09C189.506 165.09 195.012 165.09 200.493 165.04C205.975 164.991 211.012 164.917 216.246 164.77C221.481 164.622 226.69 164.425 231.925 164.13C237.135 163.834 242.344 163.44 247.554 162.948C252.715 162.456 257.85 161.84 262.961 161.102C268.122 160.363 273.282 159.477 278.393 158.419C283.455 157.385 288.516 156.179 293.504 154.776C298.541 153.372 303.504 151.772 308.417 150C313.331 148.228 318.22 146.258 323.059 144.265C327.898 142.246 332.713 140.203 337.553 138.16C342.392 136.117 347.231 134.147 352.145 132.301C354.515 131.415 356.886 130.553 359.281 129.741C361.676 128.929 359.404 129.273 359.182 129.372C354.194 131.07 349.305 132.966 344.417 134.935C339.528 136.904 334.812 138.923 330.022 140.941C325.158 143.009 320.269 145.052 315.355 146.972C310.491 148.868 305.603 150.665 300.64 152.265C295.677 153.865 290.64 155.243 285.553 156.449C280.467 157.656 275.406 158.689 270.27 159.576C265.109 160.462 259.949 161.2 254.739 161.816C249.529 162.431 244.344 162.899 239.159 163.293C233.974 163.687 228.715 163.957 223.505 164.179C218.271 164.376 213.061 164.523 207.826 164.597C202.592 164.671 197.061 164.72 191.654 164.745C186.173 164.745 180.716 164.745 175.234 164.745C169.753 164.745 164.296 164.745 158.815 164.794C153.334 164.843 147.852 164.917 142.346 165.09C136.84 165.262 131.458 165.459 126.026 165.779C120.594 166.099 115.087 166.517 109.631 167.059C104.174 167.6 99.1124 168.24 93.9026 169.028C88.7422 169.816 83.6065 170.751 78.4955 171.859C73.4092 172.967 68.3475 174.222 63.36 175.675C58.3724 177.127 53.4589 178.751 48.5948 180.573C43.7307 182.395 43.9776 182.37 41.7061 183.33C39.4345 184.29 41.6814 183.773 41.9036 183.675L41.9283 183.65Z" fill="white"/>
<path d="M20.1754 246.273C24.7432 243.91 29.4345 241.793 34.2245 239.971C39.0146 238.125 43.9034 236.55 48.8416 235.171C53.8785 233.793 58.9648 232.636 64.0759 231.676C69.3844 230.691 74.7176 229.879 80.0756 229.239C85.4335 228.599 90.742 228.131 96.0753 227.737C101.458 227.343 106.816 227.073 112.198 226.851C117.581 226.629 122.816 226.408 128.124 226.334C133.359 226.26 138.642 226.457 143.778 227.614C148.025 228.574 152.099 230.223 155.654 232.71C159.012 235.073 161.852 238.224 163.531 241.99C165.21 245.756 165.58 250.753 164.716 255.135C163.852 259.516 161.926 263.923 159.482 267.787C157.087 271.578 154.124 275.049 150.938 278.225C147.729 281.375 144.223 284.231 140.544 286.815C136.865 289.4 132.914 291.763 128.914 293.93C124.865 296.12 120.717 298.09 116.495 299.96C112.273 301.831 107.186 303.973 102.52 305.917C97.853 307.862 93.2358 309.831 88.668 311.948C84.1002 314.065 79.5817 316.355 75.2361 318.89C70.8659 321.45 66.6931 324.306 62.6932 327.432C60.7673 328.958 58.8661 330.533 57.0143 332.158C55.1624 333.783 57.113 332.601 57.2859 332.429C61.1623 329.007 65.2363 325.832 69.5079 322.952C73.73 320.096 78.1744 317.561 82.7175 315.247C87.2359 312.958 91.8531 310.865 96.5197 308.871C101.211 306.853 105.927 304.908 110.618 302.914C115.087 301.019 119.532 299.05 123.877 296.908C128.001 294.89 132.05 292.699 135.951 290.286C139.852 287.874 143.531 285.265 146.988 282.335C150.42 279.431 153.63 276.231 156.445 272.711C159.259 269.19 161.728 265.252 163.407 260.969C165.037 256.784 165.951 252.255 165.457 247.75C164.988 243.516 163.21 239.602 160.42 236.402C157.63 233.202 154.124 230.888 150.321 229.263C145.852 227.343 141.037 226.457 136.198 226.112C130.939 225.719 125.63 225.94 120.371 226.112C114.939 226.285 109.482 226.506 104.05 226.802C98.6184 227.097 93.2605 227.466 87.8779 227.959C82.52 228.451 77.162 229.091 71.8288 229.903C66.4956 230.716 61.187 231.7 55.9279 232.906C50.9156 234.063 45.9527 235.442 41.0392 237.042C36.1504 238.642 31.3357 240.488 26.6444 242.605C24.3729 243.639 22.126 244.722 19.9285 245.854C17.731 246.987 19.9038 246.298 20.126 246.199L20.1754 246.273Z" fill="white"/>
<path d="M170.765 360.024C175.012 356.479 179.037 352.663 182.691 348.503C186.345 344.343 188.666 341.143 191.209 337.155C193.753 333.167 196.024 329.007 197.999 324.749C199.999 320.466 201.728 316.035 203.234 311.555C204.74 307.075 206.049 302.373 207.135 297.696C208.221 293.019 209.135 288.219 209.876 283.443C210.616 278.668 211.184 273.843 211.629 269.018C212.073 264.218 212.394 259.393 212.616 254.569C212.839 249.744 212.987 244.304 213.481 239.184C213.95 234.088 214.789 229.017 216.394 224.143C217.925 219.515 220.246 215.183 223.357 211.417C226.246 207.921 229.702 204.967 233.456 202.432C237.209 199.897 241.381 197.706 245.603 195.81C249.826 193.915 254.393 192.241 258.887 190.666C264.294 188.795 269.726 187.022 275.208 185.398C280.665 183.773 286.171 182.247 291.701 180.868C297.257 179.465 302.837 178.185 308.442 177.053C314.047 175.896 319.676 174.862 325.33 173.951C330.985 173.041 336.688 172.253 342.392 171.588C348.095 170.924 353.997 170.407 359.824 169.939C362.688 169.693 365.552 169.447 368.416 169.176C371.28 168.905 368.663 168.757 368.416 168.782C362.465 169.348 356.515 169.791 350.564 170.357C344.614 170.924 339.182 171.564 333.528 172.351C327.849 173.139 322.219 174.05 316.59 175.084C310.96 176.118 305.355 177.274 299.775 178.554C294.17 179.835 288.615 181.238 283.084 182.764C277.553 184.29 272.047 185.939 266.591 187.712C261.603 189.312 256.64 191.01 251.751 192.881C247.431 194.555 243.159 196.401 239.085 198.592C235.085 200.758 231.233 203.269 227.826 206.297C224.419 209.3 221.456 212.82 219.209 216.758C216.715 221.165 215.184 226.039 214.221 230.987C213.258 235.934 212.839 241.153 212.592 246.298C212.345 251.27 212.172 256.267 211.851 261.24C211.53 266.089 211.086 270.938 210.518 275.763C209.95 280.588 209.209 285.412 208.32 290.213C207.431 295.013 206.345 299.665 205.061 304.293C203.777 308.896 202.271 313.475 200.518 317.93C198.765 322.361 196.765 326.693 194.493 330.878C192.222 335.063 189.679 339.026 186.839 342.792C183.753 346.903 180.296 350.743 176.592 354.313C172.889 357.882 172.592 358.005 170.518 359.728C168.444 361.451 170.592 360.171 170.79 359.999L170.765 360.024Z" fill="white"/>
<path d="M222.838 338.41C224.147 331.395 225.431 324.354 226.937 317.363C228.196 311.431 229.604 305.523 231.233 299.665C232.863 293.806 234.715 287.997 236.888 282.286C239.036 276.649 241.48 271.11 244.32 265.768C247.134 260.476 250.344 255.405 253.974 250.629C257.603 245.854 261.702 241.398 266.171 237.386C270.615 233.374 275.43 229.755 280.492 226.53C285.553 223.306 290.862 220.426 296.319 217.915C301.899 215.33 307.652 213.115 313.503 211.219C320.145 209.053 326.935 207.281 333.775 205.804C335.454 205.435 337.133 205.09 338.812 204.77C340.491 204.45 338.96 204.351 338.713 204.401C331.799 205.755 324.96 207.379 318.219 209.373C312.096 211.17 306.072 213.312 300.195 215.798C294.64 218.161 289.208 220.869 283.998 223.946C278.837 226.998 273.875 230.444 269.257 234.26C264.64 238.075 260.319 242.334 256.443 246.962C252.591 251.59 249.159 256.537 246.147 261.756C243.134 266.974 240.517 272.39 238.221 277.953C235.9 283.566 233.9 289.326 232.172 295.16C230.443 300.994 228.912 306.951 227.554 312.908C226.048 319.628 224.74 326.397 223.456 333.167C223.135 334.89 222.814 336.613 222.493 338.336C222.443 338.582 222.814 338.681 222.863 338.435L222.838 338.41Z" fill="white"/>
</g>
<path fill-rule="evenodd" clip-rule="evenodd" d="M68.0264 88.1654C65.9277 87.3038 64.9401 84.9407 65.7796 82.8483C66.6438 80.7559 69.0141 79.7713 71.1128 80.6083C73.2115 81.4698 74.1992 83.8329 73.3597 85.9253C72.4955 88.0177 70.1252 89.0023 68.0264 88.1654Z" fill="#91BBE4" stroke="#367BAA" stroke-width="0.2" stroke-linecap="round" stroke-linejoin="round"/>
<path fill-rule="evenodd" clip-rule="evenodd" d="M80.7425 73.1984C80.4216 73.5184 79.9031 73.543 79.5574 73.2476C79.2117 72.9522 79.1376 72.4599 79.3599 72.0906C79.8043 71.4014 80.1746 70.8106 80.4462 70.3921C80.6685 70.0475 80.6191 69.6044 80.3475 69.309C80.0018 68.9644 79.508 68.4475 78.9401 67.8813C78.6191 67.5613 78.5944 67.0444 78.8907 66.6997C79.187 66.3551 79.6808 66.2813 80.0512 66.5028C80.7425 66.9459 81.3351 67.3151 81.7549 67.5859C82.1006 67.8075 82.545 67.7582 82.8413 67.4875C83.1869 67.1428 83.7054 66.6505 84.2733 66.0843C84.5943 65.7643 85.1128 65.7397 85.4585 66.0351C85.8042 66.3305 85.8783 66.8228 85.656 67.1921C85.2116 67.8813 84.8412 68.4721 84.5696 68.8906C84.3474 69.2352 84.3968 69.6783 84.6684 69.9737C85.0141 70.3183 85.5079 70.8352 86.0758 71.4014C86.3968 71.7214 86.4214 72.2383 86.1252 72.583C85.8289 72.9276 85.3351 73.0014 84.9647 72.7799C84.2734 72.3368 83.6808 71.9676 83.261 71.6968C82.9153 71.4752 82.4709 71.5245 82.1746 71.7953C81.8289 72.1399 81.3104 72.6322 80.7425 73.1984Z" fill="#91BBE4" stroke="#367BAA" stroke-width="0.2" stroke-linecap="round" stroke-linejoin="round"/>
<path fill-rule="evenodd" clip-rule="evenodd" d="M372.786 345.007C370.317 343.9 369.231 340.995 370.342 338.533C371.453 336.072 374.366 334.989 376.835 336.096C379.305 337.204 380.391 340.109 379.28 342.57C378.169 345.032 375.255 346.115 372.786 345.007Z" fill="#91BBE4"/>
<path fill-rule="evenodd" clip-rule="evenodd" d="M330.368 335.506C329.973 335.875 329.355 335.875 328.96 335.506C328.565 335.161 328.491 334.546 328.788 334.103C329.355 333.29 329.825 332.601 330.17 332.133C330.442 331.74 330.417 331.198 330.071 330.829C329.676 330.386 329.108 329.77 328.442 329.056C328.071 328.663 328.071 328.047 328.442 327.653C328.788 327.259 329.405 327.186 329.849 327.481C330.664 328.047 331.355 328.515 331.824 328.859C332.22 329.13 332.763 329.106 333.133 328.761C333.578 328.367 334.195 327.801 334.911 327.136C335.306 326.767 335.923 326.767 336.318 327.136C336.713 327.481 336.787 328.096 336.491 328.539C335.923 329.352 335.454 330.041 335.108 330.509C334.837 330.903 334.861 331.444 335.207 331.813C335.602 332.256 336.17 332.872 336.837 333.586C337.207 333.98 337.207 334.595 336.837 334.989C336.491 335.383 335.874 335.457 335.429 335.161C334.615 334.595 333.923 334.127 333.454 333.783C333.059 333.512 332.516 333.536 332.145 333.881C331.701 334.275 331.084 334.841 330.368 335.506Z" fill="#91BBE4"/>
<path fill-rule="evenodd" clip-rule="evenodd" d="M309.824 65.9609C307.602 67.561 307.108 70.6872 308.713 72.9026C310.318 75.1181 313.454 75.6104 315.676 74.0103C317.898 72.4103 318.392 69.2841 316.787 67.0686C315.182 64.8532 312.047 64.3609 309.824 65.9609Z" fill="#91BBE4" stroke="#367BAA" stroke-width="0.2" stroke-linecap="round" stroke-linejoin="round"/>
<path fill-rule="evenodd" clip-rule="evenodd" d="M329.231 80.0404C328.762 79.7696 328.145 79.8927 327.824 80.3111C327.503 80.7542 327.552 81.3696 327.947 81.7389C328.663 82.4281 329.281 83.0189 329.725 83.4374C330.096 83.782 330.17 84.3235 329.923 84.7666C329.626 85.2836 329.182 86.0221 328.688 86.8836C328.417 87.3513 328.54 87.9667 328.96 88.2867C329.404 88.6067 330.021 88.5575 330.392 88.1636C331.083 87.4498 331.676 86.8344 332.096 86.3913C332.441 86.0221 332.984 85.9482 333.429 86.1944C333.947 86.4897 334.688 86.9328 335.552 87.4252C336.021 87.6959 336.639 87.5729 336.96 87.1544C337.281 86.7113 337.231 86.0959 336.836 85.7267C336.12 85.0374 335.503 84.4466 335.058 84.0282C334.688 83.6835 334.614 83.142 334.861 82.6989C335.157 82.182 335.602 81.4435 336.095 80.5819C336.367 80.1142 336.244 79.4988 335.824 79.1788C335.379 78.8588 334.762 78.908 334.392 79.3019C333.7 80.0157 333.108 80.6311 332.688 81.0742C332.342 81.4435 331.799 81.5173 331.355 81.2712C330.836 80.9758 330.096 80.5327 329.231 80.0404Z" fill="#91BBE4" stroke="#367BAA" stroke-width="0.2" stroke-linecap="round" stroke-linejoin="round"/>
<path fill-rule="evenodd" clip-rule="evenodd" d="M38.2492 327.703C35.8542 329.253 35.1875 332.454 36.7677 334.841C38.3232 337.229 41.5331 337.894 43.9281 336.318C46.3231 334.767 46.9898 331.567 45.4095 329.18C43.854 326.792 40.6442 326.127 38.2492 327.703Z" fill="#91BBE4" stroke="#367BAA" stroke-width="0.2" stroke-linecap="round" stroke-linejoin="round"/>
<path fill-rule="evenodd" clip-rule="evenodd" d="M57.6312 343.21C57.1621 342.89 56.5201 342.988 56.1497 343.432C55.7794 343.875 55.8041 344.515 56.1991 344.909C56.9151 345.647 57.5324 346.287 57.9522 346.755C58.3225 347.124 58.3719 347.69 58.0756 348.133C57.7299 348.65 57.2361 349.389 56.6929 350.25C56.3719 350.718 56.4707 351.358 56.9151 351.727C57.3596 352.096 58.0015 352.072 58.3966 351.678C59.1373 350.964 59.7793 350.349 60.2484 349.93C60.6188 349.561 61.1867 349.512 61.6311 349.807C62.1496 350.152 62.8903 350.644 63.7545 351.186C64.2237 351.506 64.8656 351.407 65.236 350.964C65.6063 350.521 65.5817 349.881 65.1866 349.487C64.4706 348.749 63.8533 348.109 63.4336 347.641C63.0632 347.272 63.0138 346.705 63.3101 346.262C63.6558 345.745 64.1496 345.007 64.6928 344.145C65.0138 343.678 64.915 343.038 64.4706 342.668C64.0261 342.299 63.3842 342.324 62.9891 342.718C62.2484 343.432 61.6064 344.047 61.1373 344.465C60.7669 344.835 60.199 344.884 59.7546 344.588C59.2361 344.244 58.4954 343.752 57.6312 343.21Z" fill="#91BBE4" stroke="#367BAA" stroke-width="0.2" stroke-linecap="round" stroke-linejoin="round"/>
<path d="M313.899 360.194C314.196 360.883 310.788 362.557 306.221 365.831C303.998 367.431 301.974 369.105 300.468 370.36C298.961 371.616 297.949 372.453 297.653 372.231C297.381 372.034 297.924 370.779 299.184 369.154C300.418 367.505 302.393 365.511 304.764 363.813C307.134 362.114 309.381 361.056 311.035 360.514C312.69 359.973 313.751 359.923 313.899 360.219V360.194Z" fill="#91BBE4"/>
<path d="M288.171 400.689C288.122 400.59 288.912 400.443 290.443 400.147C291.208 399.975 292.171 399.778 293.282 399.434C294.369 399.064 295.652 398.597 296.813 397.686C297.381 397.243 297.949 396.677 298.393 396.012C298.838 395.347 299.183 394.56 299.455 393.673C299.973 391.926 300.196 389.809 300.739 387.569C301.257 385.329 301.949 382.941 302.986 380.504C304.023 378.067 305.356 375.531 307.257 373.144C308.195 371.962 309.282 370.805 310.442 369.747C311.603 368.688 312.813 367.703 313.899 366.596C314.985 365.488 315.924 364.282 316.467 362.854C317.035 361.451 317.134 359.9 316.541 358.571C315.948 357.242 314.689 356.134 313.232 355.272C311.776 354.411 309.998 353.795 308.195 352.934C307.307 352.491 306.393 351.998 305.529 351.334C304.665 350.669 303.899 349.882 303.257 348.995C301.973 347.223 301.183 345.131 300.813 342.989C300.442 340.823 300.517 338.583 300.813 336.417C301.134 334.25 301.702 332.109 302.294 330.016C303.529 325.856 304.788 321.549 306.097 317.142C306.739 314.951 307.405 312.711 308.072 310.471C308.714 308.231 309.257 305.991 309.356 303.751C309.479 301.511 309.084 299.271 308.023 297.326C306.986 295.406 305.233 293.954 303.109 293.536C301.035 293.092 298.763 293.56 296.714 294.471C295.677 294.939 294.689 295.505 293.776 296.169C292.862 296.809 291.998 297.597 291.159 298.409C287.85 301.659 285.406 305.72 283.48 309.954C282.517 312.071 281.677 314.238 280.887 316.428C280.492 317.511 280.122 318.619 279.752 319.702L279.505 320.465C279.505 320.392 279.505 320.539 279.505 320.613V321.105C279.406 321.745 279.307 322.385 279.159 322.976C278.591 325.364 277.653 327.506 276.789 329.623C276.369 330.656 275.924 331.69 275.579 332.724C275.233 333.709 274.937 334.841 274.616 335.9C273.381 340.158 272.097 344.318 270.962 348.405C269.801 352.491 268.69 356.479 267.653 360.368C265.579 368.147 263.776 375.482 262.369 382.252C261.678 385.649 261.06 388.898 260.542 391.999C260.295 393.526 260.196 394.953 260.443 396.307C260.69 397.637 261.332 398.793 262.27 399.655C263.184 400.517 264.369 401.058 265.554 401.403C266.739 401.747 267.974 401.92 269.134 402.043C271.505 402.24 273.702 402.117 275.678 401.969C279.628 401.649 282.739 401.132 284.863 400.91C286.986 400.64 288.122 400.615 288.122 400.714C288.122 400.812 287.011 400.984 284.937 401.427C282.838 401.821 279.776 402.486 275.776 402.954C273.776 403.175 271.529 403.372 269.06 403.249C267.826 403.175 266.517 403.027 265.209 402.683C263.9 402.314 262.517 401.747 261.332 400.738C260.147 399.729 259.307 398.252 258.986 396.652C258.641 395.076 258.74 393.403 258.986 391.803C259.431 388.676 259.999 385.378 260.641 381.956C261.949 375.088 263.653 367.703 265.653 359.876C266.665 355.962 267.727 351.949 268.838 347.838C269.949 343.728 271.208 339.543 272.418 335.26C272.739 334.177 273.011 333.143 273.381 332.01C273.752 330.903 274.196 329.844 274.616 328.786C275.455 326.693 276.319 324.601 276.813 322.484C276.937 321.967 277.011 321.45 277.06 320.933V320.564L277.085 320.269V320.047L277.159 319.85L277.455 318.964C277.826 317.856 278.196 316.748 278.591 315.641C279.381 313.425 280.245 311.185 281.233 308.97C283.208 304.588 285.776 300.231 289.381 296.662C290.295 295.776 291.233 294.939 292.294 294.176C293.356 293.412 294.492 292.772 295.677 292.231C298.047 291.172 300.813 290.557 303.603 291.123C304.986 291.419 306.319 292.009 307.43 292.871C308.566 293.732 309.43 294.816 310.097 295.973C311.405 298.311 311.924 300.97 311.825 303.505C311.751 306.04 311.183 308.428 310.566 310.668C309.924 312.933 309.257 315.075 308.615 317.241C307.307 321.549 306.047 325.782 304.813 329.869C303.578 333.93 302.541 337.918 302.912 341.684C303.109 343.555 303.628 345.352 304.516 346.903C305.405 348.454 306.64 349.66 308.171 350.522C309.702 351.408 311.455 352.048 313.183 352.909C314.887 353.795 316.566 354.928 317.726 356.626C318.294 357.463 318.689 358.448 318.837 359.482C318.985 360.491 318.887 361.5 318.664 362.411C318.195 364.257 317.183 365.833 316.047 367.137C314.887 368.417 313.627 369.451 312.467 370.46C311.282 371.445 310.22 372.43 309.257 373.488C307.356 375.605 305.924 377.944 304.788 380.258C303.677 382.572 302.862 384.885 302.27 387.076C301.949 388.159 301.702 389.242 301.48 390.276C301.257 391.31 301.06 392.344 300.763 393.304C300.492 394.289 300.122 395.2 299.628 396.036C299.134 396.873 298.517 397.538 297.85 398.08C296.517 399.163 295.109 399.704 293.899 400.049C292.69 400.394 291.628 400.541 290.788 400.64C289.085 400.837 288.171 400.812 288.122 400.738L288.171 400.689Z" fill="#91BBE4"/>
<path d="M296.69 309.215C297.06 309.288 295.677 313.325 293.702 320.538C291.751 327.75 289.282 338.188 288.146 350.988C287.603 357.216 287.381 363.394 286.64 369.13C285.924 374.865 284.616 380.109 282.813 384.293C281.011 388.503 278.813 391.604 277.036 393.5C275.258 395.42 273.999 396.207 273.9 396.109C273.776 395.961 274.789 394.927 276.27 392.884C277.776 390.866 279.653 387.739 281.159 383.629C282.69 379.518 283.776 374.471 284.344 368.834C284.937 363.222 285.085 357.068 285.653 350.742C286.788 338.089 289.504 327.553 291.924 320.341C294.369 313.128 296.393 309.141 296.714 309.19L296.69 309.215Z" fill="#91BBE4"/>
<path d="M180.494 28.4941C128.742 28.568 84.5454 69.9228 84.5454 121.518V408.59H178.223L180.519 28.4941H180.494Z" fill="#67A1D7" stroke="#5A84AA" stroke-width="5" stroke-linecap="round" stroke-linejoin="round"/>
<path d="M180.494 28.5184C180.569 28.3707 180.643 30.5861 180.692 35.0416C180.741 39.4971 180.766 46.168 180.791 54.9067C180.815 72.4333 180.791 98.3047 180.717 131.438C180.593 164.571 180.445 204.966 180.272 251.539C180.025 298.457 179.754 351.603 179.457 409.869C163.581 409.869 147.359 409.869 130.767 409.869C114.841 409.869 99.0145 409.869 83.311 409.869C83.3604 351.357 83.4098 294.716 83.4345 242.653C83.4839 216.806 83.5086 192.116 83.5579 168.903C83.5826 157.285 83.6073 146.06 83.632 135.229C83.632 132.521 83.632 129.838 83.632 127.179C83.632 124.521 83.6073 121.911 83.7061 119.278C83.8542 114.034 84.3974 108.89 85.4344 103.966C86.4468 99.0432 87.7801 94.2923 89.5084 89.8122C91.2368 85.3567 93.2368 81.0981 95.4837 77.135C100.027 69.2578 105.36 62.4146 111.088 56.7775C113.903 53.9221 116.891 51.3866 119.804 49.0481C122.792 46.7834 125.73 44.6911 128.693 42.8941C134.594 39.251 140.347 36.5678 145.68 34.5493C146.347 34.3031 147.014 34.057 147.656 33.8108C148.298 33.5893 148.964 33.3924 149.606 33.1708C150.89 32.777 152.125 32.3339 153.359 32.0139C154.569 31.6938 155.754 31.3738 156.915 31.0538C158.075 30.8077 159.186 30.5615 160.273 30.3154C161.334 30.0692 162.396 29.8969 163.384 29.7246C164.396 29.5523 165.334 29.4046 166.272 29.2569C168.124 29.0599 169.803 28.8384 171.285 28.7153C172.791 28.6168 174.124 28.543 175.26 28.4692C176.396 28.4199 177.359 28.4445 178.149 28.4445C178.914 28.4445 179.507 28.4445 179.902 28.4445C180.297 28.4445 180.494 28.4445 180.494 28.4938C180.494 28.543 180.297 28.543 179.902 28.5676C179.507 28.5676 178.914 28.6168 178.149 28.6661C177.383 28.7153 176.42 28.7399 175.285 28.8138C174.149 28.9122 172.84 29.0353 171.334 29.183C169.853 29.3553 168.174 29.6015 166.347 29.8476C165.433 30.02 164.495 30.1923 163.507 30.3646C162.519 30.5615 161.482 30.7338 160.421 31.0046C159.359 31.2508 158.248 31.5215 157.112 31.7923C155.976 32.1123 154.816 32.4569 153.606 32.777C152.396 33.097 151.186 33.5647 149.902 33.9585C149.26 34.1801 148.618 34.377 147.977 34.6231C147.335 34.8693 146.693 35.1155 146.026 35.3862C140.767 37.4294 135.088 40.1617 129.31 43.8295C126.397 45.6265 123.508 47.7189 120.594 49.9835C117.73 52.322 114.817 54.8329 112.051 57.6637C106.446 63.2762 101.212 70.0456 96.817 77.8242C94.6442 81.7381 92.7183 85.9229 91.0393 90.3045C89.3603 94.7108 88.0764 99.3878 87.1134 104.213C86.1258 109.037 85.6073 114.084 85.4838 119.228C85.3851 121.788 85.4591 124.447 85.4344 127.081C85.4344 129.739 85.4344 132.422 85.4344 135.13C85.4344 145.961 85.4838 157.211 85.5085 168.805C85.5579 192.018 85.5826 216.732 85.632 242.554C85.6814 293.854 85.706 349.659 85.7554 407.285C100.644 407.285 115.631 407.285 130.718 407.285C146.446 407.285 161.878 407.285 176.939 407.285C177.334 351.406 177.68 299.959 178.001 254.222C178.371 208.117 178.717 167.746 178.988 134.392C179.309 101.037 179.581 74.698 179.828 56.6052C179.976 47.5712 180.099 40.5802 180.173 35.8293C180.272 31.0784 180.371 28.543 180.445 28.4199L180.494 28.5184Z" fill="#444444"/>
<path d="M284.986 121.518V408.59H97.3599V121.518C97.3599 69.8737 139.359 28.002 191.161 28.002C242.962 28.002 240.518 38.4637 257.505 55.3995C274.492 72.3353 284.986 95.7205 284.986 121.543V121.518Z" fill="white"/>
<path d="M284.986 232.241V408.614H97.3599V406.866C130.594 405.34 163.606 394.977 191.358 376.613C244.468 341.462 277.579 294.47 280.887 231.01L284.986 232.241Z" fill="#F6F6F6"/>
<path d="M269.407 192.51V121.518C269.407 100.693 261.259 81.0984 246.493 66.3534C231.703 51.633 212.074 43.5098 191.161 43.5098C148.026 43.5098 112.916 78.4891 112.916 121.518V192.51H269.382H269.407Z" fill="#EBEBEB"/>
<path d="M269.406 121.519V192.511H257.678V121.519C257.678 100.693 249.53 81.0991 234.765 66.3788C221.382 53.0369 204 45.1352 185.333 43.7567C187.259 43.609 189.21 43.5352 191.161 43.5352C212.049 43.5352 231.703 51.6584 246.493 66.3788C261.258 81.0991 269.406 100.693 269.406 121.519Z" fill="#67A1D7" stroke="#5A84AA" stroke-width="5" stroke-linecap="round" stroke-linejoin="round"/>
<path d="M269.406 192.512C269.48 192.585 268.616 192.635 266.838 192.708C265.06 192.782 262.394 192.832 258.888 192.881C251.851 193.004 241.407 193.102 227.876 193.201C214.37 193.275 197.802 193.373 178.519 193.472C158.914 193.521 136.52 193.595 111.779 193.668C111.779 178.431 111.73 162.258 111.705 145.249C111.705 141.089 111.705 136.904 111.705 132.645C111.705 130.528 111.705 128.387 111.705 126.221C111.705 124.054 111.656 121.938 111.755 119.697C111.903 110.86 113.656 101.851 116.964 93.2353C118.668 88.7798 120.767 84.4966 123.236 80.4596C125.705 76.4226 128.544 72.6071 131.655 69.1116C137.902 62.0714 145.334 56.2374 153.433 51.8312C161.556 47.4495 170.346 44.5941 179.21 43.2402C183.655 42.5756 188.099 42.3294 192.519 42.4033C193.63 42.4525 194.716 42.4279 195.802 42.5263C196.889 42.6002 197.975 42.6987 199.086 42.7725C200.173 42.8956 201.259 43.0433 202.321 43.1664C203.407 43.2894 204.469 43.511 205.531 43.6833C209.777 44.471 213.926 45.5787 217.926 46.9818C221.901 48.4342 225.728 50.1573 229.333 52.1512C232.962 54.1205 236.345 56.4098 239.53 58.8714C242.74 61.3083 245.653 63.9915 248.345 66.8223C259.184 78.0964 265.851 91.7829 268.542 104.928C269.999 111.5 270.295 117.974 270.221 124.005C270.196 130.036 270.147 135.747 270.122 141.089C270.048 151.797 269.974 161.077 269.9 168.683C269.826 176.314 269.752 182.271 269.653 186.333C269.604 188.351 269.579 189.902 269.529 190.961C269.48 191.995 269.455 192.536 269.406 192.536C269.357 192.536 269.332 191.995 269.283 190.961C269.233 189.927 269.209 188.376 269.159 186.333C269.085 182.271 269.011 176.314 268.912 168.683C268.863 161.052 268.789 151.772 268.69 141.089C268.665 135.747 268.616 130.036 268.591 124.005C268.591 117.999 268.246 111.722 266.764 105.297C264.048 92.4722 257.431 79.1795 246.814 68.25C244.172 65.5177 241.308 62.9084 238.172 60.5699C235.061 58.2067 231.752 55.9913 228.222 54.0959C224.691 52.1758 220.987 50.5265 217.111 49.1234C213.234 47.7695 209.21 46.7111 205.062 45.9726C204.025 45.8003 202.987 45.5787 201.95 45.4803C200.913 45.3572 199.852 45.2341 198.79 45.111C197.728 45.0372 196.667 44.9633 195.605 44.8895C194.543 44.791 193.481 44.8156 192.395 44.791C188.124 44.7418 183.803 45.0126 179.506 45.6526C170.914 47.0065 162.42 49.7881 154.544 54.0466C146.692 58.3298 139.507 63.9915 133.458 70.8101C130.446 74.2071 127.705 77.8995 125.31 81.8135C122.94 85.7274 120.89 89.8875 119.236 94.1953C116.076 102.491 114.347 111.156 114.199 119.697C114.125 121.814 114.15 124.005 114.15 126.147C114.15 128.288 114.15 130.43 114.15 132.547C114.15 136.806 114.15 140.99 114.15 145.15C114.15 161.372 114.1 176.831 114.076 191.428C137.433 191.502 158.692 191.552 177.432 191.625C196.518 191.724 213.061 191.822 226.617 191.896C240.197 191.995 250.814 192.118 258.073 192.216C261.702 192.265 264.493 192.339 266.394 192.388C268.295 192.462 269.307 192.512 269.381 192.585L269.406 192.512Z" fill="#444444"/>
<path d="M128.322 247.872C136.395 247.872 142.939 241.347 142.939 233.299C142.939 225.251 136.395 218.727 128.322 218.727C120.249 218.727 113.705 225.251 113.705 233.299C113.705 241.347 120.249 247.872 128.322 247.872Z" fill="#C63D4D"/>
<path d="M189.926 28.002C190.025 28.1004 188.297 28.2235 184.865 28.4697C181.433 28.8143 176.272 29.3804 169.704 30.9805C168.89 31.1774 168.05 31.399 167.186 31.6205C166.322 31.8667 165.458 32.1374 164.544 32.4082C162.717 32.9251 160.865 33.6144 158.914 34.3283C155.038 35.8298 150.865 37.6514 146.569 40.0392C138.001 44.8147 128.792 51.6825 120.594 61.332C116.495 66.1567 112.668 71.6461 109.36 77.8001C106.101 83.9787 103.36 90.7973 101.434 98.1821C99.5328 105.567 98.5204 113.469 98.5204 121.715C98.5204 130.035 98.5451 138.651 98.5698 147.562C98.5945 183.206 98.6439 223.477 98.6686 267.442C98.6192 316.427 98.5698 364.256 98.5451 407.482C125.113 407.556 149.952 407.605 172.248 407.679C194.889 407.777 214.987 407.876 231.679 407.95C248.394 408.048 261.727 408.147 270.888 408.27C275.48 408.319 279.011 408.393 281.406 408.442C282.591 408.467 283.505 408.491 284.122 408.54C284.739 408.565 285.036 408.59 285.036 408.639C285.036 408.688 284.715 408.688 284.122 408.737C283.505 408.762 282.591 408.787 281.406 408.836C279.011 408.885 275.48 408.959 270.888 409.008C261.727 409.131 248.394 409.23 231.679 409.328C214.963 409.402 194.889 409.5 172.248 409.599C149.26 409.648 123.68 409.722 96.2983 409.796C96.2489 365.881 96.2242 317.289 96.1748 267.516C96.1995 224.733 96.2489 185.15 96.2736 149.876C96.2736 141.063 96.2983 132.497 96.323 124.226C96.323 122.158 96.3723 120.09 96.4217 118.047C96.4217 117.013 96.5205 116.004 96.5946 114.995C96.6686 113.986 96.7674 112.976 96.8415 111.967C97.3353 107.955 97.9032 104.041 98.8414 100.25C99.6809 96.459 100.866 92.8158 102.101 89.2958C103.434 85.8249 104.866 82.4279 106.52 79.2524C109.755 72.8769 113.582 67.166 117.681 62.1443C125.952 52.101 135.335 44.8639 144.174 39.9161C153.038 34.919 161.309 32.0882 168.174 30.4636C175.038 28.8389 180.494 28.2973 184.198 28.125C185.111 28.0512 185.951 28.0512 186.642 28.0512C187.358 28.0512 187.951 28.0512 188.42 28.0512C189.383 28.0512 189.901 28.0758 189.951 28.125L189.926 28.002Z" fill="#444444"/>
<path d="M284.986 408.614C284.912 408.688 284.814 407.482 284.739 405.045C284.665 402.632 284.591 398.989 284.517 394.238C284.369 384.712 284.246 370.681 284.122 352.785C283.9 316.969 283.752 265.62 283.752 203.858C283.752 188.842 283.752 173.974 283.752 159.451C283.752 152.189 283.752 145.026 283.776 137.961C283.776 134.441 283.776 130.921 283.776 127.45C283.776 125.727 283.776 123.979 283.776 122.256C283.776 120.533 283.702 118.859 283.678 117.185C283.11 103.72 279.53 91.0185 274.073 80.1137C268.616 69.1842 261.332 60.0516 253.58 52.913C249.678 49.3437 245.629 46.2913 241.629 43.6574C239.629 42.3035 237.604 41.1712 235.654 40.0142C233.629 38.9803 231.703 37.8972 229.753 37.0357C225.901 35.1895 222.123 33.8602 218.642 32.6787C216.864 32.1863 215.185 31.6202 213.556 31.2263C212.741 31.0294 211.926 30.8325 211.161 30.6355C210.765 30.5371 210.395 30.4386 210 30.3648C209.605 30.2909 209.235 30.2171 208.864 30.1432C207.358 29.8724 205.951 29.5524 204.617 29.3801C203.284 29.1832 202.025 29.0109 200.84 28.8386C199.655 28.7155 198.568 28.617 197.581 28.5186C196.593 28.4201 195.679 28.3216 194.865 28.297C193.235 28.2232 192 28.1493 191.161 28.0755C190.321 28.0262 189.902 28.0016 189.877 27.9524C189.877 27.9032 190.297 27.8539 191.161 27.8293C192 27.8293 193.26 27.8047 194.889 27.8047C195.704 27.8047 196.618 27.8293 197.63 27.9032C198.642 27.9524 199.729 28.0262 200.914 28.1001C202.099 28.2232 203.383 28.3709 204.741 28.5186C206.099 28.6662 207.531 28.9616 209.062 29.1832C209.432 29.257 209.827 29.3063 210.222 29.3801C210.617 29.454 211.012 29.5524 211.407 29.6263C212.198 29.7986 213.012 29.9709 213.852 30.1678C215.531 30.5371 217.234 31.054 219.037 31.5217C222.592 32.6294 226.444 33.9341 230.37 35.731C232.37 36.568 234.345 37.6265 236.395 38.6603C238.395 39.7927 240.493 40.925 242.543 42.2789C246.666 44.9128 250.814 47.9652 254.814 51.5591C262.814 58.747 270.345 68.0026 275.999 79.129C281.653 90.2308 285.406 103.228 286.048 117.013C286.097 118.736 286.172 120.484 286.172 122.207C286.172 123.93 286.172 125.653 286.172 127.401C286.172 130.872 286.172 134.367 286.172 137.912C286.172 144.977 286.172 152.14 286.196 159.402C286.196 173.925 286.196 188.793 286.221 203.809C286.221 263.897 286.073 314.95 285.851 351.037C285.727 369.081 285.604 383.383 285.455 393.229C285.381 398.152 285.307 401.943 285.209 404.528C285.11 407.112 285.036 408.491 284.962 408.565L284.986 408.614Z" fill="#444444"/>
<path d="M142.939 233.301C142.865 233.301 142.766 233.054 142.643 232.562C142.569 232.07 142.371 231.331 142.149 230.396C141.606 228.574 140.47 225.842 137.828 223.43C136.519 222.248 134.816 221.19 132.791 220.525C130.791 219.836 128.445 219.639 126.05 220.082C125.754 220.131 125.458 220.18 125.162 220.279C124.865 220.353 124.569 220.426 124.273 220.525C123.68 220.746 123.088 220.943 122.52 221.263C121.927 221.51 121.384 221.903 120.816 222.248C120.297 222.642 119.73 223.036 119.26 223.528C117.261 225.35 115.779 227.934 115.211 230.864C114.915 232.291 114.94 233.744 115.112 235.147C115.285 236.574 115.705 237.928 116.322 239.184C117.532 241.719 119.532 243.738 121.828 245.067C122.989 245.707 124.199 246.199 125.433 246.47C126.668 246.716 127.927 246.889 129.137 246.815C131.557 246.741 133.779 245.978 135.606 244.919C137.433 243.861 138.84 242.482 139.877 241.104C140.89 239.725 141.507 238.322 141.927 237.165C142.717 234.802 142.742 233.325 142.964 233.325C143.087 233.325 143.408 234.802 142.865 237.411C142.569 238.691 142.026 240.267 141.013 241.867C140.001 243.467 138.519 245.092 136.519 246.396C134.544 247.701 132.026 248.686 129.236 248.858C127.853 249.006 126.396 248.858 124.964 248.587C123.507 248.292 122.075 247.75 120.717 247.036C118.001 245.559 115.582 243.196 114.125 240.218C113.384 238.741 112.866 237.116 112.643 235.442C112.421 233.768 112.421 232.045 112.742 230.347C113.063 228.673 113.656 227.073 114.446 225.62C115.261 224.168 116.273 222.913 117.409 221.83C119.705 219.663 122.544 218.359 125.31 217.842C128.1 217.374 130.791 217.62 133.112 218.408C135.433 219.196 137.334 220.476 138.766 221.879C140.223 223.282 141.211 224.808 141.877 226.211C142.026 226.58 142.174 226.925 142.322 227.245C142.445 227.59 142.544 227.91 142.643 228.23C142.865 228.845 142.939 229.46 143.038 229.977C143.186 231.036 143.211 231.873 143.137 232.414C143.087 232.981 143.013 233.251 142.939 233.276V233.301Z" fill="#444444"/>
<path d="M177.679 240.167H132.47C128.668 240.167 125.582 237.09 125.582 233.3C125.582 229.509 128.668 226.432 132.47 226.432H177.679C181.482 226.432 184.568 229.509 184.568 233.3C184.568 237.09 181.482 240.167 177.679 240.167Z" fill="white"/>
<path d="M146.841 240.167C146.767 239.822 152.273 239.502 161.976 239.28C164.396 239.231 167.087 239.182 170.025 239.133C171.482 239.133 173.013 239.083 174.593 239.059C175.383 239.059 176.198 239.059 177.013 239.034H177.63L178.173 238.985C178.519 238.96 178.865 238.887 179.21 238.788C180.568 238.419 181.828 237.483 182.568 236.203C183.334 234.948 183.581 233.299 183.161 231.797C182.766 230.296 181.655 228.942 180.173 228.228C179.433 227.883 178.618 227.662 177.778 227.662C176.766 227.662 175.729 227.662 174.692 227.662C166.544 227.662 158.594 227.637 151.211 227.563C147.532 227.514 143.977 227.489 140.643 227.44C138.964 227.415 137.359 227.391 135.779 227.366C134.989 227.366 134.224 227.342 133.483 227.317C133.113 227.317 132.717 227.317 132.397 227.317H131.927L131.458 227.391C130.224 227.588 129.113 228.179 128.248 228.942C127.409 229.729 126.816 230.714 126.545 231.723C125.952 233.742 126.495 235.686 127.31 236.942C128.15 238.247 129.236 238.936 129.977 239.33C130.742 239.723 131.187 239.871 131.162 239.97C131.162 240.043 130.668 240.068 129.779 239.797C128.915 239.527 127.631 238.911 126.52 237.508C125.434 236.154 124.594 233.889 125.187 231.354C125.458 230.099 126.125 228.843 127.137 227.785C128.15 226.751 129.557 225.914 131.162 225.619L131.779 225.52L132.397 225.471C132.792 225.471 133.137 225.471 133.532 225.446C134.273 225.446 135.063 225.422 135.829 225.397C137.384 225.397 139.014 225.348 140.693 225.323C144.026 225.298 147.581 225.249 151.26 225.2C158.643 225.126 166.618 225.102 174.741 225.102C175.754 225.102 176.766 225.102 177.754 225.102C178.939 225.102 180.099 225.372 181.136 225.865C183.235 226.825 184.815 228.696 185.457 230.788C186.124 232.88 185.852 235.17 184.84 237.016C183.852 238.862 182.149 240.191 180.297 240.807C179.383 241.127 178.346 241.225 177.482 241.2C176.667 241.2 175.877 241.2 175.087 241.176C173.507 241.176 172.001 241.127 170.544 241.102C167.63 241.053 164.914 241.003 162.47 240.954C152.692 240.733 146.964 240.413 146.89 240.068L146.841 240.167Z" fill="#444444"/>
<path d="M191.185 43.5342C191.877 43.3373 192.42 71.3503 192.445 113.616C192.445 154.749 191.877 192.51 191.185 192.51C190.494 192.51 189.926 154.749 189.926 113.616C189.926 72.4826 190.494 43.7312 191.185 43.5342Z" fill="#444444"/>
<path d="M269.406 131.857C269.628 132.546 240.197 133.088 195.803 133.112C152.594 133.112 112.94 132.546 112.94 131.857C112.94 131.168 152.594 130.602 195.803 130.602C239.012 130.602 269.209 131.168 269.406 131.857Z" fill="#444444"/>
<path d="M231.925 66.5268C231.753 66.5268 232.123 64.9022 233.061 61.899C233.999 58.8959 235.481 54.5142 237.604 48.9756C239.728 43.4617 242.444 36.7661 246.123 29.3321C247.975 25.6151 250.049 21.7011 252.616 17.7379C253.9 15.7687 255.308 13.7748 256.962 11.8793C257.802 10.9193 258.69 10.0085 259.703 9.14696C260.715 8.2854 261.851 7.47308 263.209 6.90691C264.493 6.34074 266.196 6.14381 267.554 6.46382C268.962 6.7346 270.196 7.27615 271.332 7.89155C273.628 9.14696 275.579 10.6978 277.431 12.3224C281.085 15.5717 284.245 19.0918 287.159 22.5627C292.961 29.5044 297.751 36.2984 301.677 42.1324C305.603 47.9664 308.665 52.9142 310.714 56.385C312.763 59.8559 313.8 61.899 313.652 61.9975C313.504 62.096 312.196 60.2251 309.899 56.9266C307.603 53.628 304.344 48.8526 300.245 43.1663C296.146 37.5046 291.233 30.8583 285.406 24.0889C282.492 20.7165 279.357 17.2949 275.826 14.1932C274.048 12.667 272.172 11.2147 270.172 10.1316C269.159 9.59005 268.122 9.17158 267.085 8.95004C266.048 8.72849 265.159 8.85157 264.172 9.24543C262.221 10.0824 260.493 11.7316 258.962 13.4301C257.431 15.1533 256.098 16.9995 254.839 18.8457C252.37 22.5873 250.271 26.3535 248.394 29.9475C244.666 37.16 241.777 43.7078 239.431 49.1726C237.086 54.6373 235.308 58.9943 234.074 61.9729C232.814 64.9514 232.098 66.5761 231.925 66.5761V66.5268Z" fill="#67A1D7"/>
<path d="M263.851 17.6646C268.814 17.6646 272.838 13.653 272.838 8.70436C272.838 3.75577 268.814 -0.255859 263.851 -0.255859C258.887 -0.255859 254.863 3.75577 254.863 8.70436C254.863 13.653 258.887 17.6646 263.851 17.6646Z" fill="#67A1D7"/>
<path d="M335.109 100.94L216.592 107.586C212.049 107.832 208.173 104.386 207.926 99.8565L205.926 64.2618C205.679 59.7325 209.136 55.8678 213.679 55.6216L332.195 48.9753C336.738 48.7291 340.615 52.1754 340.862 56.7047L342.862 92.2994C343.109 96.8288 339.652 100.693 335.109 100.94Z" fill="white"/>
<path d="M330.492 49.0498C330.566 49.1236 329.553 49.2713 327.553 49.4683C325.553 49.6652 322.566 49.9114 318.615 50.2067C310.739 50.7975 299.159 51.5852 284.344 52.5206C269.53 53.4314 251.505 54.5145 230.814 55.7946C225.629 56.09 220.296 56.41 214.79 56.73L213.753 56.7792C213.457 56.8284 213.16 56.8284 212.864 56.9023C212.271 57.0008 211.704 57.1977 211.16 57.4438C210.074 57.9362 209.136 58.7485 208.42 59.7085C207.728 60.6932 207.259 61.8501 207.16 63.0809C207.111 63.3763 207.111 63.6963 207.136 63.9917C207.136 64.2871 207.16 64.6809 207.185 65.0256C207.235 65.7394 207.259 66.4779 207.309 67.1918C207.63 72.9765 207.975 78.9336 208.346 85.0138C208.518 88.0661 208.691 91.1431 208.864 94.2447C208.963 95.7955 209.037 97.371 209.136 98.9464C209.185 99.7833 209.21 100.399 209.383 101.063C209.555 101.703 209.802 102.343 210.148 102.934C210.815 104.067 211.827 105.002 213.012 105.593C213.605 105.888 214.222 106.11 214.864 106.208C215.185 106.282 215.506 106.282 215.852 106.331C216.197 106.331 216.469 106.331 216.889 106.331C219.975 106.159 223.061 105.987 226.123 105.814C232.246 105.47 238.32 105.15 244.345 104.805C256.345 104.165 268.073 103.525 279.357 102.91C290.616 102.319 301.455 101.753 311.652 101.211C316.763 100.94 321.702 100.694 326.467 100.448C328.862 100.325 331.208 100.202 333.504 100.103C334.072 100.079 334.64 100.054 335.207 100.005C335.701 99.9557 336.22 99.8818 336.689 99.7587C337.652 99.4879 338.565 99.0202 339.331 98.4048C340.862 97.174 341.849 95.3525 342.047 93.4816C342.121 93.0139 342.096 92.5709 342.072 92.0539C342.047 91.537 342.022 91.0201 341.997 90.5031C341.948 89.4692 341.899 88.46 341.849 87.4753C341.652 83.4876 341.479 79.7213 341.306 76.1766C340.985 69.1118 340.714 62.9578 340.491 57.9115C340.467 56.6315 340.393 55.5238 340.022 54.5145C339.677 53.5053 339.158 52.6437 338.541 51.9299C337.306 50.5021 335.825 49.7637 334.566 49.419C333.306 49.0744 332.269 49.1236 331.578 49.1236C330.887 49.1236 330.516 49.099 330.516 49.0498C330.516 49.0006 330.862 48.9513 331.553 48.8529C332.22 48.779 333.306 48.6313 334.664 48.9267C336.022 49.2221 337.677 49.936 339.084 51.4375C339.775 52.176 340.393 53.1114 340.812 54.2192C341.257 55.3023 341.355 56.6315 341.43 57.8623C341.775 62.9086 342.195 69.038 342.664 76.1028C342.886 79.6475 343.133 83.4137 343.405 87.3769C343.479 88.3615 343.528 89.3708 343.602 90.4047C343.627 90.9216 343.676 91.4385 343.701 91.9555C343.701 92.4724 343.751 93.0878 343.701 93.654C343.504 95.9679 342.318 98.2325 340.442 99.7833C339.504 100.546 338.393 101.162 337.183 101.506C336.59 101.679 335.948 101.777 335.331 101.826C334.763 101.876 334.195 101.9 333.603 101.95C331.306 102.097 328.961 102.245 326.59 102.393C321.825 102.688 316.862 102.983 311.776 103.303C301.578 103.919 290.764 104.559 279.505 105.223C268.246 105.888 256.518 106.553 244.518 107.267C238.518 107.611 232.444 107.956 226.296 108.3C223.234 108.473 220.148 108.645 217.061 108.817C216.691 108.842 216.222 108.817 215.778 108.842C215.333 108.793 214.889 108.793 214.444 108.694C213.555 108.547 212.716 108.227 211.901 107.857C210.296 107.07 208.938 105.79 208.025 104.263C207.555 103.5 207.234 102.663 206.988 101.802C206.765 100.965 206.691 99.9803 206.667 99.2664C206.593 97.7402 206.494 96.214 206.42 94.6878C206.247 91.6601 206.074 88.6323 205.926 85.6538C205.605 79.6967 205.284 73.8627 204.963 68.1764C204.914 67.4626 204.889 66.7487 204.839 66.0594L204.79 65.0009C204.79 64.6563 204.741 64.3117 204.741 63.8932C204.741 62.2686 205.136 60.6685 205.926 59.29C206.691 57.8869 207.852 56.73 209.16 55.8684C210.494 55.0315 212.049 54.5638 213.605 54.4653C219.037 54.1699 224.321 53.8991 229.456 53.6284C249.974 52.5945 267.999 51.6591 282.912 50.896C297.85 50.1821 309.702 49.6406 317.825 49.3452C321.899 49.1975 325.035 49.099 327.183 49.0498C329.331 49.0006 330.467 49.0498 330.541 49.1236L330.492 49.0498Z" fill="#444444"/>
<path d="M239.16 82.6246C238.197 83.0184 237.061 83.4123 235.752 83.8062C238.542 85.7262 240.049 87.1047 240.197 87.9663C240.32 88.6309 240.172 89.2709 239.703 89.8371C239.234 90.4279 238.666 90.7725 237.95 90.9202C237.184 91.0679 236.345 90.8217 235.407 90.1817C234.691 89.6155 233.975 89.0494 233.283 88.4832C232.617 87.9663 232.024 87.5478 231.506 87.2278C229.185 90.4771 227.506 92.2002 226.493 92.3725C225.753 92.5202 225.086 92.3725 224.444 92.0033C223.802 91.6094 223.432 91.0925 223.308 90.4279C223.185 89.8125 223.407 89.1232 224 88.3109C224.518 87.7201 225.037 87.1047 225.555 86.4893C225.876 86.0954 226.148 85.7754 226.345 85.5539C224.543 85.357 223.185 85.1847 222.321 85.0123C221.111 84.7662 220.419 84.1754 220.222 83.1908C220.098 82.5507 220.222 81.9107 220.642 81.2953C221.037 80.6799 221.629 80.2861 222.37 80.1384C222.765 80.0645 224.444 80.2368 227.357 80.6799C227.061 79.523 226.543 76.5937 226.444 76.126C226.32 75.4367 226.444 74.8213 226.864 74.2552C227.283 73.689 227.876 73.3444 228.641 73.1967C229.407 73.049 230.073 73.1474 230.691 73.5167C231.308 73.8859 231.678 74.4029 231.802 75.0921C231.975 75.929 232.469 78.7845 232.641 79.4737C235.086 78.6122 236.814 78.0953 237.851 77.8983C238.617 77.7506 239.283 77.8983 239.876 78.2676C240.468 78.6614 240.814 79.1784 240.937 79.843C241.184 81.123 240.592 82.0584 239.184 82.6246H239.16Z" fill="#C63D4D"/>
<path d="M268.937 80.2125C267.974 80.6063 266.838 81.0002 265.53 81.3941C268.32 83.3141 269.826 84.6926 269.974 85.5542C270.098 86.2188 269.949 86.8588 269.48 87.425C269.011 88.0158 268.443 88.3604 267.727 88.5081C266.962 88.6558 266.122 88.4096 265.184 87.7696C264.468 87.2034 263.752 86.6373 263.061 86.0711C262.394 85.5542 261.801 85.1357 261.283 84.8157C258.962 88.065 257.283 89.7881 256.271 89.9604C255.53 90.1081 254.863 89.9604 254.221 89.5912C253.579 89.1973 253.209 88.6804 253.086 88.0158C252.962 87.4004 253.184 86.7111 253.777 85.8988C254.295 85.308 254.814 84.6926 255.332 84.0772C255.653 83.6833 255.925 83.3633 256.122 83.1418C254.32 82.9449 252.962 82.7725 252.098 82.6002C250.888 82.3541 250.197 81.7633 249.999 80.7787C249.876 80.1386 249.999 79.4986 250.419 78.8832C250.814 78.2678 251.407 77.874 252.147 77.7263C252.542 77.6524 254.221 77.8247 257.135 78.2678C256.839 77.1109 256.32 74.1816 256.221 73.7139C256.098 73.0246 256.221 72.4092 256.641 71.8431C257.061 71.2769 257.653 70.9323 258.419 70.7846C259.184 70.6369 259.851 70.7353 260.468 71.1046C261.085 71.4738 261.456 71.9907 261.579 72.68C261.752 73.5169 262.246 76.3724 262.419 77.0616C264.863 76.2001 266.591 75.6831 267.628 75.4862C268.394 75.3385 269.061 75.4862 269.653 75.8555C270.246 76.2493 270.591 76.7662 270.715 77.4309C270.962 78.7109 270.369 79.6463 268.962 80.2125H268.937Z" fill="#C63D4D"/>
<path d="M298.739 77.8258C297.776 78.2196 296.64 78.6135 295.332 79.0073C298.122 80.9274 299.628 82.3059 299.776 83.1674C299.899 83.8321 299.751 84.4721 299.282 85.0383C298.813 85.629 298.245 85.9737 297.529 86.1214C296.764 86.2691 295.924 86.0229 294.986 85.3829C294.27 84.8167 293.554 84.2505 292.862 83.6844C292.196 83.1674 291.603 82.749 291.085 82.429C288.764 85.6783 287.085 87.4014 286.072 87.5737C285.332 87.7214 284.665 87.5737 284.023 87.2045C283.381 86.8106 283.011 86.2937 282.887 85.629C282.764 85.0136 282.986 84.3244 283.579 83.5121C284.097 82.9213 284.616 82.3059 285.134 81.6905C285.455 81.2966 285.727 80.9766 285.924 80.7551C284.122 80.5581 282.764 80.3858 281.9 80.2135C280.69 79.9674 279.998 79.3766 279.801 78.3919C279.677 77.7519 279.801 77.1119 280.221 76.4965C280.616 75.8811 281.208 75.4872 281.949 75.3395C282.344 75.2657 284.023 75.438 286.937 75.8811C286.64 74.7242 286.122 71.7948 286.023 71.3271C285.9 70.6379 286.023 70.0225 286.443 69.4563C286.863 68.8902 287.455 68.5455 288.221 68.3978C288.986 68.2501 289.653 68.3486 290.27 68.7178C290.887 69.0871 291.258 69.604 291.381 70.2933C291.554 71.1302 292.048 73.9857 292.22 74.6749C294.665 73.8134 296.393 73.2964 297.43 73.0995C298.196 72.9518 298.862 73.0995 299.455 73.4687C300.047 73.8626 300.393 74.3795 300.517 75.0442C300.764 76.3242 300.171 77.2596 298.764 77.8258H298.739Z" fill="#C63D4D"/>
<path d="M328.541 75.4137C327.578 75.8075 326.442 76.2014 325.134 76.5952C327.924 78.5153 329.43 79.8938 329.578 80.7553C329.702 81.42 329.553 82.06 329.084 82.6261C328.615 83.2169 328.047 83.5615 327.331 83.7092C326.566 83.8569 325.726 83.6108 324.788 82.9708C324.072 82.4046 323.356 81.8384 322.665 81.2723C321.998 80.7553 321.405 80.3369 320.887 80.0168C318.566 83.2662 316.887 84.9893 315.875 85.1616C315.134 85.3093 314.467 85.1616 313.825 84.7924C313.183 84.3985 312.813 83.8816 312.69 83.2169C312.566 82.6015 312.788 81.9123 313.381 81.1C313.899 80.5092 314.418 79.8938 314.936 79.2784C315.257 78.8845 315.529 78.5645 315.727 78.343C313.924 78.146 312.566 77.9737 311.702 77.8014C310.492 77.5552 309.801 76.9645 309.603 75.9798C309.48 75.3398 309.603 74.6998 310.023 74.0844C310.418 73.469 311.011 73.0751 311.751 72.9274C312.146 72.8536 313.825 73.0259 316.739 73.469C316.443 72.312 315.924 69.3827 315.825 68.915C315.702 68.2258 315.825 67.6104 316.245 67.0442C316.665 66.4781 317.257 66.1334 318.023 65.9857C318.788 65.838 319.455 65.9365 320.072 66.3057C320.689 66.675 321.06 67.1919 321.183 67.8812C321.356 68.7181 321.85 71.5736 322.023 72.2628C324.467 71.4013 326.195 70.8843 327.232 70.6874C327.998 70.5397 328.665 70.6874 329.257 71.0566C329.85 71.4505 330.195 71.9674 330.319 72.6321C330.566 73.9121 329.973 74.8475 328.566 75.4137H328.541Z" fill="#C63D4D"/>
</g>
<defs>
<linearGradient id="paint0_linear_8138_191501" x1="202.493" y1="-689.602" x2="181.191" y2="1589.2" gradientUnits="userSpaceOnUse">
<stop stop-color="#F1F5FB"/>
<stop offset="1" stop-color="#ABC0E3"/>
</linearGradient>
<clipPath id="clip0_8138_191501">
<rect width="388" height="410" fill="white"/>
</clipPath>
</defs>
</svg>
