<svg width="537" height="490" viewBox="0 0 537 490" fill="none" xmlns="http://www.w3.org/2000/svg">
<g clip-path="url(#clip0_8138_179113)">
<path opacity="0.1" d="M166.772 85.3056C68.0941 101.881 89.0798 151.184 63.2039 211.679C37.3281 272.141 -4.67553 363.352 100.674 416.159C206.023 468.966 310.822 446.779 338.576 356.638C366.297 266.497 513.294 234.384 491.693 165.911C470.06 97.4369 398.78 46.3816 166.772 85.338V85.3056Z" fill="url(#paint0_linear_8138_179113)"/>
<g opacity="0.2">
<path d="M83.9953 141.389C89.8247 141.843 95.6864 142.232 101.516 142.557C107.345 142.881 113.174 143.173 118.971 143.368C124.768 143.562 130.662 143.757 136.524 143.854C142.386 143.951 148.183 144.016 154.012 144.016C159.874 144.016 165.736 143.951 171.565 143.854C177.394 143.757 183.288 143.562 189.118 143.335C194.947 143.108 200.777 142.816 206.573 142.492C212.37 142.167 218.2 141.778 224.029 141.324C229.858 140.87 235.688 140.383 241.517 139.8C247.347 139.248 253.176 138.632 258.973 137.951C264.77 137.27 270.534 136.556 276.331 135.777C282.096 134.999 287.86 134.156 293.625 133.28C299.39 132.404 305.154 131.463 310.886 130.458C316.619 129.452 322.416 128.414 328.18 127.279C333.945 126.144 339.612 125.008 345.312 123.808C351.012 122.608 356.744 121.311 362.444 119.981C368.208 118.651 373.94 117.224 379.673 115.796C385.47 114.337 391.267 112.812 397.031 111.288C402.828 109.763 408.657 108.206 414.454 106.682C420.251 105.157 426.016 103.665 431.845 102.206C437.675 100.746 437.48 100.811 440.33 100.13C443.18 99.4484 440.525 99.5457 440.201 99.643C434.371 101.038 428.574 102.497 422.81 103.99C416.98 105.482 411.184 107.039 405.354 108.563C399.525 110.088 393.793 111.612 387.996 113.137C382.199 114.629 376.402 116.121 370.605 117.516C364.937 118.878 359.27 120.208 353.57 121.473C347.87 122.738 342.171 123.97 336.471 125.106C330.739 126.273 324.974 127.376 319.209 128.447C313.445 129.517 307.745 130.49 301.98 131.431C296.216 132.372 290.451 133.247 284.687 134.091C278.857 134.934 273.028 135.713 267.199 136.426C261.402 137.14 255.637 137.821 249.808 138.405C244.011 139.021 238.214 139.573 232.385 140.059C226.555 140.546 220.726 141 214.864 141.389C209.002 141.778 203.238 142.103 197.408 142.394C191.579 142.686 185.717 142.913 179.856 143.076C174.026 143.238 168.197 143.368 162.368 143.4C156.538 143.465 150.709 143.465 144.88 143.4C139.05 143.335 133.156 143.238 127.327 143.076C121.497 142.913 115.668 142.686 109.839 142.427C104.009 142.135 98.18 141.811 92.3831 141.421C89.5656 141.227 86.7157 141.032 83.8982 140.805C81.0806 140.578 83.5743 141.292 83.8982 141.324L83.9953 141.389Z" fill="white"/>
<path d="M63.8194 210.706C70.1021 208.014 76.482 205.614 82.9591 203.473C89.4361 201.332 96.0103 199.451 102.617 197.796C109.224 196.142 115.927 194.715 122.663 193.482C129.4 192.25 136.2 191.212 143.001 190.368C149.802 189.525 157.251 188.779 164.376 188.26C171.5 187.709 178.657 187.319 185.815 187.027C192.972 186.736 200.097 186.541 207.221 186.444C214.411 186.314 221.633 186.281 228.822 186.249C236.012 186.217 243.137 186.249 250.261 186.249C257.386 186.249 264.608 186.249 271.797 186.184C278.987 186.119 285.594 186.022 292.459 185.827C299.325 185.633 306.158 185.373 313.024 184.984C319.857 184.595 326.69 184.076 333.524 183.427C340.292 182.778 347.028 181.967 353.732 180.994C360.501 180.021 367.269 178.853 373.973 177.459C380.612 176.096 387.251 174.507 393.793 172.658C400.399 170.809 406.909 168.701 413.353 166.365C419.798 164.03 426.21 161.435 432.558 158.808C438.905 156.148 445.22 153.456 451.568 150.763C457.915 148.071 464.263 145.476 470.708 143.043C473.817 141.876 476.926 140.74 480.067 139.67C483.208 138.6 480.229 139.054 479.937 139.183C473.396 141.422 466.983 143.919 460.571 146.514C454.159 149.109 447.973 151.769 441.69 154.429C435.311 157.153 428.898 159.846 422.454 162.376C416.074 164.873 409.661 167.241 403.152 169.349C396.643 171.458 390.036 173.274 383.365 174.864C376.693 176.453 370.054 177.815 363.318 178.983C356.55 180.151 349.781 181.124 342.948 181.935C336.115 182.746 329.314 183.362 322.513 183.881C315.712 184.4 308.814 184.757 301.981 185.049C295.115 185.308 288.282 185.503 281.416 185.6C274.55 185.698 267.296 185.762 260.204 185.795C253.014 185.795 245.857 185.795 238.667 185.795C231.478 185.795 224.321 185.795 217.131 185.86C209.942 185.925 202.752 186.022 195.53 186.249C188.308 186.476 181.248 186.736 174.124 187.157C166.999 187.579 159.777 188.13 152.62 188.844C145.463 189.558 138.824 190.401 131.99 191.439C125.222 192.477 118.486 193.709 111.782 195.169C105.111 196.629 98.4716 198.283 91.9298 200.197C85.388 202.11 78.9433 204.251 72.5634 206.652C66.1835 209.052 66.5074 209.019 63.5279 210.285C60.5485 211.55 63.4955 210.868 63.787 210.739L63.8194 210.706Z" fill="white"/>
<path d="M35.2881 293.224C41.2794 290.111 47.4326 287.321 53.7153 284.921C59.998 282.488 66.4103 280.412 72.8874 278.596C79.494 276.779 86.1653 275.255 92.8691 273.99C99.8319 272.692 106.827 271.622 113.855 270.778C120.882 269.935 127.845 269.319 134.84 268.8C141.9 268.281 148.928 267.924 155.988 267.632C163.048 267.34 169.914 267.048 176.876 266.951C183.742 266.853 190.673 267.113 197.409 268.638C202.979 269.903 208.322 272.076 212.986 275.352C217.39 278.466 221.115 282.618 223.317 287.581C225.519 292.543 226.005 299.128 224.871 304.902C223.738 310.675 221.212 316.482 218.006 321.574C214.864 326.569 210.978 331.143 206.8 335.327C202.59 339.479 197.992 343.242 193.166 346.648C188.341 350.053 183.159 353.167 177.913 356.022C172.602 358.909 167.161 361.504 161.623 363.969C156.085 366.434 149.414 369.256 143.293 371.818C137.172 374.381 131.116 376.976 125.125 379.765C119.134 382.555 113.207 385.572 107.507 388.912C101.775 392.286 96.3019 396.049 91.0555 400.168C88.5295 402.179 86.0358 404.255 83.6069 406.396C81.178 408.537 83.7364 406.98 83.9631 406.753C89.0476 402.244 94.3912 398.06 99.9938 394.265C105.532 390.502 111.361 387.161 117.32 384.112C123.246 381.095 129.302 378.338 135.423 375.711C141.576 373.051 147.762 370.489 153.915 367.861C159.777 365.364 165.606 362.769 171.306 359.947C176.714 357.287 182.026 354.4 187.143 351.221C192.259 348.042 197.085 344.604 201.619 340.744C206.12 336.917 210.33 332.7 214.022 328.061C217.714 323.423 220.953 318.233 223.155 312.589C225.292 307.075 226.491 301.107 225.843 295.171C225.228 289.592 222.896 284.434 219.236 280.217C215.577 276.001 210.978 272.952 205.991 270.811C200.129 268.281 193.814 267.113 187.466 266.659C180.568 266.14 173.605 266.432 166.707 266.659C159.583 266.886 152.426 267.178 145.301 267.567C138.176 267.956 131.148 268.443 124.088 269.092C117.061 269.74 110.033 270.584 103.038 271.654C96.0428 272.725 89.08 274.022 82.1819 275.611C75.6077 277.136 69.0983 278.952 62.6536 281.061C56.2414 283.169 49.9262 285.602 43.773 288.391C40.7936 289.754 37.8465 291.181 34.9642 292.673C32.082 294.165 34.9319 293.257 35.2233 293.127L35.2881 293.224Z" fill="white"/>
<path d="M232.806 443.115C238.376 438.444 243.655 433.416 248.448 427.935C253.241 422.453 256.285 418.236 259.621 412.981C262.956 407.727 265.936 402.245 268.527 396.633C271.15 390.989 273.417 385.151 275.392 379.247C277.368 373.344 279.084 367.148 280.509 360.985C281.934 354.822 283.132 348.497 284.104 342.205C285.075 335.912 285.82 329.554 286.403 323.197C286.986 316.872 287.407 310.514 287.699 304.156C287.99 297.799 288.184 290.63 288.832 283.884C289.447 277.169 290.549 270.487 292.654 264.065C294.661 257.967 297.706 252.258 301.786 247.295C305.575 242.689 310.109 238.797 315.032 235.456C319.954 232.115 325.427 229.228 330.965 226.73C336.503 224.233 342.494 222.027 348.389 219.951C355.481 217.486 362.606 215.15 369.795 213.01C376.952 210.869 384.174 208.858 391.429 207.041C398.715 205.192 406.034 203.506 413.386 202.014C420.737 200.489 428.121 199.127 435.537 197.927C442.954 196.726 450.434 195.688 457.915 194.813C465.396 193.937 473.137 193.256 480.779 192.639C484.536 192.315 488.293 191.991 492.05 191.634C495.806 191.277 492.373 191.082 492.05 191.115C484.245 191.861 476.44 192.445 468.635 193.191C460.83 193.937 453.705 194.78 446.289 195.818C438.841 196.856 431.457 198.056 424.073 199.419C416.689 200.781 409.338 202.305 402.019 203.992C394.667 205.679 387.38 207.528 380.126 209.539C372.872 211.55 365.65 213.723 358.493 216.059C351.951 218.167 345.442 220.405 339.029 222.87C333.362 225.076 327.759 227.509 322.416 230.396C317.169 233.25 312.117 236.559 307.648 240.548C303.179 244.505 299.293 249.144 296.345 254.334C293.075 260.14 291.067 266.562 289.804 273.082C288.541 279.602 287.99 286.479 287.666 293.258C287.342 299.81 287.116 306.395 286.695 312.947C286.274 319.337 285.691 325.727 284.946 332.084C284.201 338.442 283.229 344.799 282.064 351.125C280.898 357.45 279.473 363.58 277.789 369.678C276.105 375.744 274.129 381.777 271.83 387.648C269.53 393.487 266.907 399.196 263.928 404.71C260.948 410.224 257.613 415.446 253.888 420.409C249.84 425.826 245.306 430.886 240.449 435.59C235.591 440.293 235.202 440.455 232.482 442.726C229.761 444.996 232.579 443.31 232.838 443.082L232.806 443.115Z" fill="white"/>
<path d="M301.106 414.636C302.823 405.391 304.507 396.115 306.482 386.903C308.134 379.085 309.98 371.301 312.117 363.581C314.255 355.861 316.684 348.206 319.533 340.68C322.351 333.252 325.557 325.954 329.281 318.915C332.973 311.942 337.183 305.26 341.944 298.967C346.705 292.674 352.081 286.803 357.942 281.516C363.772 276.229 370.087 271.461 376.726 267.211C383.365 262.962 390.328 259.167 397.485 255.859C404.804 252.453 412.35 249.534 420.025 247.036C428.737 244.181 437.643 241.846 446.613 239.9C448.815 239.413 451.018 238.959 453.22 238.537C455.422 238.116 453.414 237.986 453.09 238.051C444.022 239.835 435.052 241.976 426.211 244.603C418.179 246.971 410.277 249.793 402.569 253.069C395.283 256.183 388.158 259.751 381.325 263.806C374.556 267.828 368.047 272.369 361.991 277.397C355.935 282.424 350.267 288.036 345.183 294.134C340.131 300.232 335.629 306.752 331.678 313.628C327.727 320.505 324.294 327.641 321.282 334.972C318.238 342.367 315.615 349.957 313.348 357.645C311.081 365.332 309.073 373.182 307.292 381.032C305.316 389.887 303.6 398.807 301.916 407.727C301.495 409.997 301.074 412.268 300.653 414.539C300.588 414.863 301.074 414.993 301.139 414.668L301.106 414.636Z" fill="white"/>
</g>
<path fill-rule="evenodd" clip-rule="evenodd" d="M98.0497 84.8835C95.2969 83.7482 94.0015 80.6343 95.1026 77.8772C96.2361 75.1201 99.3451 73.8226 102.098 74.9255C104.851 76.0608 106.146 79.1747 105.045 81.9318C103.911 84.6889 100.802 85.9864 98.0497 84.8835Z" fill="#91BBE4" stroke="#367BAA" stroke-width="0.2" stroke-linecap="round" stroke-linejoin="round"/>
<path fill-rule="evenodd" clip-rule="evenodd" d="M114.729 65.163C114.308 65.5847 113.628 65.6171 113.175 65.2278C112.721 64.8386 112.624 64.1899 112.915 63.7033C113.498 62.7951 113.984 62.0166 114.34 61.4652C114.632 61.0111 114.567 60.4272 114.211 60.038C113.757 59.5839 113.11 58.9027 112.365 58.1567C111.944 57.735 111.912 57.0538 112.3 56.5997C112.689 56.1456 113.336 56.0483 113.822 56.3402C114.729 56.9241 115.506 57.4106 116.057 57.7674C116.51 58.0594 117.093 57.9945 117.482 57.6377C117.935 57.1836 118.615 56.5348 119.36 55.7888C119.781 55.3671 120.461 55.3347 120.915 55.7239C121.368 56.1132 121.465 56.7619 121.174 57.2484C120.591 58.1567 120.105 58.9351 119.749 59.4866C119.457 59.9407 119.522 60.5245 119.878 60.9138C120.332 61.3679 120.979 62.0491 121.724 62.7951C122.145 63.2168 122.178 63.898 121.789 64.3521C121.4 64.8062 120.753 64.9035 120.267 64.6116C119.36 64.0277 118.583 63.5411 118.032 63.1843C117.579 62.8924 116.996 62.9573 116.607 63.3141C116.154 63.7682 115.474 64.4169 114.729 65.163Z" fill="#91BBE4" stroke="#367BAA" stroke-width="0.2" stroke-linecap="round" stroke-linejoin="round"/>
<path fill-rule="evenodd" clip-rule="evenodd" d="M497.782 423.328C494.543 421.868 493.118 418.041 494.576 414.797C496.033 411.553 499.854 410.126 503.093 411.586C506.332 413.045 507.756 416.873 506.299 420.117C504.842 423.36 501.02 424.788 497.782 423.328Z" fill="#91BBE4"/>
<path fill-rule="evenodd" clip-rule="evenodd" d="M442.144 410.807C441.626 411.294 440.816 411.294 440.298 410.807C439.78 410.353 439.683 409.542 440.071 408.959C440.816 407.888 441.431 406.98 441.885 406.364C442.241 405.845 442.209 405.131 441.755 404.644C441.237 404.061 440.492 403.25 439.618 402.309C439.132 401.79 439.132 400.979 439.618 400.46C440.071 399.941 440.881 399.844 441.464 400.233C442.532 400.979 443.439 401.595 444.055 402.05C444.573 402.406 445.285 402.374 445.771 401.92C446.354 401.401 447.163 400.655 448.103 399.779C448.621 399.292 449.43 399.292 449.949 399.779C450.467 400.233 450.564 401.044 450.175 401.628C449.43 402.698 448.815 403.607 448.362 404.223C448.006 404.742 448.038 405.455 448.491 405.942C449.009 406.526 449.754 407.337 450.629 408.277C451.115 408.796 451.115 409.607 450.629 410.126C450.175 410.645 449.366 410.743 448.783 410.353C447.714 409.607 446.807 408.991 446.192 408.537C445.674 408.18 444.961 408.213 444.476 408.667C443.893 409.186 443.083 409.932 442.144 410.807Z" fill="#91BBE4"/>
<path fill-rule="evenodd" clip-rule="evenodd" d="M415.199 55.6266C412.284 57.7349 411.637 61.8544 413.742 64.7737C415.847 67.693 419.96 68.3417 422.874 66.2333C425.789 64.125 426.437 60.0055 424.332 57.0862C422.227 54.1669 418.114 53.5182 415.199 55.6266Z" fill="#91BBE4" stroke="#367BAA" stroke-width="0.2" stroke-linecap="round" stroke-linejoin="round"/>
<path fill-rule="evenodd" clip-rule="evenodd" d="M440.654 74.1796C440.039 73.8228 439.229 73.985 438.808 74.5365C438.387 75.1203 438.452 75.9312 438.97 76.4178C439.909 77.326 440.719 78.1045 441.302 78.6559C441.788 79.11 441.885 79.8236 441.561 80.4075C441.172 81.0887 440.589 82.0618 439.942 83.197C439.585 83.8133 439.747 84.6242 440.298 85.0459C440.881 85.4676 441.69 85.4027 442.176 84.8837C443.083 83.9431 443.86 83.1322 444.411 82.5483C444.864 82.0618 445.577 81.9644 446.16 82.2888C446.84 82.678 447.811 83.2619 448.945 83.9106C449.56 84.2674 450.37 84.1053 450.791 83.5538C451.212 82.97 451.147 82.1591 450.629 81.6725C449.69 80.7643 448.88 79.9858 448.297 79.4344C447.811 78.9803 447.714 78.2667 448.038 77.6828C448.427 77.0016 449.009 76.0285 449.657 74.8933C450.013 74.277 449.851 73.466 449.301 73.0444C448.718 72.6227 447.908 72.6876 447.423 73.2065C446.516 74.1472 445.739 74.9581 445.188 75.542C444.735 76.0285 444.022 76.1258 443.439 75.8015C442.759 75.4122 441.788 74.8284 440.654 74.1796Z" fill="#91BBE4" stroke="#367BAA" stroke-width="0.2" stroke-linecap="round" stroke-linejoin="round"/>
<path fill-rule="evenodd" clip-rule="evenodd" d="M58.9937 400.525C55.8523 402.569 54.9779 406.785 57.0506 409.932C59.0909 413.078 63.3009 413.954 66.4423 411.878C69.5837 409.834 70.4581 405.618 68.3854 402.471C66.3452 399.325 62.1351 398.449 58.9937 400.525Z" fill="#91BBE4" stroke="#367BAA" stroke-width="0.2" stroke-linecap="round" stroke-linejoin="round"/>
<path fill-rule="evenodd" clip-rule="evenodd" d="M84.416 420.96C83.8007 420.538 82.9587 420.668 82.4729 421.251C81.9871 421.835 82.0195 422.679 82.5377 423.198C83.4768 424.171 84.2865 425.014 84.837 425.63C85.3228 426.117 85.3876 426.863 84.999 427.447C84.5456 428.128 83.8979 429.101 83.1854 430.236C82.7644 430.853 82.8939 431.696 83.4768 432.183C84.0598 432.669 84.9018 432.637 85.42 432.118C86.3915 431.177 87.2335 430.366 87.8489 429.815C88.3346 429.328 89.0795 429.263 89.6624 429.653C90.3425 430.107 91.3141 430.755 92.4476 431.469C93.0629 431.891 93.9049 431.761 94.3907 431.177C94.8765 430.593 94.8441 429.75 94.3259 429.231C93.3867 428.258 92.5771 427.414 92.0266 426.798C91.5408 426.312 91.476 425.566 91.8646 424.982C92.318 424.3 92.9657 423.327 93.6782 422.192C94.0992 421.576 93.9697 420.732 93.3867 420.246C92.8038 419.759 91.9618 419.792 91.4436 420.311C90.4721 421.251 89.63 422.062 89.0147 422.614C88.5289 423.1 87.7841 423.165 87.2011 422.776C86.5211 422.322 85.5495 421.673 84.416 420.96Z" fill="#91BBE4" stroke="#367BAA" stroke-width="0.2" stroke-linecap="round" stroke-linejoin="round"/>
<path d="M459.567 369.971L173.281 379.799C165.574 380.059 159.129 374.025 158.87 366.305L153.948 222.644C153.688 214.924 159.712 208.469 167.42 208.209L453.705 198.381C461.413 198.122 467.858 204.155 468.117 211.875L473.039 355.537C473.298 363.256 467.275 369.711 459.567 369.971Z" fill="#E7ECF7"/>
<path d="M288.314 415.998C287.472 415.998 286.598 415.771 285.82 415.317L236.53 386.838C234.134 385.443 233.324 382.361 234.684 379.993L253.273 347.719C253.953 346.551 255.022 345.74 256.317 345.384C257.613 345.027 258.973 345.221 260.106 345.87L309.397 374.35C311.793 375.744 312.603 378.826 311.243 381.194L292.654 413.468C291.714 415.09 290.03 415.966 288.314 415.966V415.998ZM257.645 347.46C257.419 347.46 257.159 347.46 256.933 347.557C256.22 347.751 255.637 348.206 255.249 348.854L236.66 381.129C235.882 382.459 236.336 384.145 237.664 384.924L286.954 413.403C287.602 413.76 288.346 413.857 289.059 413.695C289.771 413.501 290.354 413.046 290.743 412.398L309.332 380.123C310.109 378.793 309.656 377.107 308.328 376.328L259.038 347.849C258.617 347.589 258.131 347.492 257.645 347.492V347.46Z" fill="#B9CBE9"/>
<path d="M79.4615 292.546C117.827 292.546 148.928 261.395 148.928 222.969C148.928 184.543 117.827 153.393 79.4615 153.393C41.0963 153.393 9.99512 184.543 9.99512 222.969C9.99512 261.395 41.0963 292.546 79.4615 292.546Z" fill="#E7ECF7"/>
<path d="M152.814 321.997C152.782 321.997 152.75 321.997 152.717 321.997L115.248 318.3C107.572 317.554 100.642 313.823 95.7192 307.823C90.7967 301.822 88.5297 294.297 89.2746 286.609L103.297 143.564C104.852 127.67 119.037 115.992 134.938 117.549L217.779 125.691C218.395 125.756 218.848 126.307 218.783 126.924C218.718 127.54 218.168 127.994 217.553 127.929L134.711 119.788C120.073 118.36 106.957 129.097 105.532 143.791L91.5092 286.836C90.8291 293.94 92.9341 300.881 97.468 306.395C102.002 311.91 108.382 315.348 115.474 316.062L152.944 319.759C153.559 319.824 154.013 320.376 153.948 320.992C153.883 321.576 153.397 321.997 152.847 321.997H152.814Z" fill="#B9CBE9"/>
<path d="M203.4 326.96C203.368 326.96 203.335 326.96 203.303 326.96L162.303 322.938C161.688 322.873 161.234 322.321 161.299 321.705C161.364 321.089 161.914 320.635 162.53 320.7L203.53 324.722C204.145 324.787 204.598 325.338 204.533 325.954C204.469 326.538 203.983 326.96 203.432 326.96H203.4Z" fill="#B9CBE9"/>
<path d="M403.185 346.487C402.246 346.487 401.274 346.455 400.302 346.357L214.994 328.128C214.379 328.063 213.925 327.512 213.99 326.895C214.055 326.279 214.605 325.825 215.221 325.89L400.529 344.119C407.621 344.8 414.552 342.692 420.057 338.151C425.563 333.61 428.996 327.22 429.708 320.116L443.731 177.071C445.156 162.409 434.436 149.272 419.766 147.845L401.144 145.996C400.529 145.931 400.076 145.38 400.14 144.764C400.205 144.147 400.756 143.693 401.371 143.758L419.993 145.607C435.861 147.164 447.52 161.371 445.966 177.298L431.943 320.343C431.198 328.031 427.474 334.972 421.482 339.902C416.236 344.216 409.824 346.487 403.152 346.487H403.185Z" fill="#B9CBE9"/>
<path d="M384.725 144.407C384.693 144.407 384.66 144.407 384.628 144.407L341.135 140.125C340.519 140.06 340.066 139.509 340.131 138.893C340.195 138.276 340.746 137.822 341.361 137.887L384.855 142.169C385.47 142.234 385.923 142.785 385.859 143.401C385.794 143.985 385.308 144.407 384.758 144.407H384.725Z" fill="#B9CBE9"/>
<path d="M401.76 331.436L116.672 303.378C108.997 302.632 103.394 295.788 104.139 288.101L118.162 145.055C118.907 137.368 125.74 131.756 133.415 132.502L418.503 160.56C426.178 161.306 431.781 168.15 431.036 175.837L417.013 318.883C416.268 326.57 409.435 332.182 401.76 331.436Z" fill="#7B9AD0"/>
<path d="M201.425 283.073C233.208 283.073 258.973 257.266 258.973 225.433C258.973 193.599 233.208 167.793 201.425 167.793C169.641 167.793 143.876 193.599 143.876 225.433C143.876 257.266 169.641 283.073 201.425 283.073Z" fill="#4171B8"/>
<path d="M213.64 215.025C219.268 209.388 219.268 200.249 213.64 194.612C208.012 188.975 198.887 188.975 193.259 194.612C187.631 200.249 187.631 209.388 193.259 215.025C198.887 220.662 208.012 220.662 213.64 215.025Z" fill="white"/>
<path d="M229.277 259.135C229.212 259.849 229.115 260.595 228.985 261.276C220.209 268.056 208.939 271.624 197.021 270.456C185.103 269.288 174.74 263.579 167.453 255.211C167.453 254.497 167.518 253.783 167.583 253.037C169.137 237.241 184.196 225.791 201.231 227.477C218.266 229.164 230.831 243.306 229.277 259.103V259.135Z" fill="#7B9AD0"/>
<path d="M382.361 218.07L294.208 209.41C291.423 209.15 289.415 206.653 289.674 203.896C289.933 201.106 292.427 199.095 295.18 199.355L383.332 208.015C386.118 208.275 388.125 210.772 387.866 213.529C387.607 216.319 385.114 218.33 382.361 218.07Z" fill="#B9CBE9"/>
<path d="M324.068 242.592L291.294 239.381C288.509 239.121 286.501 236.624 286.76 233.866C287.019 231.077 289.513 229.066 292.265 229.325L325.039 232.536C327.824 232.796 329.832 235.294 329.573 238.051C329.314 240.84 326.82 242.851 324.068 242.592Z" fill="#4171B8"/>
<path d="M340.389 274.445L288.314 269.32C285.529 269.061 283.521 266.563 283.78 263.806C284.039 261.016 286.533 259.005 289.285 259.265L341.361 264.39C344.146 264.649 346.154 267.147 345.895 269.904C345.636 272.693 343.142 274.705 340.389 274.445Z" fill="#B9CBE9"/>
<path d="M355.19 67.5959L319.469 138.924L307.842 137.789L293.56 136.394L285.108 123.29L285.464 106.909L294.435 89.0041L307.518 62.8926L355.19 67.5959Z" fill="#C63D4D"/>
<g style="mix-blend-mode:multiply" opacity="0.3">
<path d="M307.842 137.791L293.56 136.396L285.108 123.291L285.464 106.911L294.435 89.0059L307.842 137.791Z" fill="#2B63AF"/>
</g>
<path d="M293.561 136.395L245.89 131.692L224.742 54.752L272.413 59.4553L293.561 136.395Z" fill="#B9CBE9"/>
<g style="mix-blend-mode:multiply" opacity="0.3">
<path d="M339.645 430.368C371.034 430.368 396.481 404.881 396.481 373.442C396.481 342.002 371.034 316.516 339.645 316.516C308.255 316.516 282.809 342.002 282.809 373.442C282.809 404.881 308.255 430.368 339.645 430.368Z" fill="#C63D4D"/>
</g>
<path d="M374.994 406.552C397.19 384.321 397.19 348.277 374.994 326.046C352.798 303.815 316.811 303.815 294.615 326.046C272.42 348.277 272.42 384.321 294.615 406.552C316.811 428.783 352.798 428.783 374.994 406.552Z" fill="#C63D4D"/>
<path d="M328.019 395.4L307.001 380.512L313.802 370.911L325.234 379.02L352.243 340.842L361.829 347.621L328.019 395.4Z" fill="#E7ECF7"/>
<path d="M411.022 426.378C411.022 426.378 394.538 386.384 405.84 352.552C417.175 318.688 442.403 331.274 446.095 342.854C449.82 354.434 442.695 388.265 419.41 426.378H410.99H411.022Z" fill="#B9CBE9"/>
<path d="M408.269 397.25C407.945 397.25 407.654 396.991 407.621 396.666C406.552 386.351 406.682 376.75 408.042 368.122C409.143 361.181 410.989 354.855 413.612 349.276C418.049 339.74 423.037 335.848 423.263 335.685C423.555 335.458 423.976 335.523 424.17 335.815C424.397 336.107 424.332 336.529 424.041 336.723C423.976 336.756 419.053 340.648 414.746 349.925C410.763 358.488 406.52 373.539 408.917 396.536C408.949 396.893 408.69 397.218 408.334 397.25C408.334 397.25 408.301 397.25 408.269 397.25Z" fill="white"/>
<path d="M413.742 426.377C413.742 426.377 412.446 393.811 434.144 384.826C451.341 377.722 463.809 394.881 468.246 402.309C469.218 403.964 468.505 406.137 466.756 406.753L419.442 426.345H413.742V426.377Z" fill="#8EB0DC"/>
<path d="M419.442 426.378C419.442 426.378 416.948 393.876 438.29 384.015C455.195 376.198 468.311 392.806 473.007 400.072C474.043 401.661 473.395 403.867 471.679 404.58L419.442 426.378Z" fill="#B9CBE9"/>
<path d="M419.442 426.379C419.442 426.379 412.382 407.825 397.128 407.436C381.907 407.047 392.53 425.049 398.1 426.379H419.442Z" fill="#7B9AD0"/>
<path d="M413.353 424.334C413.159 424.334 412.997 424.269 412.868 424.107C402.828 412.397 394.343 411.943 394.278 411.943C393.922 411.943 393.631 411.619 393.663 411.262C393.663 410.905 393.955 410.613 394.343 410.613C394.699 410.613 403.443 411.035 413.904 423.264C414.131 423.523 414.098 423.945 413.839 424.204C413.71 424.302 413.548 424.366 413.418 424.366L413.353 424.334Z" fill="white"/>
<path d="M60.1595 172.951C68.7268 172.951 75.672 165.995 75.672 157.414C75.672 148.833 68.7268 141.877 60.1595 141.877C51.5922 141.877 44.647 148.833 44.647 157.414C44.647 165.995 51.5922 172.951 60.1595 172.951Z" fill="#B9CBE9"/>
</g>
<defs>
<linearGradient id="paint0_linear_8138_179113" x1="274.421" y1="-939.984" x2="246.221" y2="2062.8" gradientUnits="userSpaceOnUse">
<stop stop-color="#F1F5FB"/>
<stop offset="1" stop-color="#ABC0E3"/>
</linearGradient>
<clipPath id="clip0_8138_179113">
<rect width="536" height="490" fill="white" transform="translate(0.566406)"/>
</clipPath>
</defs>
</svg>
